<svg enable-background="new 0 0 1002.4 1048.1" viewBox="0 0 1002.4 1048.1" xmlns="http://www.w3.org/2000/svg"><g fill="#61ba45" opacity=".2"><g transform="translate(834.196 -237.031)"><path d="m-558.9 1161c1.3 1.1 2.9 1.8 4.6 1.8v2.5c0 .2.2.4.5.4h.4c.2 0 .4-.2.5-.4v-2.5c3.2-.3 5.1-2.5 5.1-4.9 0-3.3-3.2-4.9-5.1-5.6v-3.4c.9.4 1.7.9 2.6 1.4.2.1.5.1.6-.1l1.4-2c.1-.3.1-.6-.1-.8-1.3-1-2.8-1.6-4.5-1.8v-.8c0-.3-.2-.5-.5-.5h-.4c-.3 0-.5.2-.5.5v.8c-3.2.3-4.9 2.4-4.9 4.8 0 2.9 2.8 4.6 4.9 5.4v3.9c-1-.4-1.9-.9-2.8-1.4-.3-.2-.7-.1-.9.3l-1 1.8c-.2.3-.1.4.1.6zm4.6-9.3c-.8-.3-1.3-1-1.3-1.9.1-.7.6-1.2 1.3-1.2zm1.4 8.2v-3.5c.7.4 1.2 1.2 1.3 2-.1.7-.6 1.3-1.3 1.5z"/><path d="m157 1057 1-1.8c.2-.4.6-.6.9-.3.9.6 1.8 1.1 2.8 1.4v-3.9c-2.1-.8-4.9-2.5-4.9-5.4 0-2.4 1.7-4.4 4.9-4.8v-.8c0-.3.2-.5.5-.5h.4c.3 0 .5.2.5.5v.8c1.6.2 3.2.8 4.5 1.8.2.2.3.5.1.8l-1.4 2c-.1.2-.4.3-.6.2-.8-.5-1.7-1-2.6-1.4v3.4c1.9.7 5.1 2.4 5.1 5.6 0 2.5-2 4.7-5.1 4.9v2.5c0 .2-.2.4-.5.4h-.4c-.2 0-.4-.2-.5-.4v-2.5c-1.7 0-3.3-.7-4.6-1.8-.2-.3-.3-.4-.1-.7zm4.7-11.7c-.7 0-1.2.6-1.3 1.2 0 .7.4 1.3 1.3 1.9zm2.7 9.7c-.1-.8-.5-1.6-1.3-2v3.5c.8-.1 1.3-.7 1.3-1.5z"/><path d="m49 923.7 1-1.8c.2-.4.6-.6.9-.3.9.6 1.8 1.1 2.8 1.4v-3.9c-2.1-.8-4.9-2.5-4.9-5.4 0-2.4 1.7-4.4 4.9-4.8v-.8c0-.3.2-.5.5-.5h.4c.3 0 .5.2.5.5v.8c1.6.2 3.2.8 4.5 1.8.2.2.3.5.1.8l-1.4 2c-.1.2-.4.3-.6.2-.8-.5-1.7-1-2.6-1.4v3.4c1.9.7 5.1 2.4 5.1 5.6 0 2.5-2 4.7-5.1 4.9v2.5c0 .2-.2.4-.5.4h-.4c-.2 0-.4-.2-.5-.4v-2.5c-1.7 0-3.3-.7-4.6-1.8-.2-.3-.3-.4-.1-.7zm4.7-11.8c-.7 0-1.3.6-1.3 1.2 0 .8.6 1.5 1.3 1.9zm2.7 9.8c-.1-.8-.5-1.6-1.3-2v3.5c.8-.1 1.3-.7 1.3-1.5z"/><path d="m-834 744.8 1-1.8c.2-.4.6-.6.9-.3.9.6 1.8 1.1 2.8 1.4v-3.9c-2.1-.8-4.9-2.5-4.9-5.4 0-2.4 1.7-4.4 4.9-4.8v-.8c0-.3.2-.5.5-.5h.4c.3 0 .5.2.5.5v.8c1.6.2 3.2.8 4.5 1.8.2.2.3.5.1.8l-1.4 2c-.1.2-.4.3-.6.2-.8-.5-1.7-1-2.6-1.4v3.4c1.9.7 5.1 2.4 5.1 5.6 0 2.5-2 4.7-5.1 4.9v2.5c0 .2-.2.4-.5.4h-.4c-.2 0-.4-.2-.5-.4v-2.5c-1.7 0-3.3-.7-4.6-1.8-.2-.2-.3-.3-.1-.7zm4.7-11.7c-.7 0-1.3.6-1.3 1.2 0 .7.4 1.3 1.3 1.9zm2.7 9.8c-.1-.8-.5-1.6-1.3-2v3.5c.8-.2 1.3-.8 1.3-1.5z"/><path d="m150 517.6 1-1.8c.2-.4.6-.6.9-.3.9.6 1.8 1.1 2.8 1.4v-3.9c-2.1-.8-4.9-2.5-4.9-5.4 0-2.4 1.7-4.4 4.9-4.8v-.8c0-.3.2-.5.5-.5h.4c.3 0 .5.2.5.5v.8c1.6.2 3.2.8 4.5 1.8.2.2.3.5.1.8l-1.4 2c-.1.2-.4.3-.6.2-.8-.5-1.7-1-2.6-1.4v3.4c1.9.7 5.1 2.4 5.1 5.6 0 2.5-2 4.7-5.1 4.9v2.5c0 .2-.2.4-.5.4h-.4c-.2 0-.4-.2-.5-.4v-2.5c-1.7 0-3.3-.7-4.6-1.8-.2-.3-.3-.4-.1-.7zm4.7-11.8c-.7 0-1.2.6-1.3 1.2 0 .7.4 1.3 1.3 1.9zm2.7 9.8c-.1-.8-.5-1.6-1.3-2v3.5c.8-.1 1.3-.7 1.3-1.5z"/><path d="m-9 667.9 1-1.8c.2-.4.6-.6.9-.3.9.6 1.8 1.1 2.8 1.4v-3.9c-2.1-.8-4.9-2.5-4.9-5.4 0-2.4 1.7-4.4 4.9-4.8v-.8c0-.3.2-.5.5-.5h.4c.3 0 .5.2.5.5v.8c1.6.2 3.2.8 4.5 1.8.2.2.3.5.1.8l-1.4 2c-.1.2-.4.3-.6.2-.8-.5-1.7-1-2.6-1.4v3.4c1.9.7 5.1 2.4 5.1 5.6 0 2.5-2 4.7-5.1 4.9v2.5c0 .2-.2.4-.5.4h-.4c-.2 0-.4-.2-.5-.4v-2.5c-1.7 0-3.3-.7-4.6-1.8-.2-.3-.3-.3-.1-.7zm4.7-11.7c-.7 0-1.3.6-1.3 1.2 0 .8.6 1.5 1.3 1.9zm2.7 9.7c-.1-.8-.5-1.6-1.3-2v3.5c.8-.1 1.3-.7 1.3-1.5z"/><path d="m-106 795.4 1-1.8c.2-.4.6-.6.9-.3.9.6 1.8 1.1 2.8 1.4v-3.9c-2.1-.8-4.9-2.5-4.9-5.4 0-2.4 1.7-4.4 4.9-4.8v-.8c0-.3.2-.5.5-.5h.4c.3 0 .5.2.5.5v.8c1.6.2 3.2.8 4.5 1.8.2.2.3.5.1.8l-1.4 2c-.1.2-.4.3-.6.2-.8-.5-1.7-1-2.6-1.4v3.4c1.9.7 5.1 2.4 5.1 5.6 0 2.5-2 4.7-5.1 4.9v2.5c0 .2-.2.4-.5.4h-.4c-.2 0-.4-.2-.5-.4v-2.5c-1.7 0-3.3-.7-4.6-1.8-.2-.3-.3-.4-.1-.7zm4.7-11.8c-.7 0-1.2.6-1.3 1.2 0 .8.6 1.5 1.3 1.9zm2.7 9.8c-.1-.8-.5-1.6-1.3-2v3.5c.8-.1 1.3-.7 1.3-1.5z"/><path d="m-259.7 885.5 1-1.8c.2-.4.6-.6.9-.3.9.6 1.8 1.1 2.8 1.4v-3.9c-2.1-.8-4.9-2.5-4.9-5.4 0-2.4 1.7-4.4 4.9-4.8v-.8c0-.3.2-.5.5-.5h.4c.3 0 .5.2.5.5v.8c1.6.2 3.2.8 4.5 1.8.2.2.3.5.1.8l-1.4 2c-.1.2-.4.3-.6.2 0 0 0 0-.1 0-.8-.5-1.7-1-2.6-1.4v3.4c1.9.7 5.1 2.4 5.1 5.6 0 2.5-2 4.7-5.1 4.9v2.5c0 .2-.2.4-.5.4h-.4c-.2 0-.4-.2-.5-.4v-2.5c-1.7 0-3.3-.7-4.6-1.8-.1-.3-.2-.4 0-.7zm4.7-11.8c-.7 0-1.3.6-1.3 1.2 0 .7.4 1.3 1.3 1.9zm2.7 9.8c-.1-.8-.5-1.6-1.3-2v3.5c.8-.1 1.3-.8 1.3-1.5z"/><path d="m-786 1052.2 1-1.8c.2-.4.6-.6.9-.3.9.6 1.8 1.1 2.8 1.4v-3.9c-2.1-.8-4.9-2.5-4.9-5.4 0-2.4 1.7-4.4 4.9-4.8v-.8c0-.3.2-.5.5-.5h.4c.3 0 .5.2.5.5v.8c1.6.2 3.2.8 4.5 1.8.2.2.3.5.1.8l-1.4 2c-.1.2-.4.3-.6.2-.8-.5-1.7-1-2.6-1.4v3.4c1.9.7 5.1 2.4 5.1 5.6 0 2.5-2 4.7-5.1 4.9v2.5c0 .2-.2.4-.5.4h-.4c-.2 0-.4-.2-.5-.4v-2.5c-1.7 0-3.3-.7-4.6-1.8-.2-.3-.3-.4-.1-.7zm4.7-11.8c-.7 0-1.3.6-1.3 1.2 0 .8.6 1.5 1.3 1.9zm2.7 9.8c-.1-.8-.5-1.6-1.3-2v3.5c.8-.1 1.3-.8 1.3-1.5z"/><path d="m-724 894.1 1-1.8c.2-.4.6-.6.9-.3.9.6 1.8 1.1 2.8 1.4v-3.9c-2.1-.8-4.9-2.5-4.9-5.4 0-2.4 1.7-4.4 4.9-4.8v-.8c0-.3.2-.5.5-.5h.4c.3 0 .5.2.5.5v.8c1.6.2 3.2.8 4.5 1.8.2.2.3.5.1.8l-1.4 2c-.1.2-.4.3-.6.2-.8-.5-1.7-1-2.6-1.4v3.4c1.9.7 5.1 2.4 5.1 5.6 0 2.5-2 4.7-5.1 4.9v2.5c0 .2-.2.4-.5.4h-.4c-.2 0-.4-.2-.5-.4v-2.5c-1.7 0-3.3-.7-4.6-1.8-.2-.3-.3-.4-.1-.7zm4.7-11.8c-.7 0-1.2.6-1.3 1.2 0 .7.4 1.3 1.3 1.9zm2.7 9.8c-.1-.8-.5-1.6-1.3-2v3.5c.8-.1 1.3-.7 1.3-1.5z"/><path d="m-91.8 1173.8 1-1.8c.2-.4.6-.6.9-.3.9.6 1.8 1.1 2.8 1.4v-3.9c-2.1-.8-4.9-2.5-4.9-5.4 0-2.4 1.7-4.4 4.9-4.8v-.8c0-.3.2-.5.5-.5h.4c.3 0 .5.2.5.5v.8c1.6.2 3.2.8 4.5 1.8.2.2.3.5.1.8l-1.4 2c-.1.2-.4.3-.6.2-.8-.5-1.7-1-2.6-1.4v3.4c1.9.7 5.1 2.4 5.1 5.6 0 2.5-2 4.7-5.1 4.9v2.5c0 .2-.2.4-.5.4h-.4c-.2 0-.4-.2-.5-.4v-2.5c-1.7 0-3.3-.7-4.6-1.8-.2-.2-.3-.3-.1-.7zm4.7-11.7c-.7 0-1.2.6-1.3 1.2 0 .7.4 1.3 1.3 1.9zm2.7 9.8c-.1-.8-.5-1.6-1.3-2v3.5c.8-.2 1.3-.8 1.3-1.5z"/><path d="m-474 449.4 1-1.8c.2-.4.6-.6.9-.3.9.6 1.8 1.1 2.8 1.4v-3.9c-2.1-.8-4.9-2.5-4.9-5.4 0-2.4 1.7-4.4 4.9-4.8v-.8c0-.3.2-.5.5-.5h.4c.3 0 .5.2.5.5v.8c1.6.2 3.2.8 4.5 1.8.2.2.3.5.1.8l-1.4 2c-.1.2-.4.3-.6.2 0 0 0 0-.1 0-.8-.5-1.7-1-2.6-1.4v3.4c1.9.7 5.1 2.4 5.1 5.6 0 2.5-2 4.7-5.1 4.9v2.5c0 .2-.2.4-.5.4h-.4c-.2 0-.4-.2-.5-.4v-2.5c-1.7 0-3.3-.7-4.6-1.8-.1-.2-.2-.3 0-.7zm4.7-11.7c-.7 0-1.2.6-1.3 1.2 0 .7.4 1.3 1.3 1.9zm2.7 9.8c-.1-.8-.5-1.6-1.3-2v3.5c.7-.2 1.3-.8 1.3-1.5z"/><path d="m-532.1 706.1 1-1.8c.2-.4.6-.6.9-.3.9.6 1.8 1.1 2.8 1.4v-3.9c-2.1-.8-4.9-2.5-4.9-5.4 0-2.4 1.7-4.4 4.9-4.8v-.8c0-.3.2-.5.5-.5h.4c.3 0 .5.2.5.5v.8c1.6.2 3.2.8 4.5 1.8.2.2.3.5.1.8l-1.4 2c-.1.2-.4.3-.6.2 0 0 0 0-.1 0-.8-.5-1.7-1-2.6-1.4v3.4c1.9.7 5.1 2.4 5.1 5.6 0 2.5-2 4.7-5.1 4.9v2.5c0 .2-.2.4-.5.4h-.4c-.2 0-.4-.2-.5-.4v-2.5c-1.7 0-3.3-.7-4.6-1.8-.1-.2-.2-.3 0-.7zm4.7-11.7c-.7 0-1.2.6-1.3 1.2 0 .7.4 1.3 1.3 1.9zm2.7 9.8c-.1-.8-.5-1.6-1.3-2v3.5c.7-.2 1.3-.8 1.3-1.5z"/><path d="m-218.1 532 1-1.8c.2-.4.6-.6.9-.3.9.6 1.8 1.1 2.8 1.4v-3.9c-2.1-.8-4.9-2.5-4.9-5.4 0-2.4 1.7-4.4 4.9-4.8v-.8c0-.3.2-.5.5-.5h.4c.3 0 .5.2.5.5v.8c1.6.2 3.2.8 4.5 1.8.2.2.3.5.1.8l-1.4 2c-.1.2-.4.3-.6.2 0 0 0 0-.1 0-.8-.5-1.7-1-2.6-1.4v3.4c1.9.7 5.1 2.4 5.1 5.6 0 2.5-2 4.7-5.1 4.9v2.5c0 .2-.2.4-.5.4h-.4c-.2 0-.4-.2-.5-.4v-2.5c-1.7 0-3.3-.7-4.6-1.8-.1-.2-.2-.3 0-.7zm4.7-11.7c-.7 0-1.2.6-1.3 1.2 0 .7.4 1.3 1.3 1.9zm2.7 9.8c-.1-.8-.5-1.6-1.3-2v3.5c.7-.2 1.3-.8 1.3-1.5z"/><path d="m-342.3 1052.2 1-1.8c.2-.4.6-.6.9-.3.9.6 1.8 1.1 2.8 1.4v-3.9c-2.1-.8-4.9-2.5-4.9-5.4 0-2.4 1.7-4.4 4.9-4.8v-.8c0-.3.2-.5.5-.5h.4c.3 0 .5.2.5.5v.8c1.6.2 3.2.8 4.5 1.8.2.2.3.5.1.8l-1.4 2c-.1.2-.4.3-.6.2 0 0 0 0-.1 0-.8-.5-1.7-1-2.6-1.4v3.4c1.9.7 5.1 2.4 5.1 5.6 0 2.5-2 4.7-5.1 4.9v2.5c0 .2-.2.4-.5.4h-.4c-.2 0-.4-.2-.5-.4v-2.5c-1.7 0-3.3-.7-4.6-1.8-.1-.2-.2-.3 0-.7zm4.7-11.7c-.7 0-1.2.6-1.3 1.2 0 .7.4 1.3 1.3 1.9zm2.7 9.8c-.1-.8-.5-1.6-1.3-2v3.5c.7-.2 1.3-.8 1.3-1.5z"/><path d="m-533.2 962.9 1-1.8c.2-.4.6-.6.9-.3.9.6 1.8 1.1 2.8 1.4v-3.9c-2.1-.8-4.9-2.5-4.9-5.4 0-2.4 1.7-4.4 4.9-4.8v-.8c0-.3.2-.5.5-.5h.4c.3 0 .5.2.5.5v.8c1.6.2 3.2.8 4.5 1.8.2.2.3.5.1.8l-1.4 2c-.1.2-.4.3-.6.2 0 0 0 0-.1 0-.8-.5-1.7-1-2.6-1.4v3.4c1.9.7 5.1 2.4 5.1 5.6 0 2.5-2 4.7-5.1 4.9v2.5c0 .2-.2.4-.5.4h-.4c-.2 0-.4-.2-.5-.4v-2.5c-1.7 0-3.3-.7-4.6-1.8-.1-.2-.2-.3 0-.7zm4.7-11.7c-.7 0-1.2.6-1.3 1.2 0 .7.4 1.3 1.3 1.9zm2.7 9.8c-.1-.8-.5-1.6-1.3-2v3.5c.7-.2 1.3-.8 1.3-1.5z"/><path d="m-322.9 684.8 1-1.8c.2-.4.6-.6.9-.3.9.6 1.8 1.1 2.8 1.4v-3.9c-2.1-.8-4.9-2.5-4.9-5.4 0-2.4 1.7-4.4 4.9-4.8v-.8c0-.3.2-.5.5-.5h.4c.3 0 .5.2.5.5v.8c1.6.2 3.2.8 4.5 1.8.2.2.3.5.1.8l-1.4 2c-.1.2-.4.3-.6.2 0 0 0 0-.1 0-.8-.5-1.7-1-2.6-1.4v3.4c1.9.7 5.1 2.4 5.1 5.6 0 2.5-2 4.7-5.1 4.9v2.5c0 .2-.2.4-.5.4h-.4c-.2 0-.4-.2-.5-.4v-2.5c-1.7 0-3.3-.7-4.6-1.8-.1-.2-.2-.3 0-.7zm4.7-11.7c-.7 0-1.2.6-1.3 1.2 0 .7.4 1.3 1.3 1.9zm2.7 9.8c-.1-.8-.5-1.6-1.3-2v3.5c.7-.2 1.3-.8 1.3-1.5z"/><path d="m-674.7 391.6 1-1.8c.2-.4.6-.6.9-.3.9.6 1.8 1.1 2.8 1.4v-3.9c-2.1-.8-4.9-2.5-4.9-5.4 0-2.4 1.7-4.4 4.9-4.8v-.8c0-.3.2-.5.5-.5h.4c.3 0 .5.2.5.5v.8c1.6.2 3.2.8 4.5 1.8.2.2.3.5.1.8l-1.4 2c-.1.2-.4.3-.6.2-.8-.5-1.7-1-2.6-1.4v3.4c1.9.7 5.1 2.4 5.1 5.6 0 2.5-2 4.7-5.1 4.9v2.5c0 .2-.2.4-.5.4h-.4c-.2 0-.4-.2-.5-.4v-2.5c-1.7 0-3.3-.7-4.6-1.8-.2-.2-.3-.3-.1-.7zm4.7-11.7c-.7 0-1.3.6-1.3 1.2 0 .8.6 1.5 1.3 1.9zm2.7 9.8c-.1-.8-.5-1.6-1.3-2v3.5c.8-.2 1.3-.8 1.3-1.5z"/><path d="m-757 582.3 1-1.8c.2-.4.6-.6.9-.3.9.6 1.8 1.1 2.8 1.4v-3.9c-2.1-.8-4.9-2.5-4.9-5.4 0-2.4 1.7-4.4 4.9-4.8v-.8c0-.3.2-.5.5-.5h.4c.3 0 .5.2.5.5v.8c1.6.2 3.2.8 4.5 1.8.2.2.3.5.1.8l-1.4 2c-.1.2-.4.3-.6.2-.8-.5-1.7-1-2.6-1.4v3.4c1.9.7 5.1 2.4 5.1 5.6 0 2.5-2 4.7-5.1 4.9v2.5c0 .2-.2.4-.5.4h-.4c-.2 0-.4-.2-.5-.4v-2.5c-1.7 0-3.3-.7-4.6-1.8-.2-.2-.3-.3-.1-.7zm4.7-11.7c-.7 0-1.3.6-1.3 1.2 0 .8.6 1.5 1.3 1.9zm2.7 9.8c-.1-.8-.5-1.6-1.3-2v3.5c.8-.2 1.3-.8 1.3-1.5z"/><path d="m-59.3 425.6 1-1.8c.2-.4.6-.6.9-.3.9.6 1.8 1.1 2.8 1.4v-3.9c-2.1-.8-4.9-2.5-4.9-5.4 0-2.4 1.7-4.4 4.9-4.8v-.7c0-.3.2-.5.5-.5h.4c.3 0 .5.2.5.5v.8c1.6.2 3.2.8 4.5 1.8.2.2.3.5.1.8l-1.4 2c-.1.2-.4.3-.6.2-.8-.5-1.7-1-2.6-1.4v3.4c1.9.7 5.1 2.4 5.1 5.6 0 2.5-2 4.7-5.1 4.9v2.5c0 .2-.2.4-.5.4h-.4c-.2 0-.4-.2-.5-.4v-2.6c-1.7 0-3.3-.7-4.6-1.8-.3-.3-.4-.4-.1-.7zm4.6-11.8c-.7 0-1.3.6-1.3 1.2 0 .8.6 1.5 1.3 1.9zm2.8 9.8c-.1-.8-.5-1.6-1.3-2v3.5c.7-.1 1.2-.8 1.3-1.5z"/><path d="m-229.3 294.7 1-1.8c.2-.4.6-.6.9-.3.9.6 1.8 1.1 2.8 1.4v-3.9c-2.1-.8-4.9-2.5-4.9-5.4 0-2.4 1.7-4.4 4.9-4.8v-.8c0-.3.2-.5.5-.5h.4c.3 0 .5.2.5.5v.8c1.6.2 3.2.8 4.5 1.8.2.2.3.5.1.8l-1.4 2c-.1.2-.4.3-.6.2-.8-.5-1.7-1-2.6-1.4v3.4c1.9.7 5.1 2.4 5.1 5.6 0 2.5-2 4.7-5.1 4.9v2.5c0 .2-.2.4-.5.4h-.4c-.2 0-.4-.2-.5-.4v-2.5c-1.7 0-3.3-.7-4.6-1.8-.3-.3-.4-.4-.1-.7zm4.6-11.8c-.7 0-1.3.6-1.3 1.2 0 .8.6 1.5 1.3 1.9zm2.8 9.8c-.1-.8-.5-1.6-1.3-2v3.5c.7-.1 1.2-.7 1.3-1.5z"/><path d="m-786 278.1 1-1.8c.2-.4.6-.6.9-.3.9.6 1.8 1.1 2.8 1.4v-3.9c-2.1-.8-4.9-2.5-4.9-5.4 0-2.4 1.7-4.4 4.9-4.8v-.8c0-.3.2-.5.5-.5h.4c.3 0 .5.2.5.5v.8c1.6.2 3.2.8 4.5 1.8.2.2.3.5.1.8l-1.4 2c-.1.2-.4.3-.6.2 0 0 0 0-.1 0-.8-.5-1.7-1-2.6-1.4v3.4c1.9.7 5.1 2.4 5.1 5.6 0 2.5-2 4.7-5.1 4.9v2.5c0 .2-.2.4-.5.4h-.4c-.2 0-.4-.2-.5-.4v-2.5c-1.7 0-3.3-.7-4.6-1.8-.1-.3-.2-.4 0-.7zm4.7-11.8c-.7 0-1.2.6-1.3 1.2 0 .7.4 1.3 1.3 1.9zm2.7 9.8c-.1-.8-.5-1.6-1.3-2v3.5c.8-.1 1.3-.7 1.3-1.5z"/><path d="m156 253.1 1-1.8c.2-.4.6-.6.9-.3.9.6 1.8 1.1 2.8 1.4v-3.9c-2.1-.8-4.9-2.5-4.9-5.4 0-2.4 1.7-4.4 4.9-4.8v-.8c0-.3.2-.5.5-.5h.4c.3 0 .5.2.5.5v.8c1.6.2 3.2.8 4.5 1.8.2.2.3.5.1.8l-1.4 2c-.1.2-.4.3-.6.2 0 0 0 0-.1 0-.8-.5-1.7-1-2.6-1.4v3.4c1.9.7 5.1 2.4 5.1 5.6 0 2.5-2 4.7-5.1 4.9v2.5c0 .2-.2.4-.5.4h-.4c-.2 0-.4-.2-.5-.4v-2.5c-1.7 0-3.3-.7-4.6-1.8-.1-.3-.2-.4 0-.7zm4.7-11.8c-.7 0-1.2.6-1.3 1.2 0 .7.4 1.3 1.3 1.9zm2.7 9.8c-.1-.8-.5-1.6-1.3-2v3.5c.8-.1 1.3-.7 1.3-1.5z"/></g></g></svg>
