<svg xmlns="http://www.w3.org/2000/svg" width="320.24" height="198.453" viewBox="0 0 320.24 198.453">
  <g id="Layer_1" transform="translate(2.887 0.592)">
    <g id="Group_143" data-name="Group 143" transform="translate(-4.99 -26.5)" opacity="0.3">
      <path id="Path_614" data-name="Path 614" d="M78.88,137.02H74.91a1.13,1.13,0,0,0,0,2.26h3.97a1.13,1.13,0,0,0,0-2.26Z" fill="#175985"/>
      <path id="Path_615" data-name="Path 615" d="M270.46,137.02h-3.4a1.13,1.13,0,1,0,0,2.26h3.4a1.13,1.13,0,0,0,0-2.26Z" fill="#175985"/>
      <path id="Path_616" data-name="Path 616" d="M261.96,137.02h-1.18V121.3c0-.63-.46-.72-1.09-.72h-4.58V104.71H267.1c.37,0,.71-.39.92-.69a1.365,1.365,0,0,0,.15-1.13l-12.99-37.4a1.158,1.158,0,0,0-1.07-.79,1.121,1.121,0,0,0-1.07.75l-12.99,37.34a1.549,1.549,0,0,0,.15,1.23c.21.3.56.68.92.68h11.72v15.87h-4.49c-.63,0-1.18.09-1.18.72v15.72h-1.7V113.37c0-.63-.46-.72-1.09-.72h-5.26a5.128,5.128,0,0,0,.11-.98V81.47h5.15c.63,0,1.09-.92,1.09-1.55V66.89c0-.01.02-.01.02-.02v-.13a.277.277,0,0,0-.01-.09c-.01-.03-.02-.07-.03-.1a.564.564,0,0,0-.04-.12c0-.01,0-.01-.01-.02l-6.01-12.74L236.51,33.3h1.05c.63,0,1.09-.92,1.09-1.55V27.22c0-.63-.46-.72-1.09-.72H108.92c-.63,0-1.18.09-1.18.72v4.53c0,.63.55,1.55,1.18,1.55h2.42L108.31,54v-.09l-6.5,12.51c-.01.01-.07,0-.08.01-.02.04-.06.06-.08.1s-.04.06-.05.09-.02.07-.03.1a.564.564,0,0,0-.04.12c0,.01-.03.02-.03.03V89.52l-8-22.97a1.131,1.131,0,0,0-1.06-.76h0a1.143,1.143,0,0,0-1.07.76L78.35,103.92a1.578,1.578,0,0,0,.15,1.24c.21.3.56.69.92.69H91.29v14.74H86.23c-.63,0-1.18.09-1.18.72v15.72h-.52a1.13,1.13,0,0,0,0,2.26H91.9a1.13,1.13,0,0,0,0-2.26H87.32V122.86h9.07v13.75a1.129,1.129,0,0,0,.18.57,2.008,2.008,0,0,0-.15.78,1.336,1.336,0,0,0,1.14,1.34h20.4a1.13,1.13,0,0,0,0-2.26H103.75v-5.1h4.58c.63,0,1.09-.92,1.09-1.55v-5.1c0-.63-.46-.72-1.09-.72h-4.58v-9.64h48.74v3.97H148c-.63,0-1.18.09-1.18.72V124H144.6c-.63,0-1.18.09-1.18.72v4.95H139.5c-.63,0-1.18.09-1.18.72v6.65H123.63a1.13,1.13,0,0,0,0,2.26h44.78a1.13,1.13,0,0,0,0-2.26H140.59v-5.1h50.44v5.1H172.4a1.13,1.13,0,0,0,0,2.26h53.85a1.13,1.13,0,0,0,0-2.26H193.33v-6.65c0-.63-.46-.72-1.09-.72h-2.88v-4.95c0-.63-.46-.72-1.09-.72h-3.45v-4.38c0-.63-.46-.72-1.09-.72h-3.45v-3.97h62.91v3.97H232.47c-.63,0-1.18.09-1.18.72v5.1c0,.63.55,1.55,1.18,1.55h10.72v10.35a1.129,1.129,0,0,0,.18.57,2.008,2.008,0,0,0-.15.78,1.336,1.336,0,0,0,1.14,1.34h7.94a1.13,1.13,0,0,0,0-2.26h-2.88V122.88h9.07v14.17h-1.66a1.13,1.13,0,0,0,0,2.26h5.1a1.129,1.129,0,0,0,1.13-1.13A1.1,1.1,0,0,0,261.96,137.02ZM101.51,113.36v23.66H98.68V121.3c0-.63-.46-.72-1.09-.72H93.58V105.84h7.94v7.52Zm0-9.78H93.57V92.79c0-.05.14-.1.18-.16l2.44-2.92a1.129,1.129,0,1,0-1.73-1.45l-1.82,2.19-2.01-2.43a1.144,1.144,0,0,0-1.77,1.45l2.44,2.97v11.15H81.03l11.4-33.01,9.08,25.87v7.13Zm5.67,23.24v2.83h-3.4v-2.83h3.4ZM243.21,79.21h-3.97V72.98h3.97Zm0-8.5H154.79V68.44h88.42Zm-6.24,2.26V79.2H231.3V72.97Zm-7.93,0V79.2h-5.1V72.97Zm-7.37,0V79.2H216V72.97Zm-15.3,0V79.2h-5.1V72.97Zm-7.37,0V79.2h-6.23V72.97Zm-17.01,0V79.2h-5.67V72.97Zm-7.93,0V79.2h-5.1V72.97Zm-7.37,0V79.2h-5.67V72.97Zm-7.93,0V79.2h-3.97V72.97ZM110.01,31.03V28.76h126.4v2.27H112.67a1.1,1.1,0,0,0-.18.02.875.875,0,0,0-.16-.02Zm3.62,2.27h11.1l-.97,3.91a1.034,1.034,0,0,0,.84,1.26,1.14,1.14,0,0,0,.26-.02c.51,0,.98-.17,1.1-.69l1.09-4.46h72.82l-.65,2.54a1.03,1.03,0,0,0,.84,1.26,1.14,1.14,0,0,0,.26-.02c.51,0,.98-.17,1.1-.69l.77-3.09H227.8l-1.45,5.99a1.036,1.036,0,0,0,.85,1.26,1.14,1.14,0,0,0,.26-.02c.51,0,.98-.17,1.1-.69l1.57-6.53h4.1l2.22,15.87H117.02l.84-4.08a1.246,1.246,0,0,0-.87-1.45,1.1,1.1,0,0,0-1.35.82l-.91,4.37c-.01.05-.01.34-.02.34h-3.58Zm-2.85,18.13h126l.24,1.7H110.52Zm-.79,3.97h13.62l-1.29,5.19a1.023,1.023,0,0,0,.84,1.26,1.1,1.1,0,0,0,.26-.02c.51,0,.98-.17,1.1-.69l1.42-5.74h38.05l-1.44,5.16a1.026,1.026,0,0,0,.8,1.28,1.007,1.007,0,0,0,.3-.01c.5,0,.96-.15,1.09-.66l1.6-5.77h71.27l5,10.77h-9.18l1.01-4.48a1.251,1.251,0,0,0-.84-1.47,1.233,1.233,0,0,0-1.36,1l-1.13,4.94H198.72l.7-3.18a1.251,1.251,0,0,0-.84-1.47,1.233,1.233,0,0,0-1.36,1l-.82,3.65H141.84l.58-2.68a1.251,1.251,0,0,0-.84-1.47,1.233,1.233,0,0,0-1.36,1l-.7,3.14H104.56Zm68.04,59.52v3.97H154.79v-3.97Zm-17.01-2.27V91.68h10.77v20.97ZM103.78,68.44h48.74v6.8H103.78Zm48.74,9.07v28.34h-5.21a5.128,5.128,0,0,0,.11-.98V77.51Zm-7.17,28.34h-7.68a5.128,5.128,0,0,0,.11-.98V77.51h7.37v27.36C145.15,105.07,145.26,105.28,145.35,105.85Zm-9.63,0H128.6a5.128,5.128,0,0,0,.11-.98V77.51h6.8v27.36C135.52,105.07,135.62,105.28,135.72,105.85Zm-9.07,0h-7.12a5.129,5.129,0,0,0,.11-.98V77.51h6.8v27.36C126.45,105.07,126.55,105.28,126.65,105.85Zm-9.07,0H109.9a5.129,5.129,0,0,0,.11-.98V77.51h7.37v27.36C117.38,105.07,117.48,105.28,117.58,105.85Zm-13.8-28.34h3.97v27.36c0,.21.1.42.2.98h-4.17Zm0,35.14v-4.53h48.74v4.53Zm83.32,13.6v3.4H145.72v-3.4H187.1Zm-4.54-5.1v2.83H149.12v-2.83h33.44Zm.57-8.5h-9.07V90.13c0-.63-.46-.72-1.09-.72H159.93c-.63,0-1.18.09-1.18.72v22.52h-3.97V81.47h28.34v31.18Zm1.13-39.68h6.23V79.2h-6.23Zm1.13,39.68V81.47h2.27v30.19c0,.21.1.42.2.98h-2.47Zm22.68,0H189.82a5.128,5.128,0,0,0,.11-.98V81.47h18.14Zm2.26,0V81.47h2.27v30.19c0,.21.1.42.2.98h-2.47Zm3.4-33.44h-5.1V72.98h5.1Zm18.71,33.44H214.76a5.128,5.128,0,0,0,.11-.98V81.47h17.57Zm2.27,0V81.47h2.27v30.19c0,.21.1.42.2.98h-2.47Zm8.5,11.33h-9.64v-2.83h9.64Zm7.23-34.75,2.41,2.71v10.51H242.73l11.39-32.76,11.39,32.76h-10.4V92.37c0-.07.25-.15.34-.26l2.44-2.92a1.139,1.139,0,0,0-.14-1.6,1.119,1.119,0,0,0-1.59.15l-1.92,2.31-2.09-2.33a1.149,1.149,0,0,0-1.61-.09A1.129,1.129,0,0,0,250.44,89.23Z" fill="#175985"/>
      <path id="Path_617" data-name="Path 617" d="M239.85,137.02h-9.07a1.13,1.13,0,0,0,0,2.26h9.07a1.13,1.13,0,0,0,0-2.26Z" fill="#175985"/>
      <path id="Path_618" data-name="Path 618" d="M133.82,120.58a1.129,1.129,0,0,0-1.13-1.13h-11.9a1.129,1.129,0,0,0-1.13,1.13v5.1a1.129,1.129,0,0,0,1.13,1.13h11.9a1.129,1.129,0,0,0,1.13-1.13Zm-2.27,3.97h-9.64v-2.83h9.64Z" fill="#175985"/>
      <path id="Path_619" data-name="Path 619" d="M210.33,118.32a1.129,1.129,0,0,0-1.13-1.13H197.3a1.129,1.129,0,0,0-1.13,1.13v5.1a1.129,1.129,0,0,0,1.13,1.13h11.9a1.129,1.129,0,0,0,1.13-1.13Zm-2.26,3.96h-9.64v-2.83h9.64Z" fill="#175985"/>
      <path id="Path_620" data-name="Path 620" d="M219.4,127.39a1.129,1.129,0,0,0-1.13-1.13h-11.9a1.129,1.129,0,0,0-1.13,1.13v5.67a1.129,1.129,0,0,0,1.13,1.13h11.9a1.129,1.129,0,0,0,1.13-1.13Zm-11.9,1.13h9.64v3.4H207.5Z" fill="#175985"/>
      <path id="Path_621" data-name="Path 621" d="M169.52,100.33a1.129,1.129,0,0,0-1.13,1.13v3.4a1.13,1.13,0,0,0,2.26,0v-3.4A1.122,1.122,0,0,0,169.52,100.33Z" fill="#175985"/>
      <path id="Path_622" data-name="Path 622" d="M142.01,45.75a1.153,1.153,0,0,0,.26.03,1.129,1.129,0,0,0,1.1-.88l1.94-8.29a1.134,1.134,0,0,0-2.21-.51l-1.94,8.29A1.144,1.144,0,0,0,142.01,45.75Z" fill="#175985"/>
      <path id="Path_623" data-name="Path 623" d="M174.36,46.65a1.153,1.153,0,0,0,.26.03,1.131,1.131,0,0,0,1.1-.87l.89-3.76a1.13,1.13,0,1,0-2.2-.52l-.89,3.76A1.121,1.121,0,0,0,174.36,46.65Z" fill="#175985"/>
      <path id="Path_624" data-name="Path 624" d="M188.85,47.17a1.35,1.35,0,0,0,.28.04,1.132,1.132,0,0,0,1.1-.85l2.25-8.81a1.135,1.135,0,0,0-2.2-.56l-2.25,8.81A1.129,1.129,0,0,0,188.85,47.17Z" fill="#175985"/>
      <path id="Path_625" data-name="Path 625" d="M216.37,44.59a1.8,1.8,0,0,0,.22.02,1.132,1.132,0,0,0,1.11-.91l.6-2.98a1.132,1.132,0,0,0-2.22-.44l-.6,2.98A1.136,1.136,0,0,0,216.37,44.59Z" fill="#175985"/>
    </g>
    <g id="Group_151" data-name="Group 151" transform="translate(-4.99 -26.5)">
      <g id="Group_144" data-name="Group 144">
        <path id="Path_626" data-name="Path 626" d="M113.97,126.46h0a20.614,20.614,0,0,1-20.55-20.55V82.39a20.614,20.614,0,0,1,20.55-20.55h0a20.614,20.614,0,0,1,20.55,20.55v23.52A20.6,20.6,0,0,1,113.97,126.46Z" fill="#949499" stroke="#175985" stroke-linecap="round" stroke-linejoin="round" stroke-miterlimit="10" stroke-width="4.861"/>
        <path id="Path_627" data-name="Path 627" d="M151.09,221.93H77.64a2.433,2.433,0,0,1-2.43-2.43V165.62a39.157,39.157,0,0,1,39.16-39.16h0a39.157,39.157,0,0,1,39.16,39.16V219.5A2.448,2.448,0,0,1,151.09,221.93Z" fill="#2b7dab" stroke="#175985" stroke-linecap="round" stroke-linejoin="round" stroke-miterlimit="10" stroke-width="4.861"/>
        <circle id="Ellipse_100" data-name="Ellipse 100" cx="2.76" cy="2.76" r="2.76" transform="translate(101.27 93.09)" fill="#175985"/>
        <circle id="Ellipse_101" data-name="Ellipse 101" cx="2.76" cy="2.76" r="2.76" transform="translate(121.41 93.09)" fill="#175985"/>
        <path id="Path_628" data-name="Path 628" d="M127.34,130.87l-2.78,90.64H103.5l-2.78-90.64" fill="#fff" stroke="#175985" stroke-linecap="round" stroke-linejoin="round" stroke-miterlimit="10" stroke-width="4.861"/>
        <path id="Path_629" data-name="Path 629" d="M124.17,127.46s-.93,12.01-10.2,12.01-10.2-12.01-10.2-12.01" fill="#949499" stroke="#175985" stroke-linecap="round" stroke-linejoin="round" stroke-miterlimit="10" stroke-width="4.861"/>
        <path id="Path_630" data-name="Path 630" d="M134.34,89.91s1.4-28.07-20.36-28.07S93.02,89.91,93.02,89.91l5.8-1.57,2.33-8.15h25.04l2.02,7.93Z" fill="#175985"/>
        <path id="Path_631" data-name="Path 631" d="M151.09,221.93H77.64a2.433,2.433,0,0,1-2.43-2.43V165.62a39.157,39.157,0,0,1,39.16-39.16h0a39.157,39.157,0,0,1,39.16,39.16V219.5A2.448,2.448,0,0,1,151.09,221.93Z" fill="none" stroke="#175985" stroke-linecap="round" stroke-linejoin="round" stroke-miterlimit="10" stroke-width="4.861"/>
      </g>
      <g id="Group_146" data-name="Group 146">
        <g id="Group_145" data-name="Group 145">
          <circle id="Ellipse_102" data-name="Ellipse 102" cx="14.1" cy="14.1" r="14.1" transform="translate(4.99 109.86)" fill="#175985" stroke="#175985" stroke-linecap="round" stroke-linejoin="round" stroke-miterlimit="10" stroke-width="5.774" stroke-dasharray="0 5.774"/>
          <circle id="Ellipse_103" data-name="Ellipse 103" cx="14.1" cy="14.1" r="14.1" transform="translate(56.89 109.86)" fill="#175985" stroke="#175985" stroke-linecap="round" stroke-linejoin="round" stroke-miterlimit="10" stroke-width="5.774" stroke-dasharray="0 5.774"/>
        </g>
        <path id="Path_632" data-name="Path 632" d="M45.92,175.08h0a20.614,20.614,0,0,1-20.55-20.55V131a20.614,20.614,0,0,1,20.55-20.55h0A20.614,20.614,0,0,1,66.47,131v23.52A20.616,20.616,0,0,1,45.92,175.08Z" fill="#c7c7c9" stroke="#175985" stroke-linecap="round" stroke-linejoin="round" stroke-miterlimit="10" stroke-width="4.861"/>
        <path id="Path_633" data-name="Path 633" d="M49.99,110.86c0,.17-.03.34-.03.52A25.75,25.75,0,0,0,66.47,135.4V131A20.626,20.626,0,0,0,49.99,110.86Z" fill="#175985"/>
        <path id="Path_634" data-name="Path 634" d="M35.23,134.37A25.771,25.771,0,0,0,59.9,116a20.459,20.459,0,0,0-13.98-5.55h0A20.614,20.614,0,0,0,25.37,131v1.4A25.625,25.625,0,0,0,35.23,134.37Z" fill="#175985"/>
        <path id="Path_635" data-name="Path 635" d="M83.04,221.93H9.59a2.433,2.433,0,0,1-2.43-2.43v-5.27a39.157,39.157,0,0,1,39.16-39.16h0a39.157,39.157,0,0,1,39.16,39.16v5.27A2.448,2.448,0,0,1,83.04,221.93Z" fill="#61ba45" stroke="#175985" stroke-linecap="round" stroke-linejoin="round" stroke-miterlimit="10" stroke-width="4.861"/>
        <circle id="Ellipse_104" data-name="Ellipse 104" cx="2.76" cy="2.76" r="2.76" transform="translate(33.21 141.7)" fill="#175985"/>
        <circle id="Ellipse_105" data-name="Ellipse 105" cx="2.76" cy="2.76" r="2.76" transform="translate(53.35 141.7)" fill="#175985"/>
        <path id="Path_636" data-name="Path 636" d="M56.11,176.07s-.93,11.65-10.2,11.65-10.2-11.65-10.2-11.65" fill="#c7c7c9"/>
        <path id="Path_637" data-name="Path 637" d="M56.11,178.5s-.93,9.58-10.2,9.58-10.2-9.58-10.2-9.58" fill="none" stroke="#175985" stroke-linecap="round" stroke-linejoin="round" stroke-miterlimit="10" stroke-width="5.774" stroke-dasharray="0 5.774"/>
        <path id="Path_638" data-name="Path 638" d="M83.04,221.93H9.59a2.433,2.433,0,0,1-2.43-2.43v-5.27a39.157,39.157,0,0,1,39.16-39.16h0a39.157,39.157,0,0,1,39.16,39.16v5.27A2.448,2.448,0,0,1,83.04,221.93Z" fill="none" stroke="#175985" stroke-linecap="round" stroke-linejoin="round" stroke-miterlimit="10" stroke-width="4.861"/>
      </g>
      <g id="Group_149" data-name="Group 149">
        <path id="Path_639" data-name="Path 639" d="M184.46,150.77h0a20.614,20.614,0,0,1-20.55-20.55V106.7a20.614,20.614,0,0,1,20.55-20.55h0a20.614,20.614,0,0,1,20.55,20.55v23.52A20.614,20.614,0,0,1,184.46,150.77Z" fill="#f2f2f2" stroke="#175985" stroke-linecap="round" stroke-linejoin="round" stroke-miterlimit="10" stroke-width="4.861"/>
        <g id="Group_147" data-name="Group 147">
          <path id="Path_640" data-name="Path 640" d="M180.38,86.55c0,.17.03.34.03.52a25.75,25.75,0,0,1-16.51,24.02V106.7A20.656,20.656,0,0,1,180.38,86.55Z" fill="#175985"/>
          <path id="Path_641" data-name="Path 641" d="M195.14,110.06a25.771,25.771,0,0,1-24.67-18.37,20.459,20.459,0,0,1,13.98-5.55h0A20.614,20.614,0,0,1,205,106.69v1.4A25.441,25.441,0,0,1,195.14,110.06Z" fill="#175985"/>
        </g>
        <path id="Path_642" data-name="Path 642" d="M221.58,221.93H148.13a2.433,2.433,0,0,1-2.43-2.43V189.93a39.157,39.157,0,0,1,39.16-39.16h0a39.157,39.157,0,0,1,39.16,39.16V219.5A2.448,2.448,0,0,1,221.58,221.93Z" fill="#61ba45" stroke="#175985" stroke-linecap="round" stroke-linejoin="round" stroke-miterlimit="10" stroke-width="4.861"/>
        <circle id="Ellipse_106" data-name="Ellipse 106" cx="2.76" cy="2.76" r="2.76" transform="translate(171.75 117.39)" fill="#175985"/>
        <circle id="Ellipse_107" data-name="Ellipse 107" cx="2.76" cy="2.76" r="2.76" transform="translate(191.9 117.39)" fill="#175985"/>
        <path id="Path_643" data-name="Path 643" d="M197.47,153.13l-2.77,68.03H173.63l-2.78-68.03" fill="#fff" stroke="#175985" stroke-linecap="round" stroke-linejoin="round" stroke-miterlimit="10" stroke-width="4.926"/>
        <g id="Group_148" data-name="Group 148">
          <circle id="Ellipse_108" data-name="Ellipse 108" cx="8.4" cy="8.4" r="8.4" transform="translate(148.31 118.46)" fill="#175985"/>
          <circle id="Ellipse_109" data-name="Ellipse 109" cx="8.4" cy="8.4" r="8.4" transform="translate(148.31 100.95)" fill="#175985"/>
          <circle id="Ellipse_110" data-name="Ellipse 110" cx="7.5" cy="7.5" r="7.5" transform="translate(149.34 109.35)" fill="#175985"/>
          <circle id="Ellipse_111" data-name="Ellipse 111" cx="7.5" cy="7.5" r="7.5" transform="translate(140.81 110.96)" fill="#175985"/>
        </g>
        <path id="Path_644" data-name="Path 644" d="M221.58,221.93H148.13a2.433,2.433,0,0,1-2.43-2.43V189.93a39.157,39.157,0,0,1,39.16-39.16h0a39.157,39.157,0,0,1,39.16,39.16V219.5A2.448,2.448,0,0,1,221.58,221.93Z" fill="none" stroke="#175985" stroke-linecap="round" stroke-linejoin="round" stroke-miterlimit="10" stroke-width="4.861"/>
      </g>
      <g id="Group_150" data-name="Group 150">
        <path id="Path_645" data-name="Path 645" d="M271.33,132.95V131a20.614,20.614,0,0,0-20.55-20.55h0A20.614,20.614,0,0,0,230.23,131v2.63" fill="#61ba45" stroke="#175985" stroke-linecap="round" stroke-linejoin="round" stroke-miterlimit="10" stroke-width="4.861"/>
        <path id="Path_646" data-name="Path 646" d="M230.23,133.63v20.89a20.614,20.614,0,0,0,20.55,20.55h0a20.614,20.614,0,0,0,20.55-20.55V132.95" fill="#c7c7c9" stroke="#175985" stroke-linecap="round" stroke-linejoin="round" stroke-miterlimit="10" stroke-width="4.861"/>
        <path id="Path_647" data-name="Path 647" d="M213.66,221.93h73.45a2.433,2.433,0,0,0,2.43-2.43v-5.27a39.157,39.157,0,0,0-39.16-39.16h0a39.157,39.157,0,0,0-39.16,39.16v5.27A2.448,2.448,0,0,0,213.66,221.93Z" fill="#2b7dab" stroke="#175985" stroke-linecap="round" stroke-linejoin="round" stroke-miterlimit="10" stroke-width="4.861"/>
        <circle id="Ellipse_112" data-name="Ellipse 112" cx="2.76" cy="2.76" r="2.76" transform="translate(257.96 141.7)" fill="#175985"/>
        <circle id="Ellipse_113" data-name="Ellipse 113" cx="2.76" cy="2.76" r="2.76" transform="translate(237.82 141.7)" fill="#175985"/>
        <path id="Path_648" data-name="Path 648" d="M240.58,176.07s.93,12.01,10.2,12.01,10.2-12.01,10.2-12.01" fill="#c7c7c9" stroke="#175985" stroke-linecap="round" stroke-linejoin="round" stroke-miterlimit="10" stroke-width="4.861"/>
        <line id="Line_51" data-name="Line 51" x1="55.9" transform="translate(230.42 133.66)" fill="#333" stroke="#175985" stroke-linecap="round" stroke-linejoin="round" stroke-miterlimit="10" stroke-width="4.861"/>
        <path id="Path_649" data-name="Path 649" d="M250.78,110.45s10.2,4.98,10.2,23.21" fill="none" stroke="#175985" stroke-linecap="round" stroke-linejoin="round" stroke-miterlimit="10" stroke-width="4.861"/>
        <path id="Path_650" data-name="Path 650" d="M250.78,110.45s-10.2,4.98-10.2,23.21" fill="none" stroke="#175985" stroke-linecap="round" stroke-linejoin="round" stroke-miterlimit="10" stroke-width="4.861"/>
        <path id="Path_651" data-name="Path 651" d="M213.66,221.93h73.45a2.433,2.433,0,0,0,2.43-2.43v-5.27a39.157,39.157,0,0,0-39.16-39.16h0a39.157,39.157,0,0,0-39.16,39.16v5.27A2.448,2.448,0,0,0,213.66,221.93Z" fill="none" stroke="#175985" stroke-linecap="round" stroke-linejoin="round" stroke-miterlimit="10" stroke-width="4.861"/>
      </g>
    </g>
    <g id="Group_152" data-name="Group 152" transform="translate(-4.99 -26.5)">
      <path id="Path_652" data-name="Path 652" d="M288.89,114.77,241.55,67.43" fill="none" stroke="#175985" stroke-linecap="round" stroke-linejoin="round" stroke-miterlimit="10" stroke-width="5.044"/>
      <path id="Path_653" data-name="Path 653" d="M257.73,51.25l47.34,47.34" fill="none" stroke="#175985" stroke-linecap="round" stroke-linejoin="round" stroke-miterlimit="10" stroke-width="5.044"/>
      <line id="Line_52" data-name="Line 52" y1="16.18" x2="16.17" transform="translate(269.28 78.97)" fill="none" stroke="#175985" stroke-linecap="round" stroke-linejoin="round" stroke-miterlimit="10" stroke-width="5.044"/>
      <line id="Line_53" data-name="Line 53" y1="16.18" x2="16.17" transform="translate(279.98 89.67)" fill="none" stroke="#175985" stroke-linecap="round" stroke-linejoin="round" stroke-miterlimit="10" stroke-width="5.044"/>
      <line id="Line_54" data-name="Line 54" y1="16.17" x2="16.18" transform="translate(247.57 57.27)" fill="none" stroke="#175985" stroke-linecap="round" stroke-linejoin="round" stroke-miterlimit="10" stroke-width="5.044"/>
      <line id="Line_55" data-name="Line 55" y1="16.17" x2="16.18" transform="translate(258.27 67.97)" fill="none" stroke="#175985" stroke-linecap="round" stroke-linejoin="round" stroke-miterlimit="10" stroke-width="5.044"/>
    </g>
    <g id="Group_153" data-name="Group 153" transform="translate(-4.99 -26.5)">
      <path id="Path_654" data-name="Path 654" d="M296.59,31.53a15.86,15.86,0,0,1,10.9,15.06v3.72h-31.7V36.59l3.01-2.83V28.43h17.68v5.33" fill="#61ba45" stroke="#175985" stroke-linecap="round" stroke-linejoin="round" stroke-miterlimit="10" stroke-width="5.044"/>
      <line id="Line_56" data-name="Line 56" x2="38.72" transform="translate(272.28 50.31)" fill="none" stroke="#175985" stroke-linecap="round" stroke-linejoin="round" stroke-miterlimit="10" stroke-width="5.044"/>
      <line id="Line_57" data-name="Line 57" x2="31.14" transform="translate(276.07 44.54)" fill="none" stroke="#175985" stroke-linecap="round" stroke-linejoin="round" stroke-miterlimit="10" stroke-width="5.044"/>
    </g>
    <g id="Group_154" data-name="Group 154" transform="translate(-4.99 -26.5)">
      <path id="Path_655" data-name="Path 655" d="M318.85,56.31l-4.19,1.27c0,1.81-1.48,2.08-3.3,2.08s-3.3-.37-3.3-2.37H296.13c-10.36,0-8.04,14.62-8.04,14.62,2.79-12.68,11.74-7.83,11.74-7.83V76.3h8V67.74c0-1.81,1.59-2.27,3.4-2.27s3.43-.17,3.43,2.83h-.02l4.2.99c.48.12.98-.52.98-1.01V57.04A.775.775,0,0,0,318.85,56.31Z" fill="#c7c7c9" stroke="#175985" stroke-linecap="round" stroke-linejoin="round" stroke-miterlimit="10" stroke-width="5.044"/>
      <path id="Path_656" data-name="Path 656" d="M307.83,71.28v31.17a1,1,0,0,1-1,1h-6a1,1,0,0,1-1-1V71.28Z" fill="#61ba45" stroke="#175985" stroke-linecap="round" stroke-linejoin="round" stroke-miterlimit="10" stroke-width="5.044"/>
    </g>
  </g>
</svg>
