<svg xmlns="http://www.w3.org/2000/svg" width="207.275" height="285.431" viewBox="0 0 207.275 285.431">
  <g id="Layer_1" transform="translate(-11.673 -4.366)">
    <g id="Group_60" data-name="Group 60">
      <path id="Path_148" data-name="Path 148" d="M186.38,184.96V64.66c.85-73.11-71.18-43-71.18-43C52-10.85,40.87,35.59,40.87,63.67V185.38Z" fill="#175985" stroke="#175985" stroke-linecap="round" stroke-linejoin="round" stroke-miterlimit="10" stroke-width="12.115" stroke-dasharray="0 12.115"/>
      <path id="Path_149" data-name="Path 149" d="M62.1,66.09v41.73c0,28.17,23.31,51.22,51.49,51.22s51.49-23.05,51.49-51.22V77.79" fill="#f2f2f2" stroke="#175985" stroke-linecap="round" stroke-linejoin="round" stroke-miterlimit="10" stroke-width="12.115"/>
      <path id="Path_150" data-name="Path 150" d="M17.73,283.74V256.62a97.582,97.582,0,0,1,97.58-97.58h0a97.582,97.582,0,0,1,97.58,97.58v27.12" fill="#2b7dab" stroke="#175985" stroke-linecap="round" stroke-linejoin="round" stroke-miterlimit="10" stroke-width="12.115"/>
      <circle id="Ellipse_20" data-name="Ellipse 20" cx="6.89" cy="6.89" r="6.89" transform="translate(82.66 87.97)" fill="#175985"/>
      <circle id="Ellipse_21" data-name="Ellipse 21" cx="6.89" cy="6.89" r="6.89" transform="translate(132.85 87.97)" fill="#175985"/>
      <path id="Path_151" data-name="Path 151" d="M95.8,75.48C59.44,68.94,54.71,49.22,55.3,44.34" fill="none" stroke="#175985" stroke-linecap="round" stroke-linejoin="round" stroke-miterlimit="10" stroke-width="12.115"/>
      <path id="Path_152" data-name="Path 152" d="M130.28,49.56s-1.9,24.04,34.46,30.58" fill="none" stroke="#175985" stroke-linecap="round" stroke-linejoin="round" stroke-miterlimit="10" stroke-width="12.115"/>
      <path id="Path_153" data-name="Path 153" d="M103.57,47.6s4.13,24.6,40.5,31.14" fill="none" stroke="#175985" stroke-linecap="round" stroke-linejoin="round" stroke-miterlimit="10" stroke-width="12.115"/>
      <path id="Path_154" data-name="Path 154" d="M76.85,45.63S87.01,70.8,123.38,77.34" fill="none" stroke="#175985" stroke-linecap="round" stroke-linejoin="round" stroke-miterlimit="10" stroke-width="12.115"/>
      <g id="Group_59" data-name="Group 59">
        <rect id="Rectangle_142" data-name="Rectangle 142" width="23.2" height="24.23" transform="translate(56.34 206.86)" fill="#fff"/>
        <path id="Path_155" data-name="Path 155" d="M80.31,205.21H54.74v27.5H80.31Zm-14.66,23.7H58.38V208.83h7.28Zm5.63-20.06a5.088,5.088,0,0,1,5.27,5.17c.02,3.99-3.58,4.88-5.29,4.86H68.42l-.02-10.03Zm-2.85,20.11v-9.95l9.97,9.95Z" fill="#175985"/>
      </g>
      <path id="Path_156" data-name="Path 156" d="M87.04,179.46l28.56,91.99,27.78-91.12" fill="#61ba45" stroke="#175985" stroke-linecap="round" stroke-linejoin="round" stroke-miterlimit="10" stroke-width="12.275"/>
      <path id="Path_157" data-name="Path 157" d="M79.08,148.99l36.24,23.17C115.31,172.17,70.8,214.05,79.08,148.99Z" fill="#61ba45" stroke="#175985" stroke-linecap="round" stroke-linejoin="round" stroke-miterlimit="10" stroke-width="12.115"/>
      <path id="Path_158" data-name="Path 158" d="M151.55,148.99l-36.24,23.17C115.31,172.17,159.82,214.05,151.55,148.99Z" fill="#61ba45" stroke="#175985" stroke-linecap="round" stroke-linejoin="round" stroke-miterlimit="10" stroke-width="12.115"/>
    </g>
  </g>
</svg>
