<svg xmlns="http://www.w3.org/2000/svg" width="311.391" height="194.811" viewBox="0 0 311.391 194.811">
  <g id="Layer_1" transform="translate(3.901 2.18)">
    <g id="Group_132" data-name="Group 132" transform="translate(-17.85 -35.22)" opacity="0.3">
      <path id="Path_562" data-name="Path 562" d="M122.24,135.72a7.751,7.751,0,0,0,6.76,7.72v11.02h-2.16a1.1,1.1,0,0,0,0,2.2h4.41a1.279,1.279,0,0,0,1.08-1.31,1.366,1.366,0,0,0-1.12-1.31V143.4a7.715,7.715,0,0,0,6.64-7.7,7.805,7.805,0,1,0-15.61.02Zm13.39,0a5.383,5.383,0,0,1-4.43,5.46v-1.6l3.36-3.18a1.105,1.105,0,0,0,.05-1.56,1.129,1.129,0,0,0-1.58-.04l-1.83,1.73v-3.42a1.1,1.1,0,0,0-2.2,0v3.19l-1.54-1.69a1.093,1.093,0,0,0-1.55-.06,1.106,1.106,0,0,0-.08,1.56l3.16,3.43v1.67a5.43,5.43,0,0,1-4.55-5.5,5.6,5.6,0,1,1,11.19.01Z" fill="#175985"/>
      <path id="Path_563" data-name="Path 563" d="M325.34,135.72a7.805,7.805,0,0,0-15.61,0,8.021,8.021,0,0,0,6.12,7.62v11.68H301.52V140.61a9.277,9.277,0,1,0-10.85-9.14,9.17,9.17,0,0,0,8.64,9.25v14.3H297.7a1.1,1.1,0,1,0,0,2.2h23.15a1.1,1.1,0,0,0,0-2.2h-2.8V143.49A7.965,7.965,0,0,0,325.34,135.72Zm-24.91-9.22a1.1,1.1,0,0,0-1.1,1.1v4.51l-2.65-2.68a1.092,1.092,0,0,0-1.55,0,1.1,1.1,0,0,0-.02,1.56l4.21,4.24v3.28a7.307,7.307,0,0,1-6.43-7.04,7.075,7.075,0,1,1,14.15,0,6.931,6.931,0,0,1-5.51,6.89v-3.11l4.39-4.07a1.106,1.106,0,0,0,.07-1.56,1.12,1.12,0,0,0-1.58-.05l-2.88,2.67V127.6A1.1,1.1,0,0,0,300.43,126.5Zm16.53,5.51a1.1,1.1,0,0,0-1.1,1.1v3.19l-1.54-1.69a1.093,1.093,0,0,0-1.55-.06,1.106,1.106,0,0,0-.08,1.56l3.16,3.43v1.52a5.685,5.685,0,0,1-3.91-5.34,5.595,5.595,0,1,1,11.19,0,5.683,5.683,0,0,1-5.06,5.57v-1.7l3.36-3.18a1.105,1.105,0,0,0,.05-1.56,1.129,1.129,0,0,0-1.58-.04l-1.83,1.73v-3.42A1.107,1.107,0,0,0,316.96,132.01Z" fill="#175985"/>
      <path id="Path_564" data-name="Path 564" d="M146.22,65.25,135.1,109.8a1.463,1.463,0,0,0,.2,1.1,1.283,1.283,0,0,0,.87.58h2.75v43h-2.71a1.1,1.1,0,0,0,0,2.2h8.82a1.29,1.29,0,0,0,1.09-1.18,1.329,1.329,0,0,0,.36-.91,4.892,4.892,0,0,1,4.74-4.91,4.824,4.824,0,0,1,4.73,4.25h-4.82c-.61,0-1.1.76-1.1,1.37s.5,1.38,1.1,1.38h0l32.69-.29a.969.969,0,1,0,0-1.92h0l-6.48-.19a5.91,5.91,0,0,0-5.72-4.9,5.7,5.7,0,0,0-2.55.55,6.938,6.938,0,0,0-13.35-.73,6.77,6.77,0,0,0-4.5-1.46,6.969,6.969,0,0,0-6.93,6.73h-3.17v-43h45.2v5.11c0,.61.54,1.51,1.15,1.51h2.16v30.32h-2.16c-.61,0-1.15.09-1.15.7v6.06c0,.61.54,1.51,1.15,1.51h23.15a1.1,1.1,0,1,0,0-2.2h-9.97v-2.2h29.77v2.2H218.89a1.1,1.1,0,1,0,0,2.2h34.72a1.1,1.1,0,1,0,0-2.2h-2.44a4.676,4.676,0,0,1,4.72-4.53,4.83,4.83,0,0,1,4.74,4.84c0,.05.01.24.01.24h-2.08a1.1,1.1,0,0,0,0,2.2h34.73a1.1,1.1,0,1,0,0-2.2h-4.45V111.48h4.34c.34,0,.65-.36.86-.62a1.314,1.314,0,0,0,.21-1.04L283.9,65.32a.98.98,0,0,0-1.07-.7h-23.2V59.1h1.7c.61,0,1.06-.9,1.06-1.51V52.08c0-.61-.45-.7-1.06-.7H244.8c-.61,0-1.15.09-1.15.7v5.51c0,.61.54,1.51,1.15,1.51h1.61v5.51H147.29C146.78,64.61,146.34,64.76,146.22,65.25Zm25.4,86.23a3.612,3.612,0,0,1,3.46,2.6l-6.92.02A3.59,3.59,0,0,1,171.62,151.48Zm-14.07-.08a4.74,4.74,0,1,1,9.48,0c0,.04.01.08.01.11a5.746,5.746,0,0,0-1.15,2.59l-7.75.02a6.727,6.727,0,0,0-.62-2.53A.629.629,0,0,0,157.55,151.4Zm30.98-35.52v-4.41h4.45a1.642,1.642,0,0,0,.23-.02.985.985,0,0,0,.17.02h5.06v4.41h-9.91Zm44.1,0v-4.41h4.8c.03,0,.06-.01.09-.01s.08.01.12.01H242v4.41h-9.37Zm6.61,2.2V148.4h-3.86V118.08h3.86Zm-39.64-8.82h-3.99l19.61-25.93,19.98,25.93h-3.62c-.61,0-1.15.09-1.15.7v5.92h-1.49a15.211,15.211,0,0,0-14.25-8.82c-9.33,0-12.38,6.06-13.19,8.82h-.83v-5.92C200.65,109.35,200.2,109.26,199.6,109.26Zm38.37,0L216.29,80.92a1.151,1.151,0,0,0-1.32-.43,1.287,1.287,0,0,0-.94.59l-21.2,28.19H189.6L215.3,76.7,241,109.27h-3.03Zm-42.83,8.82V148.4h-3.31V118.08h3.31Zm3.31,36.38h-9.92V150.6h9.92Zm24.25-4.41H206.71V120.83H222.7Zm7.72-.95v.96h-5.51V119.34c0-.61-.45-.7-1.06-.7H205.66c-.61,0-1.15.09-1.15.7v30.72h-3.86v-.96c0-.61-.45-.7-1.06-.7h-2.25V118.08h4.97c.53,0,.98-.58,1.08-1.09.06-.32,1.66-8.03,11.28-8.03,9.67,0,12.36,7.88,12.47,8.21a1.261,1.261,0,0,0,1.05.91h4.98V148.4h-1.61C230.96,148.4,230.42,148.49,230.42,149.1ZM242,154.46h-9.37V150.6H242Zm28.51.56h-7.68a3.322,3.322,0,0,0,.01-.34,7.363,7.363,0,0,0-.63-2.98,1.94,1.94,0,0,0,.02-.24,4.74,4.74,0,1,1,9.48-.04c0,.04.01.27.01.31A6.709,6.709,0,0,0,270.51,155.02Zm2.22,0a3.6,3.6,0,0,1,7.14,0Zm13.92,0h-4.56a5.749,5.749,0,0,0-5.79-5.54,5.837,5.837,0,0,0-2.55.49,7.009,7.009,0,0,0-6.77-5.48,6.93,6.93,0,0,0-6.58,4.71,6.768,6.768,0,0,0-4.49-1.47,6.967,6.967,0,0,0-6.93,6.72h-4.77v-5.37c0-.61-.45-.7-1.06-.7h-1.7V118.06h1.7c.61,0,1.06-.9,1.06-1.51v-5.11h42.44v43.58ZM245.86,56.9V53.59h14.33V56.9H245.86Zm11.57,2.2v5.51h-8.82V59.1Zm24.53,7.72,9.84,42.44H243.81L216.17,74.02a1.144,1.144,0,0,0-1.73.1L186.8,109.25H137.59l3.69-15.03a3.71,3.71,0,0,0,2.39.75,3.833,3.833,0,0,0,3.78-3.83,1.123,1.123,0,0,0-1.1-1.13,1.088,1.088,0,0,0-1.1,1.09,1.58,1.58,0,0,1-3.16-.01c0-.08-.01.04-.03-.04l6.09-24.25H281.96Z" fill="#175985"/>
      <path id="Path_565" data-name="Path 565" d="M210.58,139.73a1.1,1.1,0,0,0,1.1-1.1v-3.31a1.1,1.1,0,0,0-2.2,0v3.31A1.1,1.1,0,0,0,210.58,139.73Z" fill="#175985"/>
      <path id="Path_566" data-name="Path 566" d="M151.09,142.34H178.1c.61,0,1.06-.9,1.06-1.51V119.74h2.8c.61,0,1.06-.9,1.06-1.51v-3.31c0-.61-.45-.7-1.06-.7H147.23c-.61,0-1.15.09-1.15.7v3.31c0,.61.54,1.51,1.15,1.51h2.71v21.09C149.94,141.44,150.48,142.34,151.09,142.34Zm4.91-2.21h-3.86v-4.96H156Zm0-7.16h-3.86v-6.61H156Zm0-8.82h-3.86v-4.41H156Zm7.17,15.98h-4.96v-4.96h4.96Zm0-7.16h-4.96v-6.61h4.96Zm0-8.82h-4.96v-4.41h4.96Zm7.17,15.98h-4.96v-4.96h4.96Zm0-7.16h-4.96v-6.61h4.96Zm0-8.82h-4.96v-4.41h4.96Zm6.61,15.98h-4.41v-4.96h4.41Zm0-7.16h-4.41v-6.61h4.41Zm0-8.82h-4.41v-4.41h4.41Zm-28.66-6.62v-1.1h32.52v1.1Z" fill="#175985"/>
      <path id="Path_567" data-name="Path 567" d="M248.65,119.74h2.16v21.09c0,.61.54,1.51,1.15,1.51h28.11c.61,0,1.06-.9,1.06-1.51V119.74h1.7c.61,0,1.06-.9,1.06-1.51v-3.31c0-.61-.45-.7-1.06-.7H248.65c-.61,0-1.15.09-1.15.7v3.31C247.51,118.84,248.05,119.74,248.65,119.74Zm8.78,20.39h-4.41v-4.96h4.41Zm0-7.16h-4.41v-6.61h4.41Zm0-8.82h-4.41v-4.41h4.41Zm6.62,15.98h-4.41v-4.96h4.41Zm0-7.16h-4.41v-6.61h4.41Zm0-8.82h-4.41v-4.41h4.41Zm7.71,15.98h-5.51v-4.96h5.51Zm0-7.16h-5.51v-6.61h5.51Zm0-8.82h-5.51v-4.41h5.51Zm7.17,15.98h-4.96v-4.96h4.96Zm0-7.16h-4.96v-6.61h4.96Zm0-8.82h-4.96v-4.41h4.96Zm-29.22-7.72h31.97v1.1H249.71v-1.1Z" fill="#175985"/>
      <path id="Path_568" data-name="Path 568" d="M181.05,75.33a3.79,3.79,0,0,0,3.78-3.78,1.1,1.1,0,0,0-2.2,0,1.58,1.58,0,0,1-3.16,0,1.1,1.1,0,0,0-2.2,0A3.783,3.783,0,0,0,181.05,75.33Z" fill="#175985"/>
      <path id="Path_569" data-name="Path 569" d="M200.03,81.09a3.79,3.79,0,0,0,3.78-3.78,1.1,1.1,0,0,0-2.2,0,1.58,1.58,0,1,1-3.16,0,1.1,1.1,0,0,0-2.2,0A3.79,3.79,0,0,0,200.03,81.09Z" fill="#175985"/>
      <path id="Path_570" data-name="Path 570" d="M275.95,75.91a3.783,3.783,0,0,0,3.78-3.78,1.1,1.1,0,0,0-2.2,0,1.58,1.58,0,1,1-3.16,0,1.1,1.1,0,0,0-2.2,0A3.79,3.79,0,0,0,275.95,75.91Z" fill="#175985"/>
      <path id="Path_571" data-name="Path 571" d="M266.42,99.74a3.78,3.78,0,0,0,7.56,0,1.1,1.1,0,0,0-2.2,0,1.58,1.58,0,1,1-3.16,0,1.1,1.1,0,0,0-2.2,0Z" fill="#175985"/>
      <path id="Path_572" data-name="Path 572" d="M278.4,88.23a1.1,1.1,0,0,0-2.2,0,3.78,3.78,0,0,0,7.56,0,1.1,1.1,0,0,0-2.2,0,1.58,1.58,0,1,1-3.16,0Z" fill="#175985"/>
      <path id="Path_573" data-name="Path 573" d="M254.1,75.91a3.79,3.79,0,0,0,3.78-3.78,1.1,1.1,0,0,0-2.2,0,1.58,1.58,0,0,1-3.16,0,1.1,1.1,0,0,0-2.2,0A3.783,3.783,0,0,0,254.1,75.91Z" fill="#175985"/>
      <path id="Path_574" data-name="Path 574" d="M244.32,90.86a3.79,3.79,0,0,0,3.78-3.78,1.1,1.1,0,0,0-2.2,0,1.58,1.58,0,1,1-3.16,0,1.1,1.1,0,0,0-2.2,0A3.783,3.783,0,0,0,244.32,90.86Z" fill="#175985"/>
      <path id="Path_575" data-name="Path 575" d="M231.67,78.21a3.79,3.79,0,0,0,3.78-3.78,1.1,1.1,0,0,0-2.2,0,1.58,1.58,0,1,1-3.16,0,1.1,1.1,0,0,0-2.2,0A3.777,3.777,0,0,0,231.67,78.21Z" fill="#175985"/>
      <path id="Path_576" data-name="Path 576" d="M183.02,96.86a3.78,3.78,0,1,0,7.56,0,1.1,1.1,0,0,0-2.2,0,1.58,1.58,0,1,1-3.16,0,1.1,1.1,0,1,0-2.2,0Z" fill="#175985"/>
      <path id="Path_577" data-name="Path 577" d="M246.29,100.89a3.78,3.78,0,0,0,7.56,0,1.1,1.1,0,0,0-2.2,0,1.58,1.58,0,0,1-3.16,0,1.1,1.1,0,1,0-2.2,0Z" fill="#175985"/>
      <path id="Path_578" data-name="Path 578" d="M156.32,75.33a3.79,3.79,0,0,0,3.78-3.78,1.1,1.1,0,0,0-2.2,0,1.58,1.58,0,0,1-3.16,0,1.1,1.1,0,0,0-2.2,0A3.777,3.777,0,0,0,156.32,75.33Z" fill="#175985"/>
      <path id="Path_579" data-name="Path 579" d="M170.12,88.56a3.79,3.79,0,0,0,3.78-3.78,1.1,1.1,0,0,0-2.2,0,1.58,1.58,0,1,1-3.16,0,1.1,1.1,0,0,0-2.2,0A3.783,3.783,0,0,0,170.12,88.56Z" fill="#175985"/>
      <path id="Path_580" data-name="Path 580" d="M263.88,85.69a3.79,3.79,0,0,0,3.78-3.78,1.1,1.1,0,0,0-2.2,0,1.58,1.58,0,1,1-3.16,0,1.1,1.1,0,0,0-2.2,0A3.783,3.783,0,0,0,263.88,85.69Z" fill="#175985"/>
      <path id="Path_581" data-name="Path 581" d="M157.62,99.74a1.1,1.1,0,0,0-2.2,0,3.78,3.78,0,1,0,7.56,0,1.1,1.1,0,0,0-2.2,0,1.58,1.58,0,1,1-3.16,0Z" fill="#175985"/>
    </g>
    <g id="Group_133" data-name="Group 133" transform="translate(-17.85 -35.22)">
      <line id="Line_43" data-name="Line 43" x2="23.65" y2="79.74" transform="translate(82.75 46.45)" fill="none" stroke="#175985" stroke-linecap="round" stroke-linejoin="round" stroke-miterlimit="10" stroke-width="6.201"/>
      <line id="Line_44" data-name="Line 44" x2="23.65" y2="85.94" transform="translate(75.54 47.46)" fill="none" stroke="#175985" stroke-linecap="round" stroke-linejoin="round" stroke-miterlimit="10" stroke-width="6.201"/>
      <line id="Line_45" data-name="Line 45" x2="23.65" y2="73.54" transform="translate(91.98 52.65)" fill="none" stroke="#175985" stroke-linecap="round" stroke-linejoin="round" stroke-miterlimit="10" stroke-width="6.201"/>
      <line id="Line_46" data-name="Line 46" x1="23.65" y2="79.74" transform="translate(27.08 54.11)" fill="none" stroke="#175985" stroke-linecap="round" stroke-linejoin="round" stroke-miterlimit="10" stroke-width="6.201"/>
      <line id="Line_47" data-name="Line 47" x1="23.65" y2="85.95" transform="translate(34.29 55.11)" fill="none" stroke="#175985" stroke-linecap="round" stroke-linejoin="round" stroke-miterlimit="10" stroke-width="6.201"/>
      <path id="Path_582" data-name="Path 582" d="M68.11,118.58h0A26.3,26.3,0,0,1,41.89,92.36v-30A26.3,26.3,0,0,1,68.11,36.14h0A26.3,26.3,0,0,1,94.33,62.36v30A26.3,26.3,0,0,1,68.11,118.58Z" fill="#c7c7c9" stroke="#175985" stroke-linecap="round" stroke-linejoin="round" stroke-miterlimit="10" stroke-width="6.201"/>
      <line id="Line_48" data-name="Line 48" x1="23.65" y2="73.54" transform="translate(17.85 60.31)" fill="none" stroke="#175985" stroke-linecap="round" stroke-linejoin="round" stroke-miterlimit="10" stroke-width="6.201"/>
      <path id="Path_583" data-name="Path 583" d="M72.57,35.75c0,.22-.03.44-.03.66A32.834,32.834,0,0,0,93.59,67.04v-5.6A26.307,26.307,0,0,0,72.57,35.75Z" fill="#175985"/>
      <path id="Path_584" data-name="Path 584" d="M53.75,65.73A32.864,32.864,0,0,0,85.22,42.3a26.059,26.059,0,0,0-17.84-7.08h0A26.3,26.3,0,0,0,41.16,61.44v1.78A32.772,32.772,0,0,0,53.75,65.73Z" fill="#175985"/>
      <circle id="Ellipse_91" data-name="Ellipse 91" cx="12.49" cy="12.49" r="12.49" transform="translate(43.13 70.14)" fill="#fff" stroke="#175985" stroke-linecap="round" stroke-linejoin="round" stroke-miterlimit="10" stroke-width="6.201"/>
      <circle id="Ellipse_92" data-name="Ellipse 92" cx="12.49" cy="12.49" r="12.49" transform="translate(68.61 70.14)" fill="#fff" stroke="#175985" stroke-linecap="round" stroke-linejoin="round" stroke-miterlimit="10" stroke-width="6.201"/>
      <path id="Path_585" data-name="Path 585" d="M115.46,224.75H21.77a3.1,3.1,0,0,1-3.1-3.1V168.53a49.946,49.946,0,0,1,49.95-49.95h0a49.946,49.946,0,0,1,49.95,49.95v53.12A3.118,3.118,0,0,1,115.46,224.75Z" fill="#949499" stroke="#175985" stroke-linecap="round" stroke-linejoin="round" stroke-miterlimit="10" stroke-width="6.201"/>
      <path id="Path_586" data-name="Path 586" d="M89.9,124.04s6.51,34.34-20.62,34.34-20.4-35.74-20.4-35.74" fill="#61ba45" stroke="#175985" stroke-linecap="round" stroke-linejoin="round" stroke-miterlimit="10" stroke-width="6.201"/>
      <path id="Path_587" data-name="Path 587" d="M83.46,121.22,69.28,138.71,55.1,121.22" fill="#c7c7c9" stroke="#175985" stroke-linecap="round" stroke-linejoin="round" stroke-miterlimit="10" stroke-width="6.201"/>
      <path id="Path_588" data-name="Path 588" d="M101.45,166.91s-6.12-11.44-16.24,0-16.6.39-15.93-8.53" fill="none" stroke="#175985" stroke-linecap="round" stroke-linejoin="round" stroke-miterlimit="10" stroke-width="6.201"/>
      <path id="Path_589" data-name="Path 589" d="M115.46,224.75H21.77a3.1,3.1,0,0,1-3.1-3.1V168.53a49.946,49.946,0,0,1,49.95-49.95h0a49.946,49.946,0,0,1,49.95,49.95v53.12A3.118,3.118,0,0,1,115.46,224.75Z" fill="none" stroke="#175985" stroke-linecap="round" stroke-linejoin="round" stroke-miterlimit="10" stroke-width="6.201"/>
    </g>
  </g>
</svg>
