<svg xmlns="http://www.w3.org/2000/svg" width="294.732" height="203.276" viewBox="0 0 294.732 203.276">
  <g id="Layer_1" transform="translate(2.796)">
    <g id="Group_134" data-name="Group 134" transform="translate(-12.26 -23.62)" opacity="0.3">
      <path id="Path_590" data-name="Path 590" d="M52.13,125.84a1.165,1.165,0,0,0-1.17-1.17H45.7a1.17,1.17,0,0,0,0,2.34h5.26A1.171,1.171,0,0,0,52.13,125.84Z" fill="#175985"/>
      <path id="Path_591" data-name="Path 591" d="M56.22,125.84a1.165,1.165,0,0,0,1.17,1.17H64.4c.18,0,.35-.26.5-.33a10.088,10.088,0,0,0,8.94,5.21,10.215,10.215,0,0,0,0-20.43,10.369,10.369,0,0,0-10.18,10.38,13.933,13.933,0,0,0,.36,2.84H57.39A1.163,1.163,0,0,0,56.22,125.84Zm17.61-12.07a7.84,7.84,0,1,1-7.84,7.84A7.853,7.853,0,0,1,73.83,113.77Z" fill="#175985"/>
      <path id="Path_592" data-name="Path 592" d="M161.36,124.68a1.17,1.17,0,0,0,0,2.34h8.76a1.17,1.17,0,1,0,0-2.34Z" fill="#175985"/>
      <path id="Path_593" data-name="Path 593" d="M174.21,124.68a1.17,1.17,0,1,0,0,2.34h54.92c.08,0,.16-.22.23-.24a8.342,8.342,0,0,0,15.47.24h3.45a11.759,11.759,0,0,0,19.52,0h1.89a5.79,5.79,0,0,0,11.52,0h3.41a1.17,1.17,0,1,0,0-2.34h-3.65a5.787,5.787,0,0,0-11.04,0h-.92a12.219,12.219,0,0,0,.77-4.43,11.672,11.672,0,0,0-8.57-11.52V49.48c0-.65-.48-.74-1.12-.74H233.22a1.17,1.17,0,1,0,0,2.34h25.66v57.24a7.208,7.208,0,0,0-.88-.04,11.565,11.565,0,0,0-3.8.64V59.42c0-.65-.48-.74-1.12-.74H232.01V24.36c0-.65-.48-.74-1.12-.74H117.55c-.65,0-1.21.09-1.21.74V45.39c0,.65.57,1.6,1.21,1.6h14.56V70.36H75.49c-.65,0-1.21.09-1.21.74V90.96c0,.65.57,1.6,1.21,1.6H86.54v32.13H85.42a1.17,1.17,0,0,0,0,2.34h25.7a1.17,1.17,0,0,0,0-2.34h-5.89V92.55h22.2v32.13H115.21a1.17,1.17,0,0,0,0,2.34h42.64a1.17,1.17,0,1,0,0-2.34h-2.97V92.55h21.03v32.13h-1.7Zm101.23-2.14a3.46,3.46,0,1,1-3.46,3.46A3.461,3.461,0,0,1,275.44,122.54ZM258.03,110.6a9.415,9.415,0,0,1,8.25,13.96,1.211,1.211,0,0,0-.31.51,9.416,9.416,0,1,1-7.94-14.47ZM231.99,61.01h19.86V80.29H231.99Zm0,21.61h19.86v3.5H231.99Zm0,5.84h19.86v21.55a11.8,11.8,0,0,0-5.61,10.23,12.136,12.136,0,0,0,.82,4.43H245.4c.03-.58.04-.75.04-1.03a8.477,8.477,0,0,0-8.37-8.46,7.844,7.844,0,0,0-5.08,1.61Zm5.1,28.96a6.01,6.01,0,1,1-6.01,6.01A6.015,6.015,0,0,1,237.09,117.42Zm-16.2,7.26H178.25V92.55h1.8c.65,0,1.12-.95,1.12-1.6V88.46h39.72ZM175.92,72.69h2.92v4.09h-2.92Zm-1.76-2.34V46.99h2.92V70.36h-2.92Zm46.73,15.77H181.17v-3.5h39.72Zm0-5.84H181.17v-9.2c0-.65-.48-.74-1.12-.74h-.63V46.99h41.47Zm5.26-54.32h3.5v3.5h-3.5Zm-7.01,0h4.67v3.5h-4.67Zm-7.01,0h4.67v3.5h-4.67Zm-7.01,0h4.67v3.5h-4.67Zm-8.18,0h5.84v3.5h-5.84Zm-7.01,0h4.67v3.5h-4.67Zm-7,0h4.67v3.5h-4.67Zm-7.6,0h5.26v3.5h-5.26Zm-7.59,0H173v3.5h-5.26Zm-6.43,0h4.09v3.5h-4.09Zm-7.59,0h5.26v3.5h-5.26Zm-7.59,0h5.26v3.5h-5.26Zm-7.6,0h5.26v3.5h-5.26Zm-6.42,0h4.09v3.5h-4.09Zm-7.6,0h5.26v3.5h-5.26Zm-5.84,0h3.5v3.5h-3.5Zm0,18.69V31.8H229.65v87.76a9.6,9.6,0,0,0-.94,4.09c0,.27.04.44.06,1.03h-5.55V45.39c0-.65-.48-.74-1.12-.74H118.67Zm20.45,25.7V46.99h32.71V70.36H139.12Zm28.03,2.34v4.09h-5.26V72.69Zm-7.59,0v4.09H154.3V72.69Zm-7.59,0v4.09h-5.26V72.69Zm-7.6,0v4.09h-5.26V72.69Zm25.12,0h4.09v4.09h-4.09Zm-35.05-2.34V46.99h2.34V70.36h-2.34Zm2.34,2.34v4.09h-4.09V72.69Zm-11.68,0h5.26v4.09H125.1Zm-7.6,0h5.26v4.09H117.5Zm-6.42,0h4.09v4.09h-4.09Zm-8.18,0h5.84v4.09H102.9V72.69Zm-7.01,0h4.67v4.09H95.89Zm-7.01,0h4.67v4.09H88.88Zm-7.59,0h5.26v4.09H81.29Zm-4.68,0h2.34v4.09H76.61ZM91.8,124.68H88.88V92.55H91.8Zm5.84,0h-3.5V92.55h3.5Zm5.26,0H99.98V92.55h2.92Zm30.96,0h-4.09V92.55h4.09Zm18.69,0H136.2V92.55h16.36v32.13Zm14.07-34.47H76.61V79.11H178.83v11.1H166.62Z" fill="#175985"/>
      <path id="Path_594" data-name="Path 594" d="M139.12,113.73a1.165,1.165,0,0,0,1.17-1.17v-4.09a1.17,1.17,0,0,0-2.34,0v4.09A1.165,1.165,0,0,0,139.12,113.73Z" fill="#175985"/>
      <path id="Path_595" data-name="Path 595" d="M157.22,108.47v4.09a1.17,1.17,0,1,0,2.34,0v-4.09a1.165,1.165,0,0,0-1.17-1.17A1.185,1.185,0,0,0,157.22,108.47Z" fill="#175985"/>
      <path id="Path_596" data-name="Path 596" d="M287.53,127.01h6.43a1.17,1.17,0,1,0,0-2.34h-6.43a1.17,1.17,0,1,0,0,2.34Z" fill="#175985"/>
    </g>
    <g id="Group_135" data-name="Group 135" transform="translate(-12.26 -23.62)">
      <path id="Path_597" data-name="Path 597" d="M135.23,125.49h0a23.712,23.712,0,0,1-23.64-23.64V74.79c0-13,10.64-15.64,23.64-15.64h0c13,0,23.64,2.64,23.64,15.64v27.05A23.714,23.714,0,0,1,135.23,125.49Z" fill="#f2f2f2" stroke="#175985" stroke-linecap="round" stroke-linejoin="round" stroke-miterlimit="10" stroke-width="5.591"/>
      <path id="Path_598" data-name="Path 598" d="M177.92,224.1H93.45a2.8,2.8,0,0,1-2.8-2.8V170.52a45.029,45.029,0,0,1,45.03-45.03h0a45.029,45.029,0,0,1,45.03,45.03V221.3A2.781,2.781,0,0,1,177.92,224.1Z" fill="#61ba45" stroke="#175985" stroke-linecap="round" stroke-linejoin="round" stroke-miterlimit="10" stroke-width="5.591"/>
      <circle id="Ellipse_93" data-name="Ellipse 93" cx="3.18" cy="3.18" r="3.18" transform="translate(120.61 92.09)" fill="#175985"/>
      <circle id="Ellipse_94" data-name="Ellipse 94" cx="3.18" cy="3.18" r="3.18" transform="translate(143.78 92.09)" fill="#175985"/>
      <path id="Path_599" data-name="Path 599" d="M146.96,126.63l-11.73,33.81L123.5,126.63" fill="#f2f2f2" stroke="#175985" stroke-linecap="round" stroke-linejoin="round" stroke-miterlimit="10" stroke-width="5.591"/>
      <path id="Path_600" data-name="Path 600" d="M135.68,54.1h.6s-33.55-6.77-33.55,24.8v26.42c0,6.39,4.67,11.52,11.06,11.34l5.03-.13-4.9-9.26V84.65h44.73v22.62l-5.2,9.26,4.73.13a11.34,11.34,0,0,0,11.66-11.34V78.9C169.83,47.34,135.68,54.1,135.68,54.1Z" fill="#175985"/>
      <path id="Path_601" data-name="Path 601" d="M177.92,224.1H93.45a2.8,2.8,0,0,1-2.8-2.8V170.52a45.029,45.029,0,0,1,45.03-45.03h0a45.029,45.029,0,0,1,45.03,45.03V221.3A2.781,2.781,0,0,1,177.92,224.1Z" fill="none" stroke="#175985" stroke-linecap="round" stroke-linejoin="round" stroke-miterlimit="10" stroke-width="5.591"/>
    </g>
    <g id="Group_136" data-name="Group 136" transform="translate(-12.26 -23.62)">
      <path id="Path_602" data-name="Path 602" d="M56.84,125.49h0A23.712,23.712,0,0,1,33.2,101.85V83.18A23.712,23.712,0,0,1,56.84,59.54h0A23.712,23.712,0,0,1,80.48,83.18v18.66A23.708,23.708,0,0,1,56.84,125.49Z" fill="#f2f2f2" stroke="#175985" stroke-linecap="round" stroke-linejoin="round" stroke-miterlimit="10" stroke-width="5.591"/>
      <path id="Path_603" data-name="Path 603" d="M99.54,224.1H15.06a2.8,2.8,0,0,1-2.8-2.8V170.52a45.029,45.029,0,0,1,45.03-45.03h0a45.029,45.029,0,0,1,45.03,45.03V221.3A2.778,2.778,0,0,1,99.54,224.1Z" fill="#2b7dab" stroke="#175985" stroke-linecap="round" stroke-linejoin="round" stroke-miterlimit="10" stroke-width="5.591"/>
      <circle id="Ellipse_95" data-name="Ellipse 95" cx="3.18" cy="3.18" r="3.18" transform="translate(42.23 95.48)" fill="#175985"/>
      <circle id="Ellipse_96" data-name="Ellipse 96" cx="3.18" cy="3.18" r="3.18" transform="translate(65.39 95.48)" fill="#175985"/>
      <path id="Path_604" data-name="Path 604" d="M68.57,126.63l-11.73,22.2-11.72-22.2" fill="#f2f2f2" stroke="#175985" stroke-linecap="round" stroke-linejoin="round" stroke-miterlimit="10" stroke-width="5.591"/>
      <path id="Path_605" data-name="Path 605" d="M76.96,132.85l-3.34,7.6-6.14-13.19" fill="#f2f2f2" stroke="#175985" stroke-linecap="round" stroke-linejoin="round" stroke-miterlimit="10" stroke-width="5.591"/>
      <path id="Path_606" data-name="Path 606" d="M46.21,127.26l-6.14,13.19-3.34-7.6" fill="#f2f2f2" stroke="#175985" stroke-linecap="round" stroke-linejoin="round" stroke-miterlimit="10" stroke-width="5.591"/>
      <path id="Path_607" data-name="Path 607" d="M32.74,86.24H60.7l2.56-10.02L65.4,86.24H80.27s1.62-26.7-23.42-26.7S32.74,86.24,32.74,86.24Z" fill="#175985"/>
      <circle id="Ellipse_97" data-name="Ellipse 97" cx="11.07" cy="11.07" r="11.07" transform="translate(45.4 47)" fill="#175985"/>
      <path id="Path_608" data-name="Path 608" d="M99.54,224.1H15.06a2.8,2.8,0,0,1-2.8-2.8V170.52a45.029,45.029,0,0,1,45.03-45.03h0a45.029,45.029,0,0,1,45.03,45.03V221.3A2.778,2.778,0,0,1,99.54,224.1Z" fill="none" stroke="#175985" stroke-linecap="round" stroke-linejoin="round" stroke-miterlimit="10" stroke-width="5.591"/>
    </g>
    <g id="Group_137" data-name="Group 137" transform="translate(-12.26 -23.62)">
      <path id="Path_609" data-name="Path 609" d="M233.39,138.35H216.42V82.58l8.22-10.35,8.75,10.35Z" fill="#2b7dab" stroke="#175985" stroke-linecap="round" stroke-linejoin="round" stroke-miterlimit="10" stroke-width="4.474"/>
      <path id="Path_610" data-name="Path 610" d="M261.91,138.35H244.94V82.58l8.21-10.35,8.76,10.35Z" fill="#2b7dab" stroke="#175985" stroke-linecap="round" stroke-linejoin="round" stroke-miterlimit="10" stroke-width="4.474"/>
      <path id="Path_611" data-name="Path 611" d="M290.42,138.35H273.45V82.58l8.21-10.35,8.76,10.35Z" fill="#2b7dab" stroke="#175985" stroke-linecap="round" stroke-linejoin="round" stroke-miterlimit="10" stroke-width="4.474"/>
      <rect id="Rectangle_278" data-name="Rectangle 278" width="11.54" height="9.42" transform="translate(233.39 117.28)" fill="#2b7dab" stroke="#175985" stroke-linecap="round" stroke-linejoin="round" stroke-miterlimit="10" stroke-width="4.474"/>
      <rect id="Rectangle_279" data-name="Rectangle 279" width="11.54" height="9.42" transform="translate(261.91 117.28)" fill="#2b7dab" stroke="#175985" stroke-linecap="round" stroke-linejoin="round" stroke-miterlimit="10" stroke-width="4.474"/>
      <rect id="Rectangle_280" data-name="Rectangle 280" width="11.54" height="9.42" transform="translate(233.39 92.85)" fill="#2b7dab" stroke="#175985" stroke-linecap="round" stroke-linejoin="round" stroke-miterlimit="10" stroke-width="4.474"/>
      <rect id="Rectangle_281" data-name="Rectangle 281" width="11.54" height="9.42" transform="translate(204.88 117.28)" fill="#2b7dab" stroke="#175985" stroke-linecap="round" stroke-linejoin="round" stroke-miterlimit="10" stroke-width="4.474"/>
      <rect id="Rectangle_282" data-name="Rectangle 282" width="11.54" height="9.42" transform="translate(204.88 92.85)" fill="#2b7dab" stroke="#175985" stroke-linecap="round" stroke-linejoin="round" stroke-miterlimit="10" stroke-width="4.474"/>
      <rect id="Rectangle_283" data-name="Rectangle 283" width="11.54" height="9.42" transform="translate(261.91 92.85)" fill="#2b7dab" stroke="#175985" stroke-linecap="round" stroke-linejoin="round" stroke-miterlimit="10" stroke-width="4.474"/>
      <rect id="Rectangle_284" data-name="Rectangle 284" width="11.54" height="9.42" transform="translate(290.42 117.28)" fill="#2b7dab" stroke="#175985" stroke-linecap="round" stroke-linejoin="round" stroke-miterlimit="10" stroke-width="4.474"/>
      <rect id="Rectangle_285" data-name="Rectangle 285" width="11.54" height="9.42" transform="translate(290.42 92.85)" fill="#2b7dab" stroke="#175985" stroke-linecap="round" stroke-linejoin="round" stroke-miterlimit="10" stroke-width="4.474"/>
    </g>
    <g id="Group_142" data-name="Group 142" transform="translate(-12.26 -23.62)">
      <g id="Group_141" data-name="Group 141">
        <ellipse id="Ellipse_98" data-name="Ellipse 98" cx="11.64" cy="10.75" rx="11.64" ry="10.75" transform="translate(156.67 190.312) rotate(-67.759)" fill="#f2f2f2" stroke="#175985" stroke-linecap="round" stroke-linejoin="round" stroke-miterlimit="10" stroke-width="5.591"/>
        <g id="Group_140" data-name="Group 140">
          <path id="Path_612" data-name="Path 612" d="M168.52,186.34s-2.84-16.31-14.62-24.93c0,0-33.99,40.2.92,53.36" fill="#2b7dab" stroke="#175985" stroke-linecap="round" stroke-linejoin="round" stroke-miterlimit="10" stroke-width="5.591"/>
          <path id="Path_613" data-name="Path 613" d="M192.18,178.05s-19.08-4.23-28.87,19.71l-7.18,17.55C156.13,215.3,177.77,229.5,192.18,178.05Z" fill="#61ba45" stroke="#175985" stroke-linecap="round" stroke-linejoin="round" stroke-miterlimit="10" stroke-width="5.591"/>
          <g id="Group_139" data-name="Group 139">
            <circle id="Ellipse_99" data-name="Ellipse 99" cx="17.91" cy="17.91" r="17.91" transform="translate(159.58 142.22)" fill="#f2f2f2" stroke="#175985" stroke-linecap="round" stroke-linejoin="round" stroke-miterlimit="10" stroke-width="5.591"/>
            <g id="Group_138" data-name="Group 138">
              <line id="Line_49" data-name="Line 49" x1="3.32" y1="1.36" transform="translate(170.02 157.08)" fill="#f2f2f2" stroke="#175985" stroke-linecap="round" stroke-linejoin="round" stroke-miterlimit="10" stroke-width="4"/>
              <line id="Line_50" data-name="Line 50" x1="3.32" y1="1.35" transform="translate(181.63 161.83)" fill="#f2f2f2" stroke="#175985" stroke-linecap="round" stroke-linejoin="round" stroke-miterlimit="10" stroke-width="4"/>
            </g>
          </g>
        </g>
      </g>
    </g>
  </g>
</svg>
