<svg xmlns="http://www.w3.org/2000/svg" width="299.052" height="199.222" viewBox="0 0 299.052 199.222">
  <g id="Layer_1" transform="translate(2.818)">
    <g id="Group_118" data-name="Group 118" transform="translate(43.115)" opacity="0.3">
      <path id="Path_528" data-name="Path 528" d="M252.467,137.206h-2.113c-.6,0-1.123.086-1.123.685v3.779c0,.6.524,1.476,1.123,1.476h2.656v7.559h-1.58a1.076,1.076,0,0,0,0,2.151h13.5a1.076,1.076,0,0,0,0-2.151H255.17v-7.559H259c.6,0,1.038-.885,1.038-1.476v-3.779c0-.6-.438-.685-1.038-.685h-4.36v-1.476c.543,0,1.1-.286,1.1-.885s-.466-.885-1.057-.885h-1.076c-.6,0-1.123.086-1.123.685v2.561Zm1.123,3.237a1.113,1.113,0,0,0,1.076-1.076h3.2v1.618h-6.483v-1.618H252.5A1.115,1.115,0,0,0,253.59,140.443Z" transform="translate(-64.602 -21.235)" fill="#175985"/>
      <path id="Path_529" data-name="Path 529" d="M63.4,138.9v11.281H62.364a1.076,1.076,0,0,0,0,2.151h18.9a1.076,1.076,0,0,0,0-2.151h-2.2v-9.415a6.777,6.777,0,1,0-6.5-10.662,8.051,8.051,0,1,0-9.158,8.8Zm14.642-9.463a4.615,4.615,0,0,1,4.608,4.627,4.514,4.514,0,0,1-3.589,4.493v-1.171l2.846-2.894a1.072,1.072,0,0,0-.01-1.523,1.1,1.1,0,0,0-1.542.019l-1.295,1.3v-2.885a1.076,1.076,0,1,0-2.151,0v2.837L75.835,133.1a1.069,1.069,0,0,0-1.514-.038,1.081,1.081,0,0,0-.057,1.523l2.647,2.8v1.161a4.46,4.46,0,0,1-3.5-4.484A4.632,4.632,0,0,1,78.043,129.44Zm-6.721,5.76a6.957,6.957,0,0,0,5.579,5.55v9.425H65.563V138.9A7.534,7.534,0,0,0,71.322,135.2Zm-6.769-10.148a5.871,5.871,0,0,1,5.864,5.883,5.95,5.95,0,0,1-4.855,5.788v-2.5l3.694-3.427a1.082,1.082,0,0,0,.067-1.523,1.1,1.1,0,0,0-1.542-.057l-2.218,2.056v-3.627a1.076,1.076,0,0,0-2.151,0v3.551l-2.018-1.99a1.06,1.06,0,0,0-1.514.019,1.072,1.072,0,0,0,0,1.523l3.532,3.465v2.513a5.89,5.89,0,0,1,1.142-11.671Z" transform="translate(-55.348 -20.704)" fill="#175985"/>
      <path id="Path_530" data-name="Path 530" d="M212.916,153.711h13.5a1.076,1.076,0,1,0,0-2.151h-13.5a1.076,1.076,0,1,0,0,2.151Z" transform="translate(-62.807 -22.08)" fill="#175985"/>
      <path id="Path_531" data-name="Path 531" d="M195.151,98.815c0,.038-.029.076-.029.114v29.426h-3.2c-.6,0-1.123.086-1.123.685v4.322c0,.6.524,1.476,1.123,1.476h39.422c.6,0,1.038-.885,1.038-1.476v-4.322c0-.6-.438-.685-1.038-.685h-2.2V98.93c0-.038.019-.076.019-.114-.019-.143-1.628-14.365-16.669-14.365a.838.838,0,0,0-.314.057,1.286,1.286,0,0,0-.333-.057C196.8,84.45,195.16,98.673,195.151,98.815Zm2.132,2h7.559v8.1h-7.559Zm0,10.253h7.559v8.1h-7.559Zm0,10.262h7.559v7.016h-7.559Zm32.939,9.177v2.161H192.961v-2.161Zm-13.5-19.439v8.1H207v-8.1ZM207,108.916v-8.1h9.72v8.1Zm9.72,12.414v7.016H207V121.33h9.72Zm10.253,0v7.016h-8.1V121.33h8.1Zm-8.092-2.161v-8.1h8.1v8.1Zm8.092-10.253h-8.1v-8.1h8.1ZM211.848,86.811c.114,0,.219-.124.324-.152.1.029.209.2.324.2,11.291,0,13.88,9.091,14.4,11.8H197.435C197.959,95.95,200.51,86.811,211.848,86.811Z" transform="translate(-61.797 -18.858)" fill="#175985"/>
      <path id="Path_532" data-name="Path 532" d="M128.152,39.219a.629.629,0,0,0-.133-.01,10.5,10.5,0,0,0-10.881,9.139v.029a.793.793,0,0,0-.01.114v.076l-.019.01c0,.01-.019.01-.019.019V68.007c0,.6.524,1.476,1.123,1.476H138.2c.6,0,1.038-.885,1.038-1.476V48.586s.019-.01.019-.019l.01-.01v-.1a.553.553,0,0,0-.01-.1v-.038a10.574,10.574,0,0,0-10.938-9.139C128.238,39.2,128.2,39.209,128.152,39.219Zm-4.608,28.1h-4.322V63h4.322Zm0-6.483h-4.322V57.059h4.322Zm0-5.931h-4.322V50.052h4.322ZM131.1,67.321h-5.4V63h5.4Zm0-6.483h-5.4V57.059h5.4Zm0-5.931h-5.4V50.052h5.4Zm5.94,12.414h-3.779V63h3.779Zm0-6.483h-3.779V57.059h3.779Zm0-5.931h-3.779V50.052h3.779Zm-.209-7.026H119.508c.581-2.161,2.485-6.321,8.511-6.321.048,0,.086-.1.133-.114.048.01.086.162.133.162C134.264,41.608,136.225,45.721,136.834,47.882Z" transform="translate(-58.257 -16.684)" fill="#175985"/>
      <path id="Path_533" data-name="Path 533" d="M217.54,60.746a1.075,1.075,0,0,0-1.076-1.076h-7.559a1.075,1.075,0,0,0-1.076,1.076V75.321a1.075,1.075,0,0,0,1.076,1.076h7.559a1.075,1.075,0,0,0,1.076-1.076Zm-7.559,1.076h5.4v5.94h-5.4Zm0,8.1h5.4v4.322h-5.4Z" transform="translate(-62.614 -17.668)" fill="#175985"/>
      <path id="Path_534" data-name="Path 534" d="M174.782,104.416a1.075,1.075,0,0,0-1.076-1.076H161.826a1.075,1.075,0,0,0-1.076,1.076v9.177a1.075,1.075,0,0,0,1.076,1.076h11.881a1.075,1.075,0,0,0,1.076-1.076ZM162.9,105.5h9.72v2.7H162.9Zm0,4.855h9.72v2.161H162.9Z" transform="translate(-60.354 -19.765)" fill="#175985"/>
      <path id="Path_535" data-name="Path 535" d="M87.563,147.181h10.8a1.076,1.076,0,0,0,0-2.151H88.6V133.691h34.014v2.161h-3.741c-.6,0-1.123.086-1.123.685v3.637h-3.2c-.6,0-1.123.086-1.123.685v4.179h-8.054a1.076,1.076,0,0,0,0,2.151h29.7a1.076,1.076,0,0,0,0-2.151H115.6v-2.7h36.718v2.7H140.474a1.076,1.076,0,1,0,0,2.151h61.013a1.076,1.076,0,0,0,0-2.151h-23.8V69.251l29.045-27.941,29.274,27.95V145.02H225.791a1.076,1.076,0,1,0,0,2.151h13.5a1.076,1.076,0,0,0,0-2.151h-1.123V74.287h5.445c.6,0,1.038-.885,1.038-1.476v-4.2a1.064,1.064,0,0,0-.3-.762l-6.4-6.407a1.113,1.113,0,0,0-.048-.19l-5.141-17.7V19.348c0-.6-.438-.685-1.038-.685H217.69c-.6,0-1.123.086-1.123.685V34.323h-6.083L207.656,31.3c-.01-.01-.029-.114-.038-.133-.038-.038-.086-.114-.124-.143s-.086-.086-.143-.1c-.019-.01-.029-.029-.038-.038l-.1-.029a1.04,1.04,0,0,0-.162-.048.769.769,0,0,0-.152-.01.924.924,0,0,0-.162.01.713.713,0,0,0-.152.038.363.363,0,0,0-.1.029c-.019.01-.029.019-.048.029a1.133,1.133,0,0,0-.143.086.612.612,0,0,0-.124.1c-.01.01-.029.219-.038.228l-3.37,3.57h-58.49L128.489,16.026a1.193,1.193,0,0,0-.828-.476,1,1,0,0,0-.838.324L98.6,48.822a1.02,1.02,0,0,0-.276.676v4.408c0,.6.524,1.476,1.123,1.476h4.817V72.25L86.83,90.423a1.439,1.439,0,0,0-.2,1.371c.171.4.571.857,1,.857h.952l1.894,7.616c.048.2.276.181.276.314v21.572c0,.152-.343.571-.4.838l-1.875,8.539h-.923c-.6,0-1.123.086-1.123.685v13.5C86.44,146.3,86.963,147.181,87.563,147.181ZM223.049,20.833h7.559V36.084l-.371-1.171c-.133-.466-.533-.581-1.019-.581h-6.169Zm-4.322,0h2.161v13.5h-2.161Zm9.682,15.651,3.6,12.423h-2.97a1.076,1.076,0,1,0,0,2.151h3.589l2.209,7.625L220.2,44.033h1.276a1.076,1.076,0,1,0,0-2.151h-3.437l-5.4-5.4Zm-20.477-2.009,34.557,34.586v3.075h-4.322V69.08a1.486,1.486,0,0,0-.267-1.161L207.932,39.254V34.475Zm-110.7,88.049c0-.352-.5-.181-.914-.181H96.15v-4.322h1.076v4.5ZM92.4,99.125l-1.59-6.483h6.264l-1.485,6.483Zm1.6,2.161v21.058H92.923V101.286Zm8.634,30.235H99.4v-13.5h3.237Zm4.865,0h-2.7v-13.5h2.7Zm5.94,0h-3.779v-13.5h3.779Zm2.694-9.291c0,.143-.276.333-.333.562l-.209.942v-5.7h.543Zm0-6.369H96.159V101.286h.3a1.09,1.09,0,0,0,1.057-.838l1.79-7.8h14.765l1.894,7.616c.038.152.181.086.181.209V115.86Zm.057,15.66,1.58-7.016h3.161l1.523,7.016Zm1.685-32.4-1.59-6.483h6.264l-1.485,6.483Zm1.5,2.161v21.058H118.3V101.286Zm2.428,21.058h-.267V101.286h.39a1.09,1.09,0,0,0,1.057-.838l1.79-7.8h19.173l1.894,7.616c0,.019-.01-.171-.01-.152v22.343a4.372,4.372,0,0,1-.124.543l-1.866,8.539h-1.257V101.981c0-.6-.438-.685-1.038-.685H126.432c-.6,0-1.123.086-1.123.685V131.54h-.647l-1.809-8.33A1.068,1.068,0,0,0,121.806,122.344Zm18.63-15.118v24.295H127.48V107.226h12.957Zm-12.966-2.161v-1.618h12.956v1.618Zm16.317,28.617.057,2.161H124.776v-2.161Zm4.208,6.483H119.911V138h28.084v2.161Zm27.541,4.855H154.468v-4.179c0-.6-.438-.685-1.038-.685h-3.284v-3.637c0-.6-.438-.685-1.038-.685H146l-.057-2.161h29.578V145.02Zm-24.59-45.9h-3.189l-1.59-6.483h6.264Zm.828,18.9h1.618v7.625l-.695-2.875a.971.971,0,0,0-.923-.809Zm-2.161-16.736v21.058h-1.618V101.286ZM147.652,124.5h3.189l1.7,7.016h-6.483Zm7.9,7.016v-13.5h3.237v13.5Zm5.4,0v-13.5h3.237v13.5Zm5.4,0v-13.5h2.7v13.5Zm9.187,0h-4.322v-13.5h4.322Zm0-15.66H151.774V100.886c.543,0,.952-.152,1.066-.638l1.809-7.606h20.877V115.86Zm30.235-81.385v4.769L175.859,68.014a1.087,1.087,0,0,0-.333.781v3.332H171.2V69.051ZM200.6,37.027,185.493,52.144h-4.522a1.076,1.076,0,1,0,0,2.151h2.361l-7.187,7.187a1.094,1.094,0,0,0-.581-.171h-4.322a1.076,1.076,0,1,0,0,2.151h2.913l-4.769,4.56c-.2.2-.333.276-.333.562v3.522H150.7V55.39h4.9c.6,0,1.038-.885,1.038-1.476V49.507c0-.257-.067-.3-.238-.5l-5.255-6.036h1.219a1.076,1.076,0,1,0,0-2.151h-3.046l-3.2-3.779H200.6Zm-100.12,16.2V49.9l27.132-31.73L154.478,49.9v3.332H150.7V49.507a1.055,1.055,0,0,0-.228-.695L128.432,22.576a1.287,1.287,0,0,0-1.828,0L104.537,48.812a1.1,1.1,0,0,0-.276.695v3.722ZM148.537,49.9V72.126H106.422V49.9L127.48,24.841Zm-42.811,24.39h69.809v2.7h-72.4ZM90.162,90.481l5.226-5.436a1.286,1.286,0,0,0,.267.038h5.4a1.076,1.076,0,0,0,0-2.151H97.425l3.627-3.779h74.474V80.77h-4.274a1.076,1.076,0,1,0,0,2.151h4.274v7.559ZM92.294,124.5h3.189l1.685,7.016H90.7Z" transform="translate(-56.785 -15.549)" fill="#175985"/>
      <path id="Path_536" data-name="Path 536" d="M167.536,50.481h5.94a1.076,1.076,0,1,0,0-2.151h-5.94a1.076,1.076,0,1,0,0,2.151Z" transform="translate(-60.628 -17.123)" fill="#175985"/>
      <path id="Path_537" data-name="Path 537" d="M156.82,62.446a1.075,1.075,0,0,0,1.076,1.076h3.237a1.076,1.076,0,1,0,0-2.151H157.9A1.069,1.069,0,0,0,156.82,62.446Z" transform="translate(-60.165 -17.749)" fill="#175985"/>
      <path id="Path_538" data-name="Path 538" d="M187.956,44.811h5.94a1.076,1.076,0,1,0,0-2.151h-5.94a1.076,1.076,0,1,0,0,2.151Z" transform="translate(-61.608 -16.851)" fill="#175985"/>
      <path id="Path_539" data-name="Path 539" d="M107.849,89.73h-2.7a1.076,1.076,0,1,0,0,2.151h2.7a1.076,1.076,0,0,0,0-2.151Z" transform="translate(-57.632 -19.111)" fill="#175985"/>
      <path id="Path_540" data-name="Path 540" d="M120.781,85.19h-4.855a1.076,1.076,0,0,0,0,2.151h4.855a1.076,1.076,0,0,0,0-2.151Z" transform="translate(-58.15 -18.893)" fill="#175985"/>
      <path id="Path_541" data-name="Path 541" d="M134.391,89.73h-4.855a1.076,1.076,0,1,0,0,2.151h4.855a1.075,1.075,0,0,0,1.076-1.076A1.063,1.063,0,0,0,134.391,89.73Z" transform="translate(-58.803 -19.111)" fill="#175985"/>
      <path id="Path_542" data-name="Path 542" d="M142.873,84.05h-5.4a1.076,1.076,0,1,0,0,2.151h5.4a1.076,1.076,0,1,0,0-2.151Z" transform="translate(-59.185 -18.838)" fill="#175985"/>
      <path id="Path_543" data-name="Path 543" d="M150.417,84.05h-2.161a1.076,1.076,0,1,0,0,2.151h2.161a1.076,1.076,0,1,0,0-2.151Z" transform="translate(-59.702 -18.838)" fill="#175985"/>
      <path id="Path_544" data-name="Path 544" d="M157.787,90.29h-2.161a1.076,1.076,0,1,0,0,2.151h2.161a1.076,1.076,0,1,0,0-2.151Z" transform="translate(-60.056 -19.138)" fill="#175985"/>
      <path id="Path_545" data-name="Path 545" d="M132.326,126.983a1.075,1.075,0,0,0,1.076-1.076v-4.322a1.076,1.076,0,0,0-2.151,0v4.322A1.075,1.075,0,0,0,132.326,126.983Z" transform="translate(-58.937 -20.589)" fill="#175985"/>
      <path id="Path_546" data-name="Path 546" d="M56.366,153.711h2.7a1.076,1.076,0,0,0,0-2.151h-2.7a1.076,1.076,0,1,0,0,2.151Z" transform="translate(-55.29 -22.08)" fill="#175985"/>
    </g>
    <g id="Group_119" data-name="Group 119" transform="translate(0 43.066)">
      <path id="Path_547" data-name="Path 547" d="M93.736,217.9H12.685A2.681,2.681,0,0,1,10,215.215V182.581A43.208,43.208,0,0,1,53.211,139.37h0a43.208,43.208,0,0,1,43.211,43.211v32.634A2.688,2.688,0,0,1,93.736,217.9Z" transform="translate(-10 -64.56)" fill="#175985" stroke="#175985" stroke-linecap="round" stroke-linejoin="round" stroke-miterlimit="10" stroke-width="5.635"/>
      <path id="Path_548" data-name="Path 548" d="M53.786,135.773h0A22.754,22.754,0,0,1,31.1,113.087V87.136A22.754,22.754,0,0,1,53.786,64.45h0A22.754,22.754,0,0,1,76.472,87.136V113.1A22.746,22.746,0,0,1,53.786,135.773Z" transform="translate(-11.013 -60.963)" fill="#fff" stroke="#175985" stroke-linecap="round" stroke-linejoin="round" stroke-miterlimit="10" stroke-width="5.635"/>
      <circle id="Ellipse_87" data-name="Ellipse 87" cx="3.046" cy="3.046" r="3.046" transform="translate(28.75 37.977)" fill="#175985"/>
      <circle id="Ellipse_88" data-name="Ellipse 88" cx="3.046" cy="3.046" r="3.046" transform="translate(50.979 37.977)" fill="#175985"/>
      <path id="Path_549" data-name="Path 549" d="M54.856,114.02a12.605,12.605,0,0,0-10.329,5.455c-.866,1.361.543,2.932,2.58,2.932H62.615c2.037,0,3.437-1.561,2.58-2.932A12.665,12.665,0,0,0,54.856,114.02Z" transform="translate(-11.645 -63.343)" fill="#175985"/>
      <path id="Path_550" data-name="Path 550" d="M52.752,139.26H64.576L54.094,217.047,44.27,139.26H55.437" transform="translate(-11.646 -64.555)" fill="#e6e6e6" stroke="#175985" stroke-linecap="round" stroke-linejoin="round" stroke-miterlimit="10" stroke-width="5.635"/>
      <line id="Line_31" data-name="Line 31" x2="72.427" transform="translate(6.235 31.789)" fill="#175985" stroke="#175985" stroke-linecap="round" stroke-linejoin="round" stroke-miterlimit="10" stroke-width="5.635"/>
      <path id="Path_551" data-name="Path 551" d="M52.818,64.484s.638-4.246-9.777-3.637a15.387,15.387,0,0,0-12.1,7.245C27.6,73.375,23.954,81.648,25,91.606H51.828Z" transform="translate(-10.711 -60.787)" fill="#175985" stroke="#175985" stroke-linecap="round" stroke-linejoin="round" stroke-miterlimit="10" stroke-width="5.51"/>
      <path id="Path_552" data-name="Path 552" d="M54.23,64.484s-.638-4.246,9.777-3.637a15.387,15.387,0,0,1,12.1,7.245c3.341,5.284,6.988,13.556,5.94,23.514H55.229Z" transform="translate(-12.123 -60.787)" fill="#175985" stroke="#175985" stroke-linecap="round" stroke-linejoin="round" stroke-miterlimit="10" stroke-width="5.51"/>
      <path id="Path_553" data-name="Path 553" d="M93.736,217.9H12.685A2.681,2.681,0,0,1,10,215.215V182.581A43.208,43.208,0,0,1,53.211,139.37h0a43.208,43.208,0,0,1,43.211,43.211v32.634A2.688,2.688,0,0,1,93.736,217.9Z" transform="translate(-10 -64.56)" fill="none" stroke="#175985" stroke-linecap="round" stroke-linejoin="round" stroke-miterlimit="10" stroke-width="5.635"/>
    </g>
    <g id="Group_121" data-name="Group 121" transform="translate(80.462 40.016)">
      <path id="Path_554" data-name="Path 554" d="M170.831,155.349a2.645,2.645,0,0,0,2.2,1.19,2.574,2.574,0,0,0,.6-.067,2.753,2.753,0,0,0,2.047-2.285c6.283-40.678,2.342-69.228-11.728-84.841C152.9,57.085,139.539,57.475,137.426,57.628c-2.056-.152-15-.543-25.8,11.414-14.013,15.527-17.916,44.172-11.586,85.145a2.661,2.661,0,0,0,2.647,2.351,2.687,2.687,0,0,0,2.256-1.276" transform="translate(-94.644 -57.584)" fill="#c7c7c9" stroke="#175985" stroke-linecap="round" stroke-linejoin="round" stroke-miterlimit="10" stroke-width="5.756"/>
      <path id="Path_555" data-name="Path 555" d="M160.992,88.28v25.961a22.754,22.754,0,0,1-22.686,22.686h0a22.754,22.754,0,0,1-22.686-22.686V88.28" transform="translate(-95.533 -59.058)" fill="#e6e6e6" stroke="#175985" stroke-linecap="round" stroke-linejoin="round" stroke-miterlimit="10" stroke-width="5.635"/>
      <path id="Path_556" data-name="Path 556" d="M143.5,64.982h0a27.629,27.629,0,0,0-5.436-.552h0A27.488,27.488,0,0,0,110.66,91.838V93.7A34.307,34.307,0,0,0,149.4,84.9a34.5,34.5,0,0,0,16.089,12.795V91.838A27.52,27.52,0,0,0,143.5,64.982Z" transform="translate(-95.295 -57.913)" fill="#c7c7c9"/>
      <path id="Path_557" data-name="Path 557" d="M110.66,94.746A34.307,34.307,0,0,0,149.4,85.94a34.5,34.5,0,0,0,16.089,12.795" transform="translate(-95.295 -58.946)" fill="none" stroke="#175985" stroke-linecap="round" stroke-linejoin="round" stroke-miterlimit="10" stroke-width="5.756"/>
      <path id="Path_558" data-name="Path 558" d="M169.013,153.38a43.066,43.066,0,0,1,11.928,29.807V215.82a2.681,2.681,0,0,1-2.685,2.685H97.2a2.681,2.681,0,0,1-2.685-2.685V183.186a43.054,43.054,0,0,1,13.118-31.006" transform="translate(-94.52 -62.126)" fill="#61ba45" stroke="#175985" stroke-linecap="round" stroke-linejoin="round" stroke-miterlimit="10" stroke-width="5.635"/>
      <circle id="Ellipse_89" data-name="Ellipse 89" cx="3.046" cy="3.046" r="3.046" transform="translate(28.75 41.027)" fill="#175985"/>
      <circle id="Ellipse_90" data-name="Ellipse 90" cx="3.046" cy="3.046" r="3.046" transform="translate(50.979 41.027)" fill="#175985"/>
      <g id="Group_120" data-name="Group 120" transform="translate(12.823 77.849)">
        <path id="Path_559" data-name="Path 559" d="M169.66,152.764a43.1,43.1,0,0,0-31.282-13.4h0a43.033,43.033,0,0,0-30.092,12.2l-.3,1.247,30.968,13.271Z" transform="translate(-107.99 -139.36)" fill="#e6e6e6" stroke="#175985" stroke-linecap="round" stroke-linejoin="round" stroke-miterlimit="10" stroke-width="5.635"/>
      </g>
    </g>
    <g id="Group_128" data-name="Group 128" transform="translate(189.254 4.266)">
      <g id="Group_126" data-name="Group 126" transform="translate(12.528)">
        <path id="Path_560" data-name="Path 560" d="M238.661,55.219a13.669,13.669,0,1,1,22.448-.324" transform="translate(-222.639 -20.681)" fill="#61ba45" stroke="#175985" stroke-linecap="round" stroke-linejoin="round" stroke-miterlimit="10" stroke-width="4.582"/>
        <g id="Group_122" data-name="Group 122" transform="translate(27.036)">
          <line id="Line_32" data-name="Line 32" y2="7.054" fill="none" stroke="#175985" stroke-linecap="round" stroke-linejoin="round" stroke-miterlimit="10" stroke-width="4.582"/>
        </g>
        <g id="Group_123" data-name="Group 123" transform="translate(0 27.036)">
          <line id="Line_33" data-name="Line 33" x1="7.054" transform="translate(45.848)" fill="none" stroke="#175985" stroke-linecap="round" stroke-linejoin="round" stroke-miterlimit="10" stroke-width="4.582"/>
          <line id="Line_34" data-name="Line 34" x2="7.054" fill="none" stroke="#175985" stroke-linecap="round" stroke-linejoin="round" stroke-miterlimit="10" stroke-width="4.582"/>
        </g>
        <g id="Group_124" data-name="Group 124" transform="translate(7.749 8.33)">
          <line id="Line_35" data-name="Line 35" x2="4.988" y2="4.988" fill="none" stroke="#175985" stroke-linecap="round" stroke-linejoin="round" stroke-miterlimit="10" stroke-width="4.582"/>
        </g>
        <g id="Group_125" data-name="Group 125" transform="translate(40.164 8.33)">
          <line id="Line_36" data-name="Line 36" x1="4.988" y2="4.988" fill="none" stroke="#175985" stroke-linecap="round" stroke-linejoin="round" stroke-miterlimit="10" stroke-width="4.582"/>
        </g>
      </g>
      <g id="Group_127" data-name="Group 127" transform="translate(0 34.681)">
        <path id="Path_561" data-name="Path 561" d="M313.49,108.8H208.8l13.08-52.34H300.4Z" transform="translate(-208.8 -56.46)" fill="#f2f2f2" stroke="#175985" stroke-linecap="round" stroke-linejoin="round" stroke-miterlimit="10" stroke-width="4.582"/>
        <line id="Line_37" data-name="Line 37" y2="52.34" transform="translate(52.34 0)" fill="none" stroke="#175985" stroke-linecap="round" stroke-linejoin="round" stroke-miterlimit="10" stroke-width="4.582"/>
        <line id="Line_38" data-name="Line 38" x1="7.997" y2="52.34" transform="translate(24.352 0)" fill="none" stroke="#175985" stroke-linecap="round" stroke-linejoin="round" stroke-miterlimit="10" stroke-width="4.582"/>
        <line id="Line_39" data-name="Line 39" x2="7.997" y2="52.34" transform="translate(72.341 0)" fill="none" stroke="#175985" stroke-linecap="round" stroke-linejoin="round" stroke-miterlimit="10" stroke-width="4.582"/>
        <line id="Line_40" data-name="Line 40" x2="82.88" transform="translate(10.9 13.08)" fill="none" stroke="#175985" stroke-linecap="round" stroke-linejoin="round" stroke-miterlimit="10" stroke-width="4.582"/>
        <line id="Line_41" data-name="Line 41" x2="87.249" transform="translate(8.72 26.17)" fill="none" stroke="#175985" stroke-linecap="round" stroke-linejoin="round" stroke-miterlimit="10" stroke-width="4.582"/>
        <line id="Line_42" data-name="Line 42" x2="95.969" transform="translate(4.36 39.26)" fill="none" stroke="#175985" stroke-linecap="round" stroke-linejoin="round" stroke-miterlimit="10" stroke-width="4.582"/>
        <rect id="Rectangle_275" data-name="Rectangle 275" width="17.45" height="10.91" transform="translate(43.62 52.34)" fill="#949499" stroke="#175985" stroke-linecap="round" stroke-linejoin="round" stroke-miterlimit="10" stroke-width="4.582"/>
        <rect id="Rectangle_276" data-name="Rectangle 276" width="45.8" height="6.54" transform="translate(30.53 63.25)" fill="#949499" stroke="#175985" stroke-linecap="round" stroke-linejoin="round" stroke-miterlimit="10" stroke-width="4.582"/>
      </g>
    </g>
  </g>
</svg>
