<svg xmlns="http://www.w3.org/2000/svg" width="1008.46" height="119.46" viewBox="0 0 1008.46 119.46">
  <g id="NAR_HSA_WealthGains_Webtool_Illos_v1-01" transform="translate(-1.61 -9.04)">
    <g id="Layer_2">
      <path id="Path_289" data-name="Path 289" d="M981.88,124.14H870.67V89.67h40.47l16.18-21.21,16.33,21.21h38.23Z" fill="#2b7dab"/>
      <path id="Path_290" data-name="Path 290" d="M715.72,82.55h67.12v31.26H715.72l2-7.46V89.32Z" fill="#949499"/>
      <rect id="Rectangle_156" data-name="Rectangle 156" width="52.33" height="8.51" transform="translate(598.02 115.49)" fill="#c7c7c9"/>
      <rect id="Rectangle_157" data-name="Rectangle 157" width="67.12" height="29.72" transform="translate(578.91 85.21)" fill="#2b7dab"/>
      <rect id="Rectangle_158" data-name="Rectangle 158" width="15.49" height="27.49" transform="translate(465.88 96.51)" fill="#fff"/>
      <path id="Path_291" data-name="Path 291" d="M252.02,124.42H229.51V62.46l22.51,4Z" fill="#c7c7c9"/>
      <rect id="Rectangle_159" data-name="Rectangle 159" width="58.05" height="24.14" transform="translate(60.12 82.14)" fill="#fff"/>
      <rect id="Rectangle_160" data-name="Rectangle 160" width="10.33" height="17.58" transform="translate(64.02 88.97)" fill="#61ba45"/>
      <rect id="Rectangle_161" data-name="Rectangle 161" width="14.51" height="22.33" transform="translate(233.42 101.81)" fill="#61ba45"/>
      <rect id="Rectangle_162" data-name="Rectangle 162" width="29.86" height="24.56" transform="translate(397.79 99.3)" fill="#61ba45"/>
      <rect id="Rectangle_163" data-name="Rectangle 163" width="11.72" height="18.7" transform="translate(578.07 95.39)" fill="#61ba45"/>
      <rect id="Rectangle_164" data-name="Rectangle 164" width="11.44" height="20.44" transform="translate(744.53 93.58)" fill="#61ba45"/>
      <rect id="Rectangle_165" data-name="Rectangle 165" width="13.33" height="23.65" transform="translate(920.35 96.79)" fill="#61ba45"/>
      <g id="Group_89" data-name="Group 89">
        <path id="Path_292" data-name="Path 292" d="M325.99,40.74l1.07-1.89c.22-.4.6-.57.94-.32a13.89,13.89,0,0,0,2.88,1.49L330.9,36c-2.16-.87-5.04-2.63-5.04-5.58,0-2.48,1.76-4.59,5.06-4.91v-.79a.469.469,0,0,1,.47-.47h.42a.469.469,0,0,1,.47.47v.82a9.4,9.4,0,0,1,4.61,1.81.62.62,0,0,1,.15.79l-1.44,2.08a.458.458,0,0,1-.67.15,22.328,22.328,0,0,0-2.65-1.46v3.5c1.93.77,5.26,2.43,5.26,5.8,0,2.55-2.03,4.81-5.31,5.11V45.9a.466.466,0,0,1-.47.45h-.42a.466.466,0,0,1-.47-.45V43.32a7.413,7.413,0,0,1-4.76-1.89C325.87,41.19,325.77,41.09,325.99,40.74Zm4.84-12.15a1.437,1.437,0,0,0-1.36,1.29,2.229,2.229,0,0,0,1.36,1.93Zm2.8,10.12a2.581,2.581,0,0,0-1.31-2.08v3.62A1.6,1.6,0,0,0,333.63,38.71Z" fill="#61ba45"/>
      </g>
      <g id="Group_90" data-name="Group 90">
        <path id="Path_293" data-name="Path 293" d="M510.41,78.13l1.07-1.89c.22-.4.6-.57.94-.32a13.891,13.891,0,0,0,2.88,1.49l.03-4.02c-2.16-.87-5.04-2.63-5.04-5.58,0-2.48,1.76-4.59,5.06-4.91v-.79a.469.469,0,0,1,.47-.47h.42a.469.469,0,0,1,.47.47v.82a9.4,9.4,0,0,1,4.61,1.81.62.62,0,0,1,.15.79l-1.44,2.08a.458.458,0,0,1-.67.15,22.325,22.325,0,0,0-2.65-1.46v3.5c1.93.77,5.26,2.43,5.26,5.8,0,2.55-2.03,4.81-5.31,5.11v2.58a.466.466,0,0,1-.47.45h-.42a.466.466,0,0,1-.47-.45V80.71a7.413,7.413,0,0,1-4.76-1.89C510.28,78.58,510.18,78.48,510.41,78.13Zm4.83-12.15a1.437,1.437,0,0,0-1.36,1.29,2.229,2.229,0,0,0,1.36,1.93Zm2.81,10.12a2.581,2.581,0,0,0-1.31-2.08v3.62A1.614,1.614,0,0,0,518.05,76.1Z" fill="#61ba45"/>
      </g>
      <g id="Group_91" data-name="Group 91">
        <path id="Path_294" data-name="Path 294" d="M678.59,37.87l1.07-1.89c.22-.4.6-.57.94-.32a13.891,13.891,0,0,0,2.88,1.49l.03-4.02c-2.16-.87-5.04-2.63-5.04-5.58,0-2.48,1.76-4.59,5.06-4.91v-.79a.469.469,0,0,1,.47-.47h.42a.469.469,0,0,1,.47.47v.82a9.4,9.4,0,0,1,4.61,1.81.62.62,0,0,1,.15.79l-1.44,2.08a.458.458,0,0,1-.67.15,22.324,22.324,0,0,0-2.65-1.46v3.5c1.93.77,5.26,2.43,5.26,5.8,0,2.55-2.03,4.81-5.31,5.11v2.58a.466.466,0,0,1-.47.45h-.42a.466.466,0,0,1-.47-.45V40.45a7.413,7.413,0,0,1-4.76-1.89C678.46,38.32,678.36,38.22,678.59,37.87Zm4.83-12.15a1.437,1.437,0,0,0-1.36,1.29,2.229,2.229,0,0,0,1.36,1.93Zm2.81,10.12a2.581,2.581,0,0,0-1.31-2.08v3.62A1.614,1.614,0,0,0,686.23,35.84Z" fill="#61ba45"/>
      </g>
      <g id="Group_92" data-name="Group 92">
        <path id="Path_295" data-name="Path 295" d="M851.96,59.95l1.07-1.89c.22-.4.6-.57.94-.32a13.891,13.891,0,0,0,2.88,1.49l.03-4.02c-2.16-.87-5.04-2.63-5.04-5.58,0-2.48,1.76-4.59,5.06-4.91v-.79a.469.469,0,0,1,.47-.47h.42a.469.469,0,0,1,.47.47v.82a9.4,9.4,0,0,1,4.61,1.81.62.62,0,0,1,.15.79l-1.44,2.08a.458.458,0,0,1-.67.15,22.324,22.324,0,0,0-2.65-1.46v3.5c1.93.77,5.26,2.43,5.26,5.8,0,2.55-2.03,4.81-5.31,5.11v2.58a.466.466,0,0,1-.47.45h-.42a.466.466,0,0,1-.47-.45V62.53a7.413,7.413,0,0,1-4.76-1.89C851.84,60.4,851.74,60.3,851.96,59.95Zm4.84-12.16a1.437,1.437,0,0,0-1.36,1.29,2.229,2.229,0,0,0,1.36,1.93Zm2.8,10.12a2.581,2.581,0,0,0-1.31-2.08v3.62A1.6,1.6,0,0,0,859.6,57.91Z" fill="#61ba45"/>
      </g>
      <g id="Group_93" data-name="Group 93">
        <path id="Path_296" data-name="Path 296" d="M975.99,30.73l1.07-1.89c.22-.4.6-.57.94-.32a13.891,13.891,0,0,0,2.88,1.49l.03-4.02c-2.16-.87-5.04-2.63-5.04-5.58,0-2.48,1.76-4.59,5.06-4.91v-.8a.469.469,0,0,1,.47-.47h.42a.469.469,0,0,1,.47.47v.82a9.4,9.4,0,0,1,4.61,1.81.62.62,0,0,1,.15.79l-1.44,2.08a.458.458,0,0,1-.67.15,22.325,22.325,0,0,0-2.65-1.46v3.5c1.93.77,5.26,2.43,5.26,5.8,0,2.55-2.03,4.81-5.31,5.11v2.58a.466.466,0,0,1-.47.45h-.42a.466.466,0,0,1-.47-.45V33.3a7.413,7.413,0,0,1-4.76-1.89C975.87,31.17,975.77,31.08,975.99,30.73Zm4.84-12.16a1.437,1.437,0,0,0-1.36,1.29,2.229,2.229,0,0,0,1.36,1.93Zm2.8,10.12a2.581,2.581,0,0,0-1.31-2.08v3.62A1.6,1.6,0,0,0,983.63,28.69Z" fill="#61ba45"/>
      </g>
      <g id="Group_94" data-name="Group 94">
        <path id="Path_297" data-name="Path 297" d="M138.33,25.53l1.07-1.89c.22-.4.6-.57.94-.32a13.89,13.89,0,0,0,2.88,1.49l.03-4.02c-2.16-.87-5.04-2.63-5.04-5.58,0-2.48,1.76-4.59,5.06-4.91V9.51a.469.469,0,0,1,.47-.47h.42a.469.469,0,0,1,.47.47v.82a9.4,9.4,0,0,1,4.61,1.81.62.62,0,0,1,.15.79l-1.44,2.08a.458.458,0,0,1-.67.15,22.328,22.328,0,0,0-2.65-1.46v3.5c1.93.77,5.26,2.43,5.26,5.8,0,2.55-2.03,4.81-5.31,5.11v2.58a.466.466,0,0,1-.47.45h-.42a.466.466,0,0,1-.47-.45V28.11a7.413,7.413,0,0,1-4.76-1.89C138.2,25.98,138.11,25.88,138.33,25.53Zm4.84-12.15a1.437,1.437,0,0,0-1.36,1.29,2.229,2.229,0,0,0,1.36,1.93Zm2.8,10.12a2.581,2.581,0,0,0-1.31-2.08v3.62A1.614,1.614,0,0,0,145.97,23.5Z" fill="#61ba45"/>
      </g>
      <rect id="Rectangle_166" data-name="Rectangle 166" width="103.26" height="18.14" transform="translate(22.86 106.14)" fill="#2b7dab"/>
      <rect id="Rectangle_167" data-name="Rectangle 167" width="93.25" height="2.99" transform="translate(27.86 43.62)" fill="#2b7dab"/>
      <rect id="Rectangle_168" data-name="Rectangle 168" width="93.25" height="2.99" transform="translate(27.86 59.81)" fill="#2b7dab"/>
      <rect id="Rectangle_169" data-name="Rectangle 169" width="66.15" height="2.98" transform="translate(59.96 72.51)" fill="#2b7dab"/>
      <rect id="Rectangle_170" data-name="Rectangle 170" width="66.15" height="5.95" transform="translate(59.96 76)" fill="#949499"/>
      <path id="Path_298" data-name="Path 298" d="M22.66,99.7H5.68l9.51-26.91,7.47,21.07Z" fill="#61ba45"/>
      <path id="Path_299" data-name="Path 299" d="M142.7,98.86H123.73l9.5-26.91,7.47,21.07Z" fill="#61ba45"/>
      <rect id="Rectangle_171" data-name="Rectangle 171" width="37.24" height="6.68" transform="translate(22.57 72.51)" fill="#949499"/>
      <rect id="Rectangle_172" data-name="Rectangle 172" width="37.24" height="4.68" transform="translate(22.57 101.72)" fill="#949499"/>
      <path id="Path_300" data-name="Path 300" d="M121.12,59.84H27.86l2-12.73h89.26Z" fill="#c7c7c9"/>
      <path id="Path_301" data-name="Path 301" d="M125.88,72.26H23.09l5.12-9.52h93.55Z" fill="#c7c7c9"/>
      <rect id="Rectangle_173" data-name="Rectangle 173" width="18.7" height="4.66" transform="translate(59.84 106.36)" fill="#f2f2f2"/>
      <rect id="Rectangle_174" data-name="Rectangle 174" width="26.43" height="3.9" transform="translate(55.97 111.12)" fill="#f2f2f2"/>
      <rect id="Rectangle_175" data-name="Rectangle 175" width="31.51" height="4.19" transform="translate(53.43 114.83)" fill="#f2f2f2"/>
      <rect id="Rectangle_176" data-name="Rectangle 176" width="38.49" height="5" transform="translate(49.94 119.36)" fill="#f2f2f2"/>
      <rect id="Rectangle_177" data-name="Rectangle 177" width="3.07" height="24.28" transform="translate(82.3 81.86)" fill="#949499"/>
      <rect id="Rectangle_178" data-name="Rectangle 178" width="3.35" height="24.28" transform="translate(100.58 81.86)" fill="#949499"/>
      <rect id="Rectangle_179" data-name="Rectangle 179" width="3.21" height="24.56" transform="translate(118.44 81.72)" fill="#949499"/>
      <rect id="Rectangle_180" data-name="Rectangle 180" width="8.51" height="12.56" transform="translate(128.91 111.72)" fill="#949499"/>
      <rect id="Rectangle_181" data-name="Rectangle 181" width="8.51" height="12.42" transform="translate(10.44 112)" fill="#949499"/>
      <rect id="Rectangle_182" data-name="Rectangle 182" width="37.12" height="22.88" transform="translate(22.86 78.65)" fill="#fff"/>
      <rect id="Rectangle_183" data-name="Rectangle 183" width="14.14" height="2.98" transform="translate(233.6 99.3)" fill="#2b7dab"/>
      <rect id="Rectangle_184" data-name="Rectangle 184" width="22.33" height="4.28" transform="translate(229.51 69.16)" fill="#f2f2f2"/>
      <rect id="Rectangle_185" data-name="Rectangle 185" width="23.07" height="4.28" transform="translate(229.14 77.16)" fill="#949499"/>
      <rect id="Rectangle_186" data-name="Rectangle 186" width="21.4" height="4.84" transform="translate(229.88 84.53)" fill="#f2f2f2"/>
      <rect id="Rectangle_187" data-name="Rectangle 187" width="22.88" height="3.91" transform="translate(229.14 89.81)" fill="#949499"/>
      <rect id="Rectangle_188" data-name="Rectangle 188" width="22.51" height="3.72" transform="translate(229.51 93.53)" fill="#f2f2f2"/>
      <rect id="Rectangle_189" data-name="Rectangle 189" width="3.56" height="4.33" transform="translate(248.42 100.9)" fill="#f2f2f2"/>
      <rect id="Rectangle_190" data-name="Rectangle 190" width="3.14" height="3.7" transform="translate(229.79 100.97)" fill="#f2f2f2"/>
      <rect id="Rectangle_191" data-name="Rectangle 191" width="3" height="2.65" transform="translate(248.42 109.62)" fill="#949499"/>
      <rect id="Rectangle_192" data-name="Rectangle 192" width="3.28" height="2.58" transform="translate(229.65 109.62)" fill="#949499"/>
      <rect id="Rectangle_193" data-name="Rectangle 193" width="3.28" height="4.12" transform="translate(248.35 112.76)" fill="#f2f2f2"/>
      <rect id="Rectangle_194" data-name="Rectangle 194" width="3.49" height="3.42" transform="translate(229.51 113.11)" fill="#f2f2f2"/>
      <rect id="Rectangle_195" data-name="Rectangle 195" width="3.42" height="2.86" transform="translate(229.65 121)" fill="#949499"/>
      <rect id="Rectangle_196" data-name="Rectangle 196" width="3.84" height="3.07" transform="translate(248.14 120.86)" fill="#949499"/>
      <path id="Path_302" data-name="Path 302" d="M169.6,70.46l59.54-14v67.21H169.6Z" fill="#c7c7c9"/>
      <path id="Path_303" data-name="Path 303" d="M302.63,75.93l-50.98-9v57h50.98Z" fill="#c7c7c9"/>
      <rect id="Rectangle_197" data-name="Rectangle 197" width="34.6" height="3.35" transform="translate(259.84 91.3)" fill="#2b7dab"/>
      <rect id="Rectangle_198" data-name="Rectangle 198" width="47.44" height="3.35" transform="translate(175.37 91.11)" fill="#2b7dab"/>
      <path id="Path_304" data-name="Path 304" d="M155.28,67.86v6.51l88-21.21-.19-6.14Z" fill="#2b7dab"/>
      <path id="Path_305" data-name="Path 305" d="M315.84,78.09l-.38-5.4L229.14,56.46l.37,6Z" fill="#2b7dab"/>
      <rect id="Rectangle_199" data-name="Rectangle 199" width="30.51" height="5.21" transform="translate(262.26 80.88)" fill="#949499"/>
      <rect id="Rectangle_200" data-name="Rectangle 200" width="41.67" height="6.7" transform="translate(178.79 76.79)" fill="#949499"/>
      <circle id="Ellipse_47" data-name="Ellipse 47" cx="7.81" cy="7.81" r="7.81" transform="translate(172.4 101.16)" fill="#61ba45"/>
      <circle id="Ellipse_48" data-name="Ellipse 48" cx="6.14" cy="6.14" r="6.14" transform="translate(167.19 110.46)" fill="#61ba45"/>
      <circle id="Ellipse_49" data-name="Ellipse 49" cx="5.4" cy="5.4" r="5.4" transform="translate(183.18 111.76)" fill="#61ba45"/>
      <path id="Path_306" data-name="Path 306" d="M192.72,123.74H167.14l-2-7.51h29.58Z" fill="#2b7dab"/>
      <circle id="Ellipse_50" data-name="Ellipse 50" cx="7.81" cy="7.81" r="7.81" transform="translate(284.4 101.16)" fill="#61ba45"/>
      <circle id="Ellipse_51" data-name="Ellipse 51" cx="6.14" cy="6.14" r="6.14" transform="translate(279.19 110.46)" fill="#61ba45"/>
      <circle id="Ellipse_52" data-name="Ellipse 52" cx="5.4" cy="5.4" r="5.4" transform="translate(295.18 111.76)" fill="#61ba45"/>
      <path id="Path_307" data-name="Path 307" d="M304.72,123.74H279.14l-2-7.51h29.58Z" fill="#2b7dab"/>
      <rect id="Rectangle_201" data-name="Rectangle 201" width="41.86" height="7.95" transform="translate(178.44 83.25)" fill="#fff"/>
      <rect id="Rectangle_202" data-name="Rectangle 202" width="30.14" height="5.72" transform="translate(262.3 86.04)" fill="#fff"/>
      <rect id="Rectangle_203" data-name="Rectangle 203" width="74.09" height="9.77" transform="translate(355.79 89.95)" fill="#2b7dab"/>
      <rect id="Rectangle_204" data-name="Rectangle 204" width="79.95" height="10.6" transform="translate(385.79 56.46)" fill="#2b7dab"/>
      <rect id="Rectangle_205" data-name="Rectangle 205" width="6.14" height="58.47" transform="translate(459.46 65.11)" fill="#2b7dab"/>
      <rect id="Rectangle_206" data-name="Rectangle 206" width="5.16" height="42.28" transform="translate(481.65 70.58)" fill="#2b7dab"/>
      <rect id="Rectangle_207" data-name="Rectangle 207" width="17.02" height="7.4" transform="translate(466.02 69.86)" fill="#2b7dab"/>
      <rect id="Rectangle_208" data-name="Rectangle 208" width="51.21" height="4.6" transform="translate(429.74 92.18)" fill="#2b7dab"/>
      <rect id="Rectangle_209" data-name="Rectangle 209" width="3.63" height="17.86" transform="translate(396.53 67.21)" fill="#2b7dab"/>
      <rect id="Rectangle_210" data-name="Rectangle 210" width="4.19" height="18.14" transform="translate(424.72 67.21)" fill="#2b7dab"/>
      <rect id="Rectangle_211" data-name="Rectangle 211" width="4.6" height="24" transform="translate(393.46 99.3)" fill="#2b7dab"/>
      <rect id="Rectangle_212" data-name="Rectangle 212" width="3.77" height="24.98" transform="translate(364.3 99.16)" fill="#2b7dab"/>
      <rect id="Rectangle_213" data-name="Rectangle 213" width="4.05" height="24.98" transform="translate(372.12 99.44)" fill="#2b7dab"/>
      <circle id="Ellipse_53" data-name="Ellipse 53" cx="6.28" cy="6.28" r="6.28" transform="translate(348.25 114.65)" fill="#61ba45"/>
      <circle id="Ellipse_54" data-name="Ellipse 54" cx="4.74" cy="4.74" r="4.74" transform="translate(465.47 117.3)" fill="#61ba45"/>
      <circle id="Ellipse_55" data-name="Ellipse 55" cx="7.26" cy="7.26" r="7.26" transform="translate(477.88 112.55)" fill="#61ba45"/>
      <circle id="Ellipse_56" data-name="Ellipse 56" cx="2.93" cy="2.93" r="2.93" transform="translate(494.49 120.93)" fill="#61ba45"/>
      <rect id="Rectangle_214" data-name="Rectangle 214" width="24.98" height="18.7" transform="translate(400.02 66.93)" fill="#fff"/>
      <rect id="Rectangle_215" data-name="Rectangle 215" width="30.16" height="25.12" transform="translate(429.3 66.93)" fill="#fff"/>
      <rect id="Rectangle_216" data-name="Rectangle 216" width="15.21" height="15.77" transform="translate(466.3 76.97)" fill="#fff"/>
      <path id="Path_308" data-name="Path 308" d="M428.07,124.55h30.84V96.65H429.88v2.79l-1.81.42Z" fill="#fff"/>
      <path id="Path_309" data-name="Path 309" d="M563.56,67.62h73.11L602.49,27.58Z" fill="#2b7dab"/>
      <path id="Path_310" data-name="Path 310" d="M545.42,84.93v35.44h32.79V85.07L563.56,67.63C563.56,67.62,544.86,84.93,545.42,84.93Z" fill="#2b7dab"/>
      <path id="Path_311" data-name="Path 311" d="M602.63,22l-.14,5.58L545.42,84.93h-3.77Z" fill="#c7c7c9"/>
      <path id="Path_312" data-name="Path 312" d="M649.09,81.72l5.44-.14L602.63,22l-.14,5.58Z" fill="#c7c7c9"/>
      <path id="Path_313" data-name="Path 313" d="M629.56,81.16l19.53.56-12.42-14.1H563.56l12.28,14.1Z" fill="#c7c7c9"/>
      <path id="Path_314" data-name="Path 314" d="M576.25,81.44h72.84v4.05H578.25Z" fill="#f2f2f2"/>
      <rect id="Rectangle_217" data-name="Rectangle 217" width="13.26" height="2.23" transform="translate(578.49 93.72)" fill="#f2f2f2"/>
      <rect id="Rectangle_218" data-name="Rectangle 218" width="6.84" height="3.91" transform="translate(598.02 110.88)" fill="#f2f2f2"/>
      <rect id="Rectangle_219" data-name="Rectangle 219" width="6.56" height="2.93" transform="translate(616.86 111.16)" fill="#f2f2f2"/>
      <rect id="Rectangle_220" data-name="Rectangle 220" width="6" height="3.63" transform="translate(634.16 111.16)" fill="#f2f2f2"/>
      <path id="Path_315" data-name="Path 315" d="M603.25,111.3h-3.34l-3-25.95h9.34Z" fill="#c7c7c9"/>
      <path id="Path_316" data-name="Path 316" d="M621.95,111.3H618.6l-3-25.95h9.35Z" fill="#c7c7c9"/>
      <path id="Path_317" data-name="Path 317" d="M638.84,111.3h-3.35l-3-25.95h9.35Z" fill="#c7c7c9"/>
      <rect id="Rectangle_221" data-name="Rectangle 221" width="2.23" height="28.88" transform="translate(646.58 85.62)" fill="#f2f2f2"/>
      <rect id="Rectangle_222" data-name="Rectangle 222" width="32.23" height="4.19" transform="translate(545.98 120.23)" fill="#c7c7c9"/>
      <rect id="Rectangle_223" data-name="Rectangle 223" width="18.98" height="2.23" transform="translate(593.14 46.14)" fill="#c7c7c9"/>
      <circle id="Ellipse_57" data-name="Ellipse 57" cx="2.93" cy="2.93" r="2.93" transform="translate(599.56 35.67)" fill="#fff"/>
      <rect id="Rectangle_224" data-name="Rectangle 224" width="16.05" height="13.95" transform="translate(594.25 48.79)" fill="#fff"/>
      <ellipse id="Ellipse_58" data-name="Ellipse 58" cx="8.51" cy="6.28" rx="8.51" ry="6.28" transform="translate(553.79 87.23)" fill="#c7c7c9"/>
      <rect id="Rectangle_225" data-name="Rectangle 225" width="17.44" height="16.33" transform="translate(553.51 94.14)" fill="#fff"/>
      <rect id="Rectangle_226" data-name="Rectangle 226" width="3.91" height="18.42" transform="translate(525.05 105.72)" fill="#949499"/>
      <rect id="Rectangle_227" data-name="Rectangle 227" width="4.19" height="15.77" transform="translate(528.25 108.51)" fill="#949499"/>
      <rect id="Rectangle_228" data-name="Rectangle 228" width="4.05" height="17.3" transform="translate(541.23 106.83)" fill="#949499"/>
      <rect id="Rectangle_229" data-name="Rectangle 229" width="4.6" height="20.09" transform="translate(537.46 103.35)" fill="#949499"/>
      <rect id="Rectangle_230" data-name="Rectangle 230" width="4.33" height="18.14" transform="translate(532.86 105.72)" fill="#949499"/>
      <rect id="Rectangle_231" data-name="Rectangle 231" width="4.47" height="19.81" transform="translate(666.81 103.9)" fill="#949499"/>
      <rect id="Rectangle_232" data-name="Rectangle 232" width="5.72" height="22.88" transform="translate(660.81 101.25)" fill="#949499"/>
      <rect id="Rectangle_233" data-name="Rectangle 233" width="4.74" height="18.14" transform="translate(657.88 105.86)" fill="#949499"/>
      <rect id="Rectangle_234" data-name="Rectangle 234" width="5.58" height="20.79" transform="translate(651.88 103.35)" fill="#949499"/>
      <rect id="Rectangle_235" data-name="Rectangle 235" width="3.21" height="16.88" transform="translate(650.63 107.25)" fill="#949499"/>
      <rect id="Rectangle_236" data-name="Rectangle 236" width="2.23" height="8.23" transform="translate(648.67 106.83)" fill="#949499"/>
      <rect id="Rectangle_237" data-name="Rectangle 237" width="19.95" height="3.35" transform="translate(578.35 113.81)" fill="#f2f2f2"/>
      <rect id="Rectangle_238" data-name="Rectangle 238" width="23.3" height="2.23" transform="translate(578.63 117.58)" fill="#f2f2f2"/>
      <rect id="Rectangle_239" data-name="Rectangle 239" width="26.23" height="3.35" transform="translate(578.35 120.79)" fill="#f2f2f2"/>
      <path id="Path_318" data-name="Path 318" d="M829.51,64.88,806.25,42.55,782.63,64.88v59.35h46.88Z" fill="#949499"/>
      <path id="Path_319" data-name="Path 319" d="M762.16,49.57,745.64,30.09,728.86,49.57V68.35h33.3Z" fill="#949499"/>
      <rect id="Rectangle_240" data-name="Rectangle 240" width="10.98" height="12.47" transform="translate(814.07 26.56)" fill="#2b7dab"/>
      <path id="Path_320" data-name="Path 320" d="M723.84,54.09l4.09-.19.93-4.33,16.78-19.48,16.52,19.48.56,4.15h3.91l.09-3.68L745.37,24.79,723.6,50.11Z" fill="#2b7dab"/>
      <path id="Path_321" data-name="Path 321" d="M782.84,68.18l.27-3.21,22.68-21.83,23.72,21.74-.07,3.3,4.67-.07.07-3.69-5.72-5.73-3.42-13.25-.06-18.07-10.61.14.28,11.3-5.79.21-2.72-2.09-2.86,2.51-44.79.21,8.23,10.39-.09,3.68h-3.91l-.56,14.63Z" fill="#2b7dab"/>
      <path id="Path_322" data-name="Path 322" d="M782.98,72.02l-.07,10.4-67.82-.07,9.7-10.61Z" fill="#2b7dab"/>
      <path id="Path_323" data-name="Path 323" d="M782.84,68.18l-54.42.28-3.14,3.14,57.7.42Z" fill="#2b7dab"/>
      <rect id="Rectangle_241" data-name="Rectangle 241" width="11.37" height="2.93" transform="translate(744.53 90.51)" fill="#2b7dab"/>
      <path id="Path_324" data-name="Path 324" d="M715.72,82.55l2,6.77v17.03l-2,7.46,7.46.21-2.09-7.4-.77-.9.14-17.1.84.07,1.68-6.2Z" fill="#2b7dab"/>
      <path id="Path_325" data-name="Path 325" d="M735.18,82.55l2,6.77v17.03l-2,7.46,7.47.21-2.09-7.4-.77-.9.14-17.1.84.07,1.67-6.2Z" fill="#2b7dab"/>
      <path id="Path_326" data-name="Path 326" d="M758.28,82.55l2,6.77v17.03l-2,7.46,7.46.21-2.09-7.4-.77-.9.14-17.1.84.07,1.67-6.2Z" fill="#2b7dab"/>
      <rect id="Rectangle_242" data-name="Rectangle 242" width="8.86" height="7.19" transform="translate(769.02 89.11)" fill="#fff"/>
      <rect id="Rectangle_243" data-name="Rectangle 243" width="67.88" height="10.4" transform="translate(714.88 113.81)" fill="#949499"/>
      <rect id="Rectangle_244" data-name="Rectangle 244" width="16.05" height="2.65" transform="translate(742.51 114.02)" fill="#2b7dab"/>
      <rect id="Rectangle_245" data-name="Rectangle 245" width="22.88" height="3.21" transform="translate(738.81 117.09)" fill="#2b7dab"/>
      <rect id="Rectangle_246" data-name="Rectangle 246" width="29.72" height="3.91" transform="translate(735.39 120.3)" fill="#2b7dab"/>
      <ellipse id="Ellipse_59" data-name="Ellipse 59" cx="7.4" cy="6.7" rx="7.4" ry="6.7" transform="translate(737.13 42.09)" fill="#2b7dab"/>
      <ellipse id="Ellipse_60" data-name="Ellipse 60" cx="12.14" cy="10.88" rx="12.14" ry="10.88" transform="translate(794.21 75.3)" fill="#2b7dab"/>
      <rect id="Rectangle_247" data-name="Rectangle 247" width="15.35" height="14.93" transform="translate(737 48.65)" fill="#fff"/>
      <rect id="Rectangle_248" data-name="Rectangle 248" width="6.14" height="11.3" transform="translate(803 56.88)" fill="#fff"/>
      <rect id="Rectangle_249" data-name="Rectangle 249" width="24.42" height="22.88" transform="translate(794.21 85.9)" fill="#fff"/>
      <rect id="Rectangle_250" data-name="Rectangle 250" width="30" height="3.63" transform="translate(790.86 108.65)" fill="#2b7dab"/>
      <rect id="Rectangle_251" data-name="Rectangle 251" width="6.14" height="2.51" transform="translate(833.7 113.81)" fill="#2b7dab"/>
      <circle id="Ellipse_61" data-name="Ellipse 61" cx="5.44" cy="5.44" r="5.44" transform="translate(692.49 103.49)" fill="#61ba45"/>
      <circle id="Ellipse_62" data-name="Ellipse 62" cx="4.47" cy="4.47" r="4.47" transform="translate(703.92 106.55)" fill="#61ba45"/>
      <circle id="Ellipse_63" data-name="Ellipse 63" cx="5.02" cy="5.02" r="5.02" transform="translate(858.4 103.49)" fill="#61ba45"/>
      <circle id="Ellipse_64" data-name="Ellipse 64" cx="5.86" cy="5.86" r="5.86" transform="translate(984.95 100.14)" fill="#61ba45"/>
      <circle id="Ellipse_65" data-name="Ellipse 65" cx="4.92" cy="4.92" r="4.92" transform="translate(999.32 103.62)" fill="#61ba45"/>
      <path id="Path_327" data-name="Path 327" d="M978.65,56.32H876.02l-8,33.63h43.12l16.18-21.49L944,89.6l41.65.35Z" fill="#c7c7c9"/>
      <rect id="Rectangle_252" data-name="Rectangle 252" width="12.28" height="4.19" transform="translate(949.93 46.14)" fill="#c7c7c9"/>
      <rect id="Rectangle_253" data-name="Rectangle 253" width="8.23" height="5.44" transform="translate(951.6 50.74)" fill="#2b7dab"/>
      <rect id="Rectangle_254" data-name="Rectangle 254" width="26.37" height="2.79" transform="translate(876.11 93.3)" fill="#c7c7c9"/>
      <rect id="Rectangle_255" data-name="Rectangle 255" width="25.95" height="2.65" transform="translate(952.3 93.44)" fill="#c7c7c9"/>
      <rect id="Rectangle_256" data-name="Rectangle 256" width="9.21" height="5.16" transform="translate(906.39 89.67)" fill="#c7c7c9"/>
      <rect id="Rectangle_257" data-name="Rectangle 257" width="8.65" height="5.16" transform="translate(939.46 89.67)" fill="#c7c7c9"/>
      <rect id="Rectangle_258" data-name="Rectangle 258" width="9.35" height="4.88" transform="translate(906.25 118.97)" fill="#c7c7c9"/>
      <rect id="Rectangle_259" data-name="Rectangle 259" width="8.79" height="4.47" transform="translate(939.6 119.11)" fill="#c7c7c9"/>
      <rect id="Rectangle_260" data-name="Rectangle 260" width="4.47" height="24.98" transform="translate(941.7 94.42)" fill="#c7c7c9"/>
      <rect id="Rectangle_261" data-name="Rectangle 261" width="4.6" height="24.56" transform="translate(908.77 94.83)" fill="#c7c7c9"/>
      <rect id="Rectangle_262" data-name="Rectangle 262" width="21.35" height="16.6" transform="translate(954.81 96.67)" fill="#fff"/>
      <rect id="Rectangle_263" data-name="Rectangle 263" width="20.65" height="17.3" transform="translate(879.04 95.81)" fill="#fff"/>
      <path id="Path_328" data-name="Path 328" d="M882.67,123.49c0-2.7,2.19-6.88,4.88-6.88s4.88,4.19,4.88,6.88" fill="#61ba45"/>
      <path id="Path_329" data-name="Path 329" d="M891.18,124a3.77,3.77,0,0,1,7.54,0" fill="#61ba45"/>
      <path id="Path_330" data-name="Path 330" d="M874.02,124.28c0-2.85,2.31-6.16,5.16-6.16s5.16,3.31,5.16,6.16" fill="#61ba45"/>
      <path id="Path_331" data-name="Path 331" d="M961.37,123.49c0-2.7,2.19-6.88,4.88-6.88s4.88,4.19,4.88,6.88" fill="#61ba45"/>
      <path id="Path_332" data-name="Path 332" d="M969.88,124a3.77,3.77,0,0,1,7.54,0" fill="#61ba45"/>
      <path id="Path_333" data-name="Path 333" d="M952.72,124.28c0-2.85,2.31-6.16,5.16-6.16s5.16,3.31,5.16,6.16" fill="#61ba45"/>
    </g>
    <g id="Layer_1">
      <g id="Group_95" data-name="Group 95">
        <path id="Path_334" data-name="Path 334" d="M857.59,108.83a5.825,5.825,0,0,0,5.07,5.8v8.27h-1.62a.83.83,0,1,0,0,1.66h3.31a.953.953,0,0,0,.81-.98,1.022,1.022,0,0,0-.84-.98v-7.99a5.785,5.785,0,0,0,4.98-5.78,5.855,5.855,0,1,0-11.71,0Zm10.05,0a4.046,4.046,0,0,1-3.33,4.1v-1.2l2.52-2.39a.834.834,0,0,0,.04-1.17.846.846,0,0,0-1.18-.03l-1.37,1.3v-2.57a.83.83,0,0,0-1.66,0v2.39L861.5,108a.8.8,0,0,0-1.16-.04.825.825,0,0,0-.06,1.17l2.37,2.58v1.26a4.08,4.08,0,0,1-3.42-4.13,4.205,4.205,0,0,1,8.41-.01Z" fill="#175985"/>
        <path id="Path_335" data-name="Path 335" d="M1010.07,108.83a5.86,5.86,0,1,0-11.72,0,6.016,6.016,0,0,0,4.6,5.72v8.77H992.19V112.5a6.965,6.965,0,1,0-8.14-6.86,6.883,6.883,0,0,0,6.49,6.94v10.73h-1.21a.83.83,0,1,0,0,1.66h17.38a.83.83,0,1,0,0-1.66h-2.1v-8.65A5.979,5.979,0,0,0,1010.07,108.83Zm-18.71-6.92a.828.828,0,0,0-.83.83v3.38l-1.99-2.01a.827.827,0,0,0-1.17,1.17l3.16,3.18v2.47a5.5,5.5,0,0,1-4.83-5.29,5.31,5.31,0,1,1,10.62,0,5.2,5.2,0,0,1-4.14,5.17v-2.33l3.29-3.06a.834.834,0,0,0,.05-1.17.846.846,0,0,0-1.18-.04l-2.16,2v-3.48A.811.811,0,0,0,991.36,101.91Zm12.42,4.14a.828.828,0,0,0-.83.83v2.39l-1.16-1.27a.8.8,0,0,0-1.16-.04.825.825,0,0,0-.06,1.17l2.37,2.58v1.14a4.256,4.256,0,0,1-2.94-4.01,4.2,4.2,0,0,1,8.4,0,4.259,4.259,0,0,1-3.8,4.18v-1.28l2.52-2.39a.834.834,0,0,0,.04-1.17.846.846,0,0,0-1.18-.03l-1.37,1.3v-2.57A.828.828,0,0,0,1003.78,106.05Z" fill="#175985"/>
        <path id="Path_336" data-name="Path 336" d="M875.59,55.92l-8.35,33.44a1.07,1.07,0,0,0,.15.82.975.975,0,0,0,.65.43h2.06v32.28h-2.04a.83.83,0,1,0,0,1.66h6.62c.43,0,.77-.47.82-.89a.975.975,0,0,0,.27-.69,3.682,3.682,0,0,1,3.56-3.69,3.623,3.623,0,0,1,3.55,3.19h-3.62c-.46,0-.83.57-.82,1.03s.37,1.04.83,1.04h0l24.54-.22a.728.728,0,0,0,.82-.72.741.741,0,0,0-.83-.72h0l-4.86-.14a4.441,4.441,0,0,0-4.29-3.68,4.339,4.339,0,0,0-1.91.41,5.212,5.212,0,0,0-10.03-.54,5.059,5.059,0,0,0-3.38-1.1,5.23,5.23,0,0,0-5.2,5.05h-2.38V90.62h33.93v3.83c0,.46.4,1.13.86,1.13h1.62v22.76h-1.62c-.46,0-.86.07-.86.52v4.55c0,.46.4,1.13.86,1.13h17.38a.83.83,0,1,0,0-1.66h-7.48v-1.66h22.35v1.66h-8.66a.83.83,0,1,0,0,1.66H956.2a.83.83,0,1,0,0-1.66h-1.83a3.512,3.512,0,0,1,3.54-3.4,3.631,3.631,0,0,1,3.56,3.64c0,.04.01.18.01.18h-1.56a.83.83,0,1,0,0,1.66h26.07a.83.83,0,1,0,0-1.66h-3.34V90.62h3.26c.25,0,.49-.27.65-.47a.979.979,0,0,0,.16-.78l-7.77-33.41a.738.738,0,0,0-.81-.53H960.72V51.29h1.27c.46,0,.79-.68.79-1.13V46.02c0-.46-.34-.52-.79-.52H949.6c-.46,0-.86.07-.86.52v4.14c0,.46.4,1.13.86,1.13h1.21v4.14H876.4C876.02,55.45,875.68,55.55,875.59,55.92Zm19.07,64.74a2.721,2.721,0,0,1,2.6,1.95l-5.2.01A2.712,2.712,0,0,1,894.66,120.66Zm-10.56-.06a3.56,3.56,0,1,1,7.12,0c0,.03.01.06.01.09a4.257,4.257,0,0,0-.86,1.95l-5.82.01a5.008,5.008,0,0,0-.46-1.9C884.09,120.7,884.1,120.65,884.1,120.6Zm23.25-26.67V90.62h3.34a.881.881,0,0,0,.17-.02.585.585,0,0,0,.13.02h3.8v3.31Zm33.11,0V90.62h3.6c.02,0,.04-.01.06-.01s.06.01.09.01h3.28v3.31Zm4.97,1.66v22.76h-2.9V95.59Zm-29.77-6.62h-3L927.38,69.5l15,19.47h-2.72c-.46,0-.86.07-.86.52v4.44h-1.12a11.4,11.4,0,0,0-10.7-6.62c-7,0-9.29,4.55-9.9,6.62h-.63V89.49C916.46,89.03,916.12,88.97,915.66,88.97Zm28.81,0L928.2,67.69a.863.863,0,0,0-.99-.33.935.935,0,0,0-.7.44L910.59,88.96h-2.43l19.3-24.45,19.3,24.45h-2.29Zm-32.15,6.62v22.76h-2.48V95.59Zm2.48,27.31h-7.45V120h7.45Zm18.21-3.31h-12V97.66h12Zm5.8-.72v.72h-4.14V96.53c0-.46-.34-.52-.79-.52H920.22c-.46,0-.86.07-.86.52V119.6h-2.9v-.72c0-.46-.34-.52-.79-.52h-1.69V95.59h3.73a.965.965,0,0,0,.81-.82c.05-.24,1.25-6.03,8.47-6.03a9.569,9.569,0,0,1,9.36,6.16.95.95,0,0,0,.79.69h3.74v22.76h-1.21C939.21,118.35,938.81,118.42,938.81,118.87Zm8.69,4.03h-7.04V120h7.04Zm21.4.42h-5.76s.01-.22.01-.26a5.423,5.423,0,0,0-.48-2.24,1.086,1.086,0,0,0,.01-.18,3.56,3.56,0,1,1,7.12-.03c0,.03.01.2.01.23A5.182,5.182,0,0,0,968.9,123.32Zm1.67,0a2.7,2.7,0,0,1,5.36,0Zm10.45,0h-3.43a4.475,4.475,0,0,0-6.25-3.79,5.212,5.212,0,0,0-10.03-.57,5.05,5.05,0,0,0-3.37-1.1,5.223,5.223,0,0,0-5.2,5.05h-3.58v-4.03c0-.46-.34-.52-.79-.52H947.1V95.59h1.27c.46,0,.79-.68.79-1.13V90.63h31.87v32.69ZM950.39,49.65V47.17h10.76v2.48H950.39Zm8.69,1.66v4.14h-6.62V51.31ZM977.5,57.1l7.39,31.87H948.86L928.11,62.52a.858.858,0,0,0-1.3.08L906.06,88.98H869.12l2.77-11.28a2.789,2.789,0,0,0,1.8.57,2.872,2.872,0,0,0,2.84-2.88.845.845,0,0,0-.83-.85.82.82,0,0,0-.83.82,1.18,1.18,0,1,1-2.36-.01c0-.06-.01.03-.02-.03l4.57-18.21H977.5Z" fill="#175985"/>
        <path id="Path_337" data-name="Path 337" d="M923.91,111.84a.828.828,0,0,0,.83-.83v-2.48a.83.83,0,0,0-1.66,0v2.48A.828.828,0,0,0,923.91,111.84Z" fill="#175985"/>
        <path id="Path_338" data-name="Path 338" d="M879.25,113.8h20.28c.46,0,.79-.68.79-1.13V96.83h2.1c.46,0,.79-.68.79-1.13V93.22c0-.46-.34-.52-.79-.52H876.35c-.46,0-.86.07-.86.52V95.7c0,.46.4,1.13.86,1.13h2.04v15.83C878.39,113.12,878.79,113.8,879.25,113.8Zm3.69-1.66h-2.9v-3.72h2.9Zm0-5.38h-2.9v-4.97h2.9Zm0-6.62h-2.9V96.83h2.9Zm5.38,12H884.6v-3.72h3.72Zm0-5.38H884.6v-4.97h3.72Zm0-6.62H884.6V96.83h3.72Zm5.38,12h-3.72v-3.72h3.72Zm0-5.38h-3.72v-4.97h3.72Zm0-6.62h-3.72V96.83h3.72Zm4.96,12h-3.31v-3.72h3.31Zm0-5.38h-3.31v-4.97h3.31Zm0-6.62h-3.31V96.83h3.31Zm-21.52-4.96v-.83h24.42v.83Z" fill="#175985"/>
        <path id="Path_339" data-name="Path 339" d="M952.5,96.83h1.62v15.83c0,.46.4,1.13.86,1.13h21.11c.46,0,.79-.68.79-1.13V96.83h1.27c.46,0,.79-.68.79-1.13V93.22c0-.46-.34-.52-.79-.52H952.5c-.46,0-.86.07-.86.52V95.7C951.63,96.16,952.04,96.83,952.5,96.83Zm6.58,15.31h-3.31v-3.72h3.31Zm0-5.38h-3.31v-4.97h3.31Zm0-6.62h-3.31V96.83h3.31Zm4.97,12h-3.31v-3.72h3.31Zm0-5.38h-3.31v-4.97h3.31Zm0-6.62h-3.31V96.83h3.31Zm5.79,12H965.7v-3.72h4.14Zm0-5.38H965.7v-4.97h4.14Zm0-6.62H965.7V96.83h4.14Zm5.38,12H971.5v-3.72h3.72Zm0-5.38H971.5v-4.97h3.72Zm0-6.62H971.5V96.83h3.72Zm-21.93-5.79h24v.83h-24Z" fill="#175985"/>
        <path id="Path_340" data-name="Path 340" d="M901.74,63.5a2.838,2.838,0,0,0,2.84-2.84.83.83,0,0,0-1.66,0,1.18,1.18,0,1,1-2.36,0,.83.83,0,0,0-1.66,0A2.851,2.851,0,0,0,901.74,63.5Z" fill="#175985"/>
        <path id="Path_341" data-name="Path 341" d="M915.99,67.81a2.844,2.844,0,0,0,2.84-2.84.83.83,0,0,0-1.66,0,1.18,1.18,0,1,1-2.36,0,.83.83,0,0,0-1.66,0A2.845,2.845,0,0,0,915.99,67.81Z" fill="#175985"/>
        <path id="Path_342" data-name="Path 342" d="M972.99,63.93a2.838,2.838,0,0,0,2.84-2.84.83.83,0,0,0-1.66,0,1.18,1.18,0,1,1-2.36,0,.83.83,0,0,0-1.66,0A2.851,2.851,0,0,0,972.99,63.93Z" fill="#175985"/>
        <path id="Path_343" data-name="Path 343" d="M965.83,81.82a2.84,2.84,0,0,0,5.68,0,.83.83,0,0,0-1.66,0,1.18,1.18,0,1,1-2.36,0,.83.83,0,0,0-1.66,0Z" fill="#175985"/>
        <path id="Path_344" data-name="Path 344" d="M974.83,73.18a.83.83,0,0,0-1.66,0,2.84,2.84,0,0,0,5.68,0,.83.83,0,0,0-1.66,0,1.18,1.18,0,1,1-2.36,0Z" fill="#175985"/>
        <path id="Path_345" data-name="Path 345" d="M956.58,63.93a2.845,2.845,0,0,0,2.84-2.84.83.83,0,0,0-1.66,0,1.18,1.18,0,1,1-2.36,0,.83.83,0,0,0-1.66,0A2.851,2.851,0,0,0,956.58,63.93Z" fill="#175985"/>
        <path id="Path_346" data-name="Path 346" d="M949.24,75.15a2.844,2.844,0,0,0,2.84-2.84.83.83,0,0,0-1.66,0,1.18,1.18,0,1,1-2.36,0,.83.83,0,0,0-1.66,0A2.845,2.845,0,0,0,949.24,75.15Z" fill="#175985"/>
        <path id="Path_347" data-name="Path 347" d="M939.74,65.66a2.838,2.838,0,0,0,2.84-2.84.83.83,0,0,0-1.66,0,1.18,1.18,0,1,1-2.36,0,.83.83,0,0,0-1.66,0A2.851,2.851,0,0,0,939.74,65.66Z" fill="#175985"/>
        <path id="Path_348" data-name="Path 348" d="M903.22,79.66a2.84,2.84,0,0,0,5.68,0,.83.83,0,0,0-1.66,0,1.18,1.18,0,1,1-2.36,0,.83.83,0,0,0-1.66,0Z" fill="#175985"/>
        <path id="Path_349" data-name="Path 349" d="M950.72,82.68a2.84,2.84,0,0,0,5.68,0,.83.83,0,0,0-1.66,0,1.18,1.18,0,1,1-2.36,0,.83.83,0,0,0-1.66,0Z" fill="#175985"/>
        <path id="Path_350" data-name="Path 350" d="M883.17,63.5a2.845,2.845,0,0,0,2.84-2.84.83.83,0,0,0-1.66,0,1.18,1.18,0,1,1-2.36,0,.83.83,0,0,0-1.66,0A2.858,2.858,0,0,0,883.17,63.5Z" fill="#175985"/>
        <path id="Path_351" data-name="Path 351" d="M893.54,73.43a2.844,2.844,0,0,0,2.84-2.84.83.83,0,0,0-1.66,0,1.18,1.18,0,1,1-2.36,0,.83.83,0,0,0-1.66,0A2.845,2.845,0,0,0,893.54,73.43Z" fill="#175985"/>
        <path id="Path_352" data-name="Path 352" d="M963.92,71.27a2.838,2.838,0,0,0,2.84-2.84.83.83,0,0,0-1.66,0,1.18,1.18,0,1,1-2.36,0,.83.83,0,0,0-1.66,0A2.845,2.845,0,0,0,963.92,71.27Z" fill="#175985"/>
        <path id="Path_353" data-name="Path 353" d="M884.15,81.82a.83.83,0,0,0-1.66,0,2.84,2.84,0,0,0,5.68,0,.83.83,0,0,0-1.66,0,1.18,1.18,0,1,1-2.36,0Z" fill="#175985"/>
      </g>
      <g id="Group_96" data-name="Group 96">
        <path id="Path_354" data-name="Path 354" d="M835.11,112.97h-1.62c-.46,0-.86.07-.86.52v2.9c0,.46.4,1.13.86,1.13h2.04v5.79h-1.21a.83.83,0,1,0,0,1.66h10.35a.83.83,0,1,0,0-1.66h-7.48v-5.79h2.93c.46,0,.79-.68.79-1.13v-2.9c0-.46-.34-.52-.79-.52h-3.34v-1.13c.41,0,.84-.22.84-.68s-.35-.68-.81-.68h-.83c-.46,0-.86.07-.86.52v1.97Zm.86,2.48a.855.855,0,0,0,.83-.83h2.45v1.24h-4.97v-1.24h.86A.855.855,0,0,0,835.97,115.45Z" fill="#175985"/>
        <path id="Path_355" data-name="Path 355" d="M697.3,114.67v8.64h-.79a.83.83,0,1,0,0,1.66h14.48a.83.83,0,1,0,0-1.66H709.3v-7.22a5.194,5.194,0,1,0-4.99-8.17,6.172,6.172,0,1,0-7.01,6.75Zm11.22-7.24a3.538,3.538,0,0,1,3.53,3.54,3.475,3.475,0,0,1-2.75,3.45v-.89l2.18-2.21a.824.824,0,0,0-.01-1.17.845.845,0,0,0-1.18.01l-.99,1v-2.21a.83.83,0,0,0-1.66,0v2.17l-.82-.88a.828.828,0,0,0-1.2,1.14l2.03,2.15v.89a3.417,3.417,0,0,1-2.68-3.44A3.551,3.551,0,0,1,708.52,107.43Zm-5.15,4.41a5.35,5.35,0,0,0,4.28,4.26v7.22h-8.69v-8.64A5.794,5.794,0,0,0,703.37,111.84Zm-5.19-7.78a4.5,4.5,0,0,1,4.5,4.51,4.575,4.575,0,0,1-3.72,4.44v-1.92l2.83-2.63a.834.834,0,0,0,.05-1.17.846.846,0,0,0-1.18-.04l-1.7,1.57v-2.78a.83.83,0,0,0-1.66,0v2.72l-1.55-1.53a.827.827,0,0,0-1.16,1.18l2.71,2.66V113a4.512,4.512,0,0,1,.88-8.94Z" fill="#175985"/>
        <path id="Path_356" data-name="Path 356" d="M806.17,124.97h10.35a.83.83,0,1,0,0-1.66H806.17a.83.83,0,1,0,0,1.66Z" fill="#175985"/>
        <path id="Path_357" data-name="Path 357" d="M793.33,85.37c0,.03-.02.06-.02.08V108h-2.45c-.46,0-.86.07-.86.52v3.31c0,.46.4,1.13.86,1.13h30.21c.46,0,.79-.68.79-1.13v-3.31c0-.46-.34-.52-.79-.52h-1.69V85.45c0-.03.01-.06.01-.08-.01-.11-1.25-11.01-12.78-11.01a.859.859,0,0,0-.24.04,1.086,1.086,0,0,0-.25-.04C794.59,74.36,793.34,85.26,793.33,85.37Zm1.63,1.53h5.79v6.21h-5.79Zm0,7.86h5.79v6.21h-5.79Zm0,7.87h5.79v5.38h-5.79Zm25.25,7.03v1.66H791.66v-1.66Zm-10.35-14.9v6.21h-7.45V94.76Zm-7.45-1.65V86.9h7.45v6.21Zm7.45,9.52v5.38h-7.45v-5.38Zm7.86,0v5.38h-6.21v-5.38Zm-6.2-1.66V94.76h6.21v6.21Zm6.2-7.86h-6.21V86.9h6.21ZM806.13,76.17c.09,0,.17-.09.25-.12.08.03.16.16.25.16,8.66,0,10.64,6.97,11.04,9.04H795.09C795.48,83.17,797.44,76.17,806.13,76.17Z" fill="#175985"/>
        <path id="Path_358" data-name="Path 358" d="M744.69,41.36c-.03,0-.07-.01-.1-.01a8.036,8.036,0,0,0-8.34,7v.03a.453.453,0,0,0-.01.08v.07s-.02,0-.02.01l-.02.01V63.43c0,.46.4,1.13.86,1.13h15.31c.46,0,.79-.68.79-1.13V48.54l.02-.01a.01.01,0,0,0,.01-.01v-.07a.319.319,0,0,0-.01-.07v-.03a8.1,8.1,0,0,0-8.38-7A.208.208,0,0,0,744.69,41.36ZM741.16,62.9h-3.31V59.59h3.31Zm0-4.97h-3.31v-2.9h3.31Zm0-4.55h-3.31V49.66h3.31Zm5.8,9.52h-4.14V59.59h4.14Zm0-4.97h-4.14v-2.9h4.14Zm0-4.55h-4.14V49.66h4.14Zm4.55,9.52h-2.9V59.59h2.9Zm0-4.97h-2.9v-2.9h2.9Zm0-4.55h-2.9V49.66h2.9ZM751.35,48H738.07a6.276,6.276,0,0,1,6.52-4.85c.04,0,.07-.08.1-.09s.07.12.1.12A6.355,6.355,0,0,1,751.35,48Z" fill="#175985"/>
        <path id="Path_359" data-name="Path 359" d="M809.86,57.1a.828.828,0,0,0-.83-.83h-5.79a.828.828,0,0,0-.83.83V68.27a.828.828,0,0,0,.83.83h5.79a.828.828,0,0,0,.83-.83Zm-5.79.83h4.14v4.55h-4.14Zm0,6.21h4.14v3.31h-4.14Z" fill="#175985"/>
        <path id="Path_360" data-name="Path 360" d="M778.82,88.97a.828.828,0,0,0-.83-.83h-9.1a.828.828,0,0,0-.83.83V96a.828.828,0,0,0,.83.83h9.1a.828.828,0,0,0,.83-.83Zm-9.1.83h7.45v2.07h-7.45Zm0,3.72h7.45v1.66h-7.45Z" fill="#175985"/>
        <path id="Path_361" data-name="Path 361" d="M714.71,124.97h8.28a.83.83,0,1,0,0-1.66h-7.48v-8.69h26.07v1.66h-2.86c-.46,0-.86.07-.86.52v2.79h-2.45c-.46,0-.86.07-.86.52v3.2h-6.17a.83.83,0,1,0,0,1.66h22.76a.83.83,0,1,0,0-1.66H736.2v-2.07h28.14v2.07h-9.07a.83.83,0,1,0,0,1.66h46.76a.83.83,0,1,0,0-1.66H783.79V65.25l22.26-21.42,22.43,21.42v58.07h-7.83a.83.83,0,1,0,0,1.66H831a.83.83,0,1,0,0-1.66h-.86V69.1h4.17c.46,0,.79-.68.79-1.13V64.75a.814.814,0,0,0-.23-.59l-4.9-4.91a.837.837,0,0,0-.04-.15L826,45.54V27c0-.46-.34-.52-.79-.52H814.45c-.46,0-.86.07-.86.52V38.48h-4.66l-2.17-2.32c-.01-.01-.02-.09-.03-.1-.03-.03-.06-.09-.1-.11s-.07-.07-.11-.08l-.03-.03a.185.185,0,0,0-.07-.02.527.527,0,0,0-.12-.03.448.448,0,0,0-.11-.01.487.487,0,0,0-.12.01l-.12.03c-.03.01-.05.01-.08.02-.01.01-.02.01-.03.02-.04.02-.07.04-.11.06a.6.6,0,0,0-.1.07c-.01.01-.02.17-.03.18L803,38.89H758.18L746.07,24.44a.928.928,0,0,0-.64-.37.771.771,0,0,0-.64.25L723.16,49.58a.779.779,0,0,0-.21.52v3.38c0,.46.4,1.13.86,1.13h3.69V67.54L714.14,81.46a1.1,1.1,0,0,0-.16,1.05c.13.31.44.66.77.66h.73l1.45,5.84c.04.16.21.14.21.24v16.53c0,.11-.26.44-.31.64l-1.44,6.54h-.7c-.46,0-.86.07-.86.52v10.35C713.85,124.3,714.25,124.97,714.71,124.97ZM818.55,28.13h5.79V39.82l-.29-.89c-.1-.35-.41-.45-.78-.45h-4.73V28.13Zm-3.31,0h1.66V38.48h-1.66Zm7.42,12.01,2.75,9.52h-2.28a.83.83,0,1,0,0,1.66h2.76l1.69,5.85L816.36,45.94h.98a.83.83,0,1,0,0-1.66h-2.63l-4.14-4.14Zm-15.7-1.55L833.45,65.1v2.35h-3.31V65.11a1.168,1.168,0,0,0-.2-.89L806.97,42.25V38.59Zm-84.83,67.49c0-.27-.38-.14-.7-.14h-.13v-3.31h.83Zm-3.71-17.94-1.22-4.97H722l-1.14,4.97Zm1.22,1.66v16.14h-.83V89.8Zm6.63,23.17h-2.48V102.62h2.48Zm3.72,0h-2.07V102.62h2.07Zm4.55,0h-2.9V102.62h2.9Zm2.07-7.12c0,.11-.21.26-.25.43l-.16.72v-4.37h.41Zm0-4.88H721.3V89.8h.22a.835.835,0,0,0,.81-.64l1.37-5.98h11.32l1.45,5.84c.03.12.14.07.14.16Zm.04,12,1.21-5.38h2.43l1.17,5.38Zm1.29-24.83-1.22-4.97h4.8l-1.14,4.97Zm1.16,1.66v16.14h-.83V89.8Zm1.86,16.14h-.2V89.8h.3a.835.835,0,0,0,.81-.64l1.37-5.98h14.7l1.45,5.84c0,.01-.01-.13-.01-.12v17.12a3.375,3.375,0,0,1-.09.41l-1.43,6.54h-.96V90.32c0-.46-.34-.52-.79-.52H744.52c-.46,0-.86.07-.86.52v22.65h-.5l-1.39-6.38A.842.842,0,0,0,740.96,105.94Zm14.27-11.59v18.62H745.3V94.35Zm-9.93-1.66V91.45h9.93v1.24Zm12.51,21.94.04,1.66H743.24v-1.66Zm3.22,4.96H739.51v-1.66h21.52Zm21.1,3.73H765.99v-3.2c0-.46-.34-.52-.79-.52h-2.52v-2.79c0-.46-.34-.52-.79-.52h-2.38l-.04-1.66h22.67v8.69ZM763.29,88.14h-2.45l-1.22-4.97h4.8Zm.64,14.49h1.24v5.84l-.54-2.2a.742.742,0,0,0-.71-.62v-3.02ZM762.27,89.8v16.14h-1.24V89.8Zm-1.5,17.79h2.44l1.31,5.38h-4.97Zm6.05,5.38V102.62h2.48v10.35Zm4.14,0V102.62h2.48v10.35Zm4.14,0V102.62h2.07v10.35Zm7.03,0h-3.31V102.62h3.31Zm0-12H763.92V89.49c.41,0,.73-.12.82-.49l1.39-5.83h16Zm23.18-62.38v3.66L782.39,64.3a.839.839,0,0,0-.25.6v2.55h-3.31V65.1Zm-3.96,1.96L789.77,52.14h-3.46a.83.83,0,1,0,0,1.66h1.81l-5.51,5.51a.839.839,0,0,0-.44-.13h-3.31a.83.83,0,1,0,0,1.66h2.23l-3.66,3.49c-.16.16-.26.21-.26.43v2.7H763.1V54.62h3.76c.46,0,.79-.68.79-1.13V50.11c0-.2-.05-.23-.18-.38l-4.03-4.62h.93a.83.83,0,1,0,0-1.66h-2.33l-2.45-2.9h41.76ZM724.61,52.96V50.41L745.4,26.09l20.59,24.32v2.55h-2.9V50.1a.794.794,0,0,0-.18-.53L746.02,29.46a.825.825,0,0,0-.69-.29.852.852,0,0,0-.71.29L727.71,49.57a.824.824,0,0,0-.21.53v2.86Zm36.83-2.55V67.45H729.16V50.41L745.3,31.2ZM728.64,69.1h53.5v2.07H726.65ZM716.71,81.52l4-4.17a.711.711,0,0,0,.21.03h4.14a.83.83,0,1,0,0-1.66h-2.78l2.78-2.9h57.08v1.24h-3.28a.83.83,0,1,0,0,1.66h3.28v5.79H716.71Zm1.63,26.07h2.44l1.29,5.38h-4.96Z" fill="#175985"/>
        <path id="Path_362" data-name="Path 362" d="M773.06,49.65h4.55a.828.828,0,0,0,.83-.83.82.82,0,0,0-.83-.82h-4.55a.825.825,0,1,0,0,1.65Z" fill="#175985"/>
        <path id="Path_363" data-name="Path 363" d="M765.2,58.34a.828.828,0,0,0,.83.83h2.48a.83.83,0,1,0,0-1.66h-2.48A.841.841,0,0,0,765.2,58.34Z" fill="#175985"/>
        <path id="Path_364" data-name="Path 364" d="M787.96,45.52h4.55a.83.83,0,1,0,0-1.66h-4.55a.83.83,0,1,0,0,1.66Z" fill="#175985"/>
        <path id="Path_365" data-name="Path 365" d="M729.61,78.21h-2.07a.83.83,0,1,0,0,1.66h2.07a.83.83,0,1,0,0-1.66Z" fill="#175985"/>
        <path id="Path_366" data-name="Path 366" d="M739.13,74.9h-3.72a.83.83,0,1,0,0,1.66h3.72a.83.83,0,1,0,0-1.66Z" fill="#175985"/>
        <path id="Path_367" data-name="Path 367" d="M749.06,78.21h-3.72a.83.83,0,1,0,0,1.66h3.72a.83.83,0,1,0,0-1.66Z" fill="#175985"/>
        <path id="Path_368" data-name="Path 368" d="M755.27,74.07h-4.14a.83.83,0,1,0,0,1.66h4.14a.83.83,0,1,0,0-1.66Z" fill="#175985"/>
        <path id="Path_369" data-name="Path 369" d="M760.65,74.07h-1.66a.83.83,0,1,0,0,1.66h1.66a.83.83,0,1,0,0-1.66Z" fill="#175985"/>
        <path id="Path_370" data-name="Path 370" d="M766.03,78.62h-1.66a.83.83,0,1,0,0,1.66h1.66a.83.83,0,1,0,0-1.66Z" fill="#175985"/>
        <path id="Path_371" data-name="Path 371" d="M747.37,105.63a.828.828,0,0,0,.83-.83v-3.31a.83.83,0,0,0-1.66,0v3.31A.828.828,0,0,0,747.37,105.63Z" fill="#175985"/>
        <path id="Path_372" data-name="Path 372" d="M691.95,124.97h2.07a.83.83,0,1,0,0-1.66h-2.07a.83.83,0,1,0,0,1.66Z" fill="#175985"/>
      </g>
      <g id="Group_97" data-name="Group 97">
        <path id="Path_373" data-name="Path 373" d="M5.34,123.32H2.44a.83.83,0,0,0,0,1.66h2.9a.83.83,0,0,0,0-1.66Z" fill="#175985"/>
        <path id="Path_374" data-name="Path 374" d="M145.21,123.32h-2.48a.83.83,0,0,0,0,1.66h2.48a.83.83,0,1,0,0-1.66Z" fill="#175985"/>
        <path id="Path_375" data-name="Path 375" d="M139.01,123.32h-.86V111.84c0-.46-.34-.52-.79-.52h-3.34V99.73h8.75c.27,0,.52-.28.67-.5a.971.971,0,0,0,.11-.83l-9.48-27.3a.849.849,0,0,0-.78-.57.808.808,0,0,0-.78.55l-9.48,27.26a1.136,1.136,0,0,0,.11.9c.16.22.41.5.67.5h8.56v11.59h-3.28c-.46,0-.86.07-.86.52v11.48h-1.24V106.06c0-.46-.34-.52-.79-.52h-3.84a3.965,3.965,0,0,0,.08-.72V82.76h3.76c.46,0,.79-.68.79-1.13V72.11l.02-.01v-.17c-.01-.02-.01-.05-.02-.07l-.03-.09v-.01l-4.39-9.3-2.1-14.88h.77c.46,0,.79-.68.79-1.13V43.14c0-.46-.34-.52-.79-.52H27.27c-.46,0-.86.07-.86.52v3.31c0,.46.4,1.13.86,1.13h1.77L26.82,62.7v-.06l-4.75,9.14c0,.01-.05,0-.06.01-.01.03-.05.05-.06.08a.149.149,0,0,0-.03.07.254.254,0,0,0-.02.07c0,.03-.03.06-.03.09,0,.01-.02.02-.02.03V88.67L16,71.88a.817.817,0,0,0-.77-.55h0a.826.826,0,0,0-.78.56L4.96,99.15a1.13,1.13,0,0,0,.11.9c.16.22.41.5.68.5h8.67v10.76H10.73c-.46,0-.86.07-.86.52v11.48h-.4a.83.83,0,0,0,0,1.66h5.38a.83.83,0,0,0,0-1.66H11.51V112.96h6.62V123a.828.828,0,0,0,.13.41,1.485,1.485,0,0,0-.11.57.977.977,0,0,0,.84.98h14.9a.83.83,0,1,0,0-1.66H23.51v-3.72h3.34c.46,0,.79-.68.79-1.13v-3.72c0-.46-.34-.52-.79-.52H23.51v-7.04H59.1v2.9H55.82c-.46,0-.86.07-.86.52v3.2H53.34c-.46,0-.86.07-.86.52v3.62H49.62c-.46,0-.86.07-.86.52v4.86H38.03a.83.83,0,1,0,0,1.66H70.72a.83.83,0,1,0,0-1.66H50.41v-3.72H87.25v3.72H73.62a.83.83,0,0,0,0,1.66h39.31a.83.83,0,0,0,0-1.66H88.9v-4.86c0-.46-.34-.52-.79-.52H86v-3.62c0-.46-.34-.52-.79-.52H82.69v-3.2c0-.46-.34-.52-.79-.52H79.38v-2.9h45.94v2.9h-7.83c-.46,0-.86.07-.86.52v3.72c0,.46.4,1.13.86,1.13h7.83V123a.828.828,0,0,0,.13.41,1.485,1.485,0,0,0-.11.57.977.977,0,0,0,.84.98h5.79a.83.83,0,0,0,0-1.66h-2.1V112.95h6.62V123.3h-1.21a.83.83,0,0,0,0,1.66H139a.828.828,0,0,0,.83-.83A.809.809,0,0,0,139.01,123.32ZM21.86,106.05v17.27H19.79V111.84c0-.46-.34-.52-.79-.52H16.07V100.56h5.79Zm0-7.15H16.07V91.02c0-.03.1-.07.13-.11l1.78-2.14a.836.836,0,0,0-.1-1.17.825.825,0,0,0-1.16.11l-1.33,1.6-1.47-1.78a.839.839,0,0,0-1.3,1.06l1.78,2.17V98.9H6.9l8.33-24.1,6.63,18.89V98.9ZM26,115.87v2.07H23.52v-2.07Zm99.32-34.76h-2.9V76.56h2.9Zm0-6.21H60.76V73.24h64.56V74.9Zm-4.56,1.65V81.1h-4.14V76.55Zm-5.79,0V81.1h-3.72V76.55Zm-5.38,0V81.1h-4.14V76.55Zm-11.17,0V81.1H94.7V76.55Zm-5.38,0V81.1H88.49V76.55Zm-12.42,0V81.1H76.48V76.55Zm-5.79,0V81.1H71.1V76.55Zm-5.38,0V81.1H65.31V76.55Zm-5.8,0V81.1h-2.9V76.55ZM28.06,45.93V44.27h92.29v1.66H30a.57.57,0,0,0-.13.01.487.487,0,0,0-.12-.01Zm2.65,1.65h8.1l-.71,2.85a.76.76,0,0,0,.62.92c.06.02.13-.02.19-.02.38,0,.71-.12.8-.5l.8-3.25H93.68l-.47,1.85a.754.754,0,0,0,.62.92c.06.02.13-.02.19-.02.38,0,.72-.12.81-.5l.56-2.25h18.7l-1.06,4.37a.756.756,0,0,0,.62.92c.06.02.13-.02.19-.02.38,0,.72-.12.81-.51l1.14-4.77h2.99l1.62,11.59H33.18l.61-2.98a.909.909,0,0,0-.63-1.06.8.8,0,0,0-.98.6l-.66,3.19a2.451,2.451,0,0,0-.01.25H28.9ZM28.63,60.83h92l.17,1.24H28.43Zm-.58,2.89h9.94l-.94,3.79a.754.754,0,0,0,.61.92c.06.02.13-.02.19-.02.37,0,.71-.12.8-.5l1.04-4.19H67.47l-1.05,3.76a.752.752,0,0,0,.58.94.831.831,0,0,0,.22-.01c.36,0,.7-.11.8-.48l1.17-4.21h52.04l3.65,7.86h-6.7l.73-3.27a.832.832,0,1,0-1.62-.34l-.82,3.61H92.82l.51-2.32a.832.832,0,1,0-1.62-.34l-.6,2.66H51.29l.42-1.95a.832.832,0,1,0-1.62-.34l-.51,2.3H24.06Zm49.67,43.46v2.9H60.76v-2.9Zm-12.41-1.66V90.21h7.86v15.31ZM23.51,73.24H59.1v4.97H23.51ZM59.1,79.86v20.69H55.3a3.965,3.965,0,0,0,.08-.72V79.86Zm-5.23,20.7H48.26a3.965,3.965,0,0,0,.08-.72V79.86h5.38V99.83C53.72,99.99,53.8,100.14,53.87,100.56Zm-7.04,0h-5.2a3.965,3.965,0,0,0,.08-.72V79.86h4.97V99.83C46.69,99.99,46.76,100.14,46.83,100.56Zm-6.62,0h-5.2a3.965,3.965,0,0,0,.08-.72V79.86h4.97V99.83C40.07,99.99,40.14,100.14,40.21,100.56Zm-6.62,0H27.98a3.965,3.965,0,0,0,.08-.72V79.86h5.38V99.83C33.44,99.99,33.52,100.14,33.59,100.56ZM23.51,79.86h2.9V99.83c0,.15.08.3.15.72H23.52V79.86Zm0,25.66v-3.31H59.1v3.31Zm60.84,9.93v2.48H54.14v-2.48H84.35Zm-3.31-3.72v2.07H56.62v-2.07H81.04Zm.41-6.21H74.83V89.08c0-.46-.34-.52-.79-.52H64.52c-.46,0-.86.07-.86.52v16.44h-2.9V82.76H81.45v22.76Zm.83-28.97h4.55V81.1H82.28Zm.82,28.97V82.76h1.66V104.8c0,.15.08.3.15.72H83.1Zm16.56,0H86.33a3.965,3.965,0,0,0,.08-.72V82.76H99.65v22.76Zm1.65,0V82.76h1.66V104.8c0,.15.08.3.15.72h-1.81Zm2.49-24.41h-3.72V76.56h3.72Zm13.65,24.41H104.54a3.965,3.965,0,0,0,.08-.72V82.76h12.83Zm1.66,0V82.76h1.66V104.8c0,.15.08.3.15.72h-1.81Zm6.21,8.28h-7.04v-2.07h7.04Zm5.27-25.37,1.76,1.98v7.67h-7.39l8.32-23.92,8.32,23.92h-7.59V90.72c0-.05.18-.11.25-.19l1.78-2.13a.836.836,0,0,0-.1-1.17.816.816,0,0,0-1.16.11l-1.4,1.69-1.53-1.7a.837.837,0,0,0-1.18-.06A.814.814,0,0,0,130.59,88.43Z" fill="#175985"/>
        <path id="Path_376" data-name="Path 376" d="M122.87,123.32h-6.62a.83.83,0,1,0,0,1.66h6.62a.83.83,0,1,0,0-1.66Z" fill="#175985"/>
        <path id="Path_377" data-name="Path 377" d="M45.45,111.32a.828.828,0,0,0-.83-.83H35.93a.828.828,0,0,0-.83.83v3.72a.828.828,0,0,0,.83.83h8.69a.828.828,0,0,0,.83-.83Zm-1.66,2.89H36.75v-2.07h7.04Z" fill="#175985"/>
        <path id="Path_378" data-name="Path 378" d="M101.31,109.66a.828.828,0,0,0-.83-.83H91.8a.828.828,0,0,0-.83.83v3.72a.828.828,0,0,0,.83.83h8.69a.828.828,0,0,0,.83-.83v-3.72Zm-1.65,2.9H92.62v-2.07h7.04Z" fill="#175985"/>
        <path id="Path_379" data-name="Path 379" d="M107.94,116.28a.828.828,0,0,0-.83-.83H98.42a.828.828,0,0,0-.83.83v4.14a.828.828,0,0,0,.83.83h8.69a.828.828,0,0,0,.83-.83Zm-8.7.83h7.04v2.48H99.24Z" fill="#175985"/>
        <path id="Path_380" data-name="Path 380" d="M71.52,96.53a.828.828,0,0,0-.83.83v2.48a.83.83,0,0,0,1.66,0V97.36A.834.834,0,0,0,71.52,96.53Z" fill="#175985"/>
        <path id="Path_381" data-name="Path 381" d="M51.43,56.67a1.225,1.225,0,0,0,.19.02.833.833,0,0,0,.81-.64L53.84,50a.826.826,0,1,0-1.61-.37l-1.42,6.05A.82.82,0,0,0,51.43,56.67Z" fill="#175985"/>
        <path id="Path_382" data-name="Path 382" d="M75.05,57.34a1.225,1.225,0,0,0,.19.02.822.822,0,0,0,.8-.64l.65-2.74a.832.832,0,0,0-1.62-.38l-.65,2.74A.841.841,0,0,0,75.05,57.34Z" fill="#175985"/>
        <path id="Path_383" data-name="Path 383" d="M85.62,57.71a.761.761,0,0,0,.21.03.823.823,0,0,0,.8-.62l1.64-6.43a.831.831,0,0,0-1.61-.41l-1.64,6.43A.827.827,0,0,0,85.62,57.71Z" fill="#175985"/>
        <path id="Path_384" data-name="Path 384" d="M105.72,55.83a.875.875,0,0,0,.16.02.823.823,0,0,0,.81-.67l.43-2.18a.826.826,0,1,0-1.62-.32l-.43,2.18A.827.827,0,0,0,105.72,55.83Z" fill="#175985"/>
      </g>
      <g id="Group_98" data-name="Group 98">
        <path id="Path_385" data-name="Path 385" d="M339.24,123.98a.828.828,0,0,0-.83-.83h-3.72a.83.83,0,0,0,0,1.66h3.72A.828.828,0,0,0,339.24,123.98Z" fill="#175985"/>
        <path id="Path_386" data-name="Path 386" d="M342.14,123.98a.828.828,0,0,0,.83.83h4.97c.13,0,.25-.18.35-.23a7.142,7.142,0,0,0,6.33,3.69,7.24,7.24,0,0,0,0-14.48,7.34,7.34,0,0,0-7.21,7.35,9.986,9.986,0,0,0,.25,2.01h-4.7A.826.826,0,0,0,342.14,123.98Zm12.48-8.55a5.555,5.555,0,1,1-5.55,5.56A5.567,5.567,0,0,1,354.62,115.43Z" fill="#175985"/>
        <path id="Path_387" data-name="Path 387" d="M416.63,123.15a.83.83,0,0,0,0,1.66h6.21a.83.83,0,0,0,0-1.66Z" fill="#175985"/>
        <path id="Path_388" data-name="Path 388" d="M425.74,123.15a.83.83,0,0,0,0,1.66h38.9c.06,0,.11-.16.17-.17a5.912,5.912,0,0,0,10.96.17h2.44a8.315,8.315,0,0,0,13.82,0h1.34a4.1,4.1,0,0,0,8.16,0h2.41a.83.83,0,0,0,0-1.66h-2.58a4.1,4.1,0,0,0-7.82,0h-.65a8.692,8.692,0,0,0,.55-3.14,8.27,8.27,0,0,0-6.07-8.16V69.88c0-.46-.34-.52-.79-.52H467.54a.83.83,0,0,0,0,1.66h18.18v40.55a4,4,0,0,0-.62-.03,8.207,8.207,0,0,0-2.69.45V76.91c0-.46-.34-.52-.79-.52H466.69V52.08c0-.46-.34-.52-.79-.52H385.62c-.46,0-.86.07-.86.52v14.9c0,.46.4,1.13.86,1.13h10.31V84.66H355.8c-.46,0-.86.07-.86.52V99.25c0,.46.4,1.13.86,1.13h7.83v22.76h-.79a.83.83,0,0,0,0,1.66h18.21a.83.83,0,0,0,0-1.66h-4.17V100.38h15.73v22.76h-8.66a.83.83,0,0,0,0,1.66h30.21a.83.83,0,0,0,0-1.66h-2.1V100.38h14.9v22.76h-1.22Zm71.71-1.51a2.45,2.45,0,1,1-2.45,2.45A2.454,2.454,0,0,1,497.45,121.64Zm-12.33-8.46a6.692,6.692,0,0,1,6.68,6.68,6.621,6.621,0,0,1-.83,3.22.837.837,0,0,0-.22.36,6.677,6.677,0,1,1-5.63-10.26ZM466.67,78.04h14.07V91.7H466.67Zm0,15.32h14.07v2.48H466.67Zm0,4.13h14.07v15.27a8.37,8.37,0,0,0-3.97,7.25,8.69,8.69,0,0,0,.58,3.14h-1.18c.02-.41.03-.53.03-.73a6,6,0,0,0-5.93-5.99,5.543,5.543,0,0,0-3.6,1.14Zm3.62,20.52a4.26,4.26,0,1,1-4.26,4.26A4.264,4.264,0,0,1,470.29,118.01Zm-11.48,5.14H428.6V100.39h1.27c.46,0,.79-.68.79-1.13V97.5H458.8v25.65ZM426.94,86.32h2.07v2.9h-2.07Zm-1.24-1.65V68.11h2.07V84.66H425.7Zm33.11,11.17H430.67V93.36h28.14Zm0-4.14H430.67V85.19c0-.46-.34-.52-.79-.52h-.45V68.11h29.38V91.7Zm3.72-38.49h2.48v2.48h-2.48Zm-4.96,0h3.31v2.48h-3.31Zm-4.97,0h3.31v2.48H452.6Zm-4.96,0h3.31v2.48h-3.31Zm-5.8,0h4.14v2.48h-4.14Zm-4.96,0h3.31v2.48h-3.31Zm-4.97,0h3.31v2.48h-3.31Zm-5.38,0h3.72v2.48h-3.72Zm-5.38,0h3.72v2.48h-3.72Zm-4.55,0h2.9v2.48h-2.9Zm-5.38,0h3.72v2.48h-3.72Zm-5.38,0h3.72v2.48h-3.72Zm-5.38,0h3.72v2.48h-3.72Zm-4.55,0h2.9v2.48h-2.9Zm-5.38,0h3.72v2.48h-3.72Zm-4.14,0h2.48v2.48h-2.48Zm0,13.25v-9.1h78.63v62.17a6.826,6.826,0,0,0-.67,2.9c0,.19.03.31.05.73h-3.93V66.98c0-.46-.34-.52-.79-.52H386.39Zm14.48,18.21V68.11h23.17V84.66H400.87Zm19.87,1.65v2.9h-3.72v-2.9Zm-5.38,0v2.9h-3.72v-2.9Zm-5.38,0v2.9h-3.72v-2.9Zm-5.38,0v2.9h-3.72v-2.9Zm17.79,0h2.9v2.9h-2.9Zm-24.83-1.65V68.11h1.66V84.66h-1.66Zm1.66,1.65v2.9h-2.9v-2.9Zm-8.28,0h3.72v2.9h-3.72Zm-5.38,0h3.72v2.9h-3.72Zm-4.55,0h2.9v2.9h-2.9Zm-5.8,0h4.14v2.9h-4.14Zm-4.96,0h3.31v2.9h-3.31Zm-4.97,0h3.31v2.9h-3.31Zm-5.38,0h3.72v2.9H359.9Zm-3.31,0h1.66v2.9h-1.66Zm10.76,36.83h-2.07V100.39h2.07Zm4.14,0h-2.48V100.39h2.48Zm3.72,0h-2.07V100.39h2.07Zm21.94,0h-2.9V100.39h2.9Zm13.24,0H398.8V100.39h11.59v22.76Zm9.97-24.41H356.59V90.88h72.42v7.86h-8.65Z" fill="#175985"/>
        <path id="Path_389" data-name="Path 389" d="M400.87,115.4a.828.828,0,0,0,.83-.83v-2.9a.83.83,0,1,0-1.66,0v2.9A.841.841,0,0,0,400.87,115.4Z" fill="#175985"/>
        <path id="Path_390" data-name="Path 390" d="M413.7,111.67v2.9a.83.83,0,1,0,1.66,0v-2.9a.828.828,0,0,0-.83-.83A.841.841,0,0,0,413.7,111.67Z" fill="#175985"/>
        <path id="Path_391" data-name="Path 391" d="M506.02,124.81h4.55a.83.83,0,0,0,0-1.66h-4.55a.83.83,0,0,0,0,1.66Z" fill="#175985"/>
      </g>
      <g id="Group_99" data-name="Group 99">
        <path id="Path_392" data-name="Path 392" d="M582.96,75.09a2.569,2.569,0,0,0,2.57-2.57.83.83,0,0,0-1.66,0,.92.92,0,1,1-1.84,0,.83.83,0,0,0-1.66,0A2.593,2.593,0,0,0,582.96,75.09Z" fill="#175985"/>
        <path id="Path_393" data-name="Path 393" d="M595.33,78.84a2.569,2.569,0,0,0,2.57-2.57.83.83,0,0,0-1.66,0,.92.92,0,1,1-1.84,0,.83.83,0,0,0-1.66,0A2.6,2.6,0,0,0,595.33,78.84Z" fill="#175985"/>
        <path id="Path_394" data-name="Path 394" d="M601.71,72.84a2.576,2.576,0,0,0,2.57-2.57.83.83,0,0,0-1.66,0,.92.92,0,1,1-1.84,0,.83.83,0,0,0-1.66,0A2.6,2.6,0,0,0,601.71,72.84Z" fill="#175985"/>
        <path id="Path_395" data-name="Path 395" d="M612.96,77.72a2.576,2.576,0,0,0,2.57-2.57.83.83,0,0,0-1.66,0,.92.92,0,1,1-1.84,0,.83.83,0,0,0-1.66,0A2.606,2.606,0,0,0,612.96,77.72Z" fill="#175985"/>
        <path id="Path_396" data-name="Path 396" d="M630.22,78.47a2.576,2.576,0,0,0,2.57-2.57.83.83,0,0,0-1.66,0,.92.92,0,1,1-1.84,0,.83.83,0,0,0-1.66,0A2.6,2.6,0,0,0,630.22,78.47Z" fill="#175985"/>
        <path id="Path_397" data-name="Path 397" d="M639.98,123.32h-4.97a.83.83,0,1,0,0,1.66h4.97a.83.83,0,1,0,0-1.66Z" fill="#175985"/>
        <path id="Path_398" data-name="Path 398" d="M562.38,86.86a1,1,0,0,0-.24-.04c-8.52,0-9.49,6.94-9.5,7.01,0,.03-.02.07-.02.1v16.66c0,.46.4,1.13.86,1.13h17.79c.46,0,.79-.68.79-1.13V93.94c0-.03.01-.07.01-.1-.01-.07-.95-7.01-9.47-7.01A.583.583,0,0,0,562.38,86.86Zm-4.35,2.73,2.89,3.93h-6.41A6.082,6.082,0,0,1,558.03,89.59Zm3.28,20.48h-7.04v-3.31h7.04Zm0-4.96h-7.04V95.18h7.04Zm9.11,4.96h-7.45v-3.31h7.45Zm0-4.96h-7.45V95.18h7.45Zm-.17-11.59h-6.1l2.69-3.87A6.012,6.012,0,0,1,570.25,93.52Zm-7.7-.87-2.87-3.91a11.322,11.322,0,0,1,2.46-.26.74.74,0,0,1,.48,0,11.186,11.186,0,0,1,2.61.29Z" fill="#175985"/>
        <path id="Path_399" data-name="Path 399" d="M608.94,119.59a.83.83,0,1,0,0,1.66h2.9a.83.83,0,1,0,0-1.66Z" fill="#175985"/>
        <path id="Path_400" data-name="Path 400" d="M619.28,117.94a.828.828,0,0,0-.83-.83h-2.48a.83.83,0,1,0,0,1.66h2.48A.834.834,0,0,0,619.28,117.94Z" fill="#175985"/>
        <path id="Path_401" data-name="Path 401" d="M619.28,122.08h2.9a.83.83,0,1,0,0-1.66h-2.9a.83.83,0,1,0,0,1.66Z" fill="#175985"/>
        <path id="Path_402" data-name="Path 402" d="M625.08,120.42a.83.83,0,1,0,0,1.66h1.24a.83.83,0,1,0,0-1.66Z" fill="#175985"/>
        <path id="Path_403" data-name="Path 403" d="M629.63,117.11a.83.83,0,1,0,0,1.66h2.07a.83.83,0,1,0,0-1.66Z" fill="#175985"/>
        <path id="Path_404" data-name="Path 404" d="M639.98,119.59h-2.9a.83.83,0,1,0,0,1.66h2.9a.83.83,0,1,0,0-1.66Z" fill="#175985"/>
        <path id="Path_405" data-name="Path 405" d="M646.6,122.08a.83.83,0,1,0,0-1.66h-1.24a.83.83,0,1,0,0,1.66Z" fill="#175985"/>
        <path id="Path_406" data-name="Path 406" d="M586.97,107.29a.828.828,0,0,0,.83-.83V104.8a.83.83,0,0,0-1.66,0v1.66A.828.828,0,0,0,586.97,107.29Z" fill="#175985"/>
        <path id="Path_407" data-name="Path 407" d="M602.54,42.95a4.11,4.11,0,1,0-4.11-4.11A4.11,4.11,0,0,0,602.54,42.95Zm0-6.56a2.45,2.45,0,1,1-2.45,2.45A2.454,2.454,0,0,1,602.54,36.39Z" fill="#175985"/>
        <path id="Path_408" data-name="Path 408" d="M592.8,49.65h.79V62.59c0,.46.4,1.13.86,1.13h15.73c.46,0,.79-.68.79-1.13V49.65h.86c.46,0,.79-.68.79-1.13V46.04c0-.46-.34-.52-.79-.52H592.8c-.46,0-.86.07-.86.52v2.48C591.94,48.98,592.34,49.65,592.8,49.65Zm8.66,12.42h-6.21V58.35h6.21Zm0-5.38h-6.21V49.65h6.21Zm7.86,5.38h-6.21V58.35h6.21Zm0-5.38h-6.21V49.65h6.21Zm-15.73-9.52h17.38V48H593.59Z" fill="#175985"/>
        <path id="Path_409" data-name="Path 409" d="M523.69,124.97h6.21a.83.83,0,1,0,0-1.66h-.86V109.24h2.9v14.59c0,.46.4,1.13.86,1.13h36.01a.83.83,0,1,0,0-1.66H546.43v-2.07h31.04v2.07h-4.52a.83.83,0,1,0,0,1.66h9.93a.83.83,0,1,0,0-1.66h-3.76v-2.07h24.83v2.07H587a.83.83,0,1,0,0,1.66h45.11a.83.83,0,1,0,0-1.66H605.59v-3.2c0-.46-.34-.52-.79-.52h-2.1v-.83h2.1a.83.83,0,1,0,0-1.66h-2.07a.862.862,0,0,0-.83-.83h-2.93v-.41h50.49v1.24h-3.28a.83.83,0,1,0,0,1.66h3.28v4.55h-6.17a.83.83,0,1,0,0,1.66h10.76c.46,0,.79-.68.79-1.13V106.86c0-.46-.34-.52-.79-.52h-1.27v-2.07h4.14V123a1,1,0,0,0-.81.98.986.986,0,0,0,.84.98h15.72a.83.83,0,1,0,0-1.66h-.86V103.96c0-.46-.34-.52-.79-.52h-3.34v-2.37c0-.46-.34-.52-.79-.52H661.1c-.46,0-.83.22-.83.68a.57.57,0,0,0,.01.13c-.02.07-.05.06-.05.13v3.62h-1.66v-1.96c0-.46-.34-.52-.79-.52h-5.79c-.46,0-.86.07-.86.52v3.2h-1.24V85.77a.761.761,0,0,0-.03-.21.71.71,0,0,0,.03-.21V82.34h4.71c.32,0,.62-.34.75-.64a.971.971,0,0,0-.13-.96L603.73,21.5a.807.807,0,0,0-.66-.3c-.01,0-.01-.02-.02-.02a.813.813,0,0,0-.9.18l-61.42,63a1.1,1.1,0,0,0-.17,1.05c.13.31.43.66.76.66h3.45v20.28h-1.66v-3.2c0-.46-.34-.52-.79-.52h-4.97c-.46,0-.86.07-.86.52v1.96H532.8c-.46,0-.86.07-.86.52v1.96h-2.07v-2.37c0-.46-.34-.52-.79-.52h-3.72c-.46,0-.86.07-.86.52v18.1h-.79a.828.828,0,0,0-.83.83A.8.8,0,0,0,523.69,124.97Zm143.98-19.86h2.48v18.21h-2.48Zm-5.79-2.9h4.14v21.11h-2.48V105.63c0-.46-.34-.52-.79-.52h-.86v-2.9Zm-3.31,4.55h3.31v16.55h-3.31Zm-8.69,1.25h3.31v15.31h-2.07v-8.58c0-.46-.34-.52-.79-.52h-.45Zm-72.43,11.58H546.41V85.15l16.36-16.36,14.68,16.26Zm-3.87-48.25a2.445,2.445,0,0,0,2.57-2.42c0-.14-.04-.23-.1-.23h43.81c-.06,0-.1.09-.1.23a2.51,2.51,0,0,0,2.57,2.5,2.478,2.478,0,0,0,2.57-2.46c0-.14-.04-.27-.1-.27h11.85c.14,0,.26-.19.37-.25l2.05,2.3a.681.681,0,0,0-.08.31.9.9,0,0,1-.92.9.926.926,0,0,1-.92-.93.83.83,0,0,0-1.66,0,2.569,2.569,0,0,0,2.57,2.57,2.464,2.464,0,0,0,2.3-1.27l7.1,8.37H575.8a.868.868,0,0,0-.28.05L564.64,68.69h6.43c-.06,0-.1.09-.1.23A2.5,2.5,0,0,0,573.58,71.34Zm-1.02-2.65h2.03c-.06,0-.1.09-.1.23a.853.853,0,0,1-.92.84.829.829,0,0,1-.92-.8C572.66,68.82,572.62,68.69,572.56,68.69Zm48.76,0h2.03c-.06,0-.1.09-.1.23a.853.853,0,0,1-.92.84.829.829,0,0,1-.92-.8C621.42,68.82,621.38,68.69,621.32,68.69Zm-20.28,49.25v1.66H579.11v-1.66h21.93Zm-1.9-7.87h-.96c-.46,0-.86.07-.86.52v2.37H590.7V96.83h1.27c.46,0,.79-.68.79-1.13V93.22c0-.46-.34-.52-.79-.52H579.11V86.49h17.18Zm-1.18-23.58h7.61l-2.85,23.59h-1.9Zm-6.85,7.86v.83h-12v-.83Zm-2.07,2.48v16.14h-9.93V96.83Zm8.28,17.8v1.66H579.11v-1.66Zm6.62-.42h-4.97v-.72a.761.761,0,0,0-.03-.21.71.71,0,0,0,.03-.21v-1.35h4.97Zm12-3.61v3.62H605.59V110.6c0-.46-.34-.52-.79-.52h-.42l2.85-23.59h7.93a.708.708,0,0,0-.01.23l2.75,23.35h-1.1C616.34,110.07,615.94,110.14,615.94,110.6Zm.85-24.11h7.45l-2.78,23.59h-1.9l-2.77-23.55C616.79,86.51,616.79,86.49,616.79,86.49Zm5.77,27.72h-4.97v-2.48h4.97Zm11.62-4.14c-.46,0-.86.07-.86.52v3.62h-9.1v-3.62c0-.46-.34-.52-.79-.52h-.29l2.77-23.53v-.06h5.98v.06l2.89,23.53Zm-.64-23.58h7.65l-2.85,23.59h-1.91Zm5.99,27.72h-4.55v-2.48h4.55Zm5.79,0h-4.14v-3.62c0-.46-.34-.52-.79-.52h-.38l2.85-23.59h2.46Zm2.9,0h-1.24V86.49h1.24Zm0-29.38H579.14c-.01,0-.02-.15-.03-.15-.03-.13-.09-.17-.18-.27L577,82.35h71.22ZM603.53,23.79l49.24,56.9h-3.09L603.86,27.53a1.061,1.061,0,0,0-.26-.64.458.458,0,0,1-.08-.13V23.79Zm-.67,5.27,32.83,37.98H564.87ZM543.27,84.42l58.6-60.45v3.37c0,.01.02.02.02.03L562.41,66.84c-.14.07-.24.34-.32.47l-16.95,17.1h-1.87Zm-.99,23.59h2.48v15.31h-2.48Zm-4.14-3.73h3.31v1.76a.862.862,0,0,0-.83.83v16.44h-2.48Zm-4.55,2.48h2.9v16.55h-2.9Zm-7.45-.41h2.07v.94a.862.862,0,0,0-.83.83v15.2h-1.24Z" fill="#175985"/>
        <path id="Path_410" data-name="Path 410" d="M517.89,124.97h2.9a.83.83,0,1,0,0-1.66h-2.9a.83.83,0,1,0,0,1.66Z" fill="#175985"/>
        <path id="Path_411" data-name="Path 411" d="M675.15,124.97h2.07a.83.83,0,1,0,0-1.66h-2.07a.83.83,0,1,0,0,1.66Z" fill="#175985"/>
      </g>
      <g id="Group_100" data-name="Group 100">
        <path id="Path_412" data-name="Path 412" d="M153.13,124.97h4.14a.83.83,0,1,0,0-1.66h-4.14a.83.83,0,1,0,0,1.66Z" fill="#175985"/>
        <path id="Path_413" data-name="Path 413" d="M323.22,124.97h4.97a.83.83,0,0,0,0-1.66h-4.97a.83.83,0,0,0,0,1.66Z" fill="#175985"/>
        <path id="Path_414" data-name="Path 414" d="M154.67,74.55a.842.842,0,0,0,.52.18,1.237,1.237,0,0,0,.18-.02l13.45-3.17V110.6a2.3,2.3,0,0,0,.03.26,7.44,7.44,0,0,0-2.37,5.01h-1.91c-.28,0-.54-.01-.7.23a.716.716,0,0,0-.06.72l1.88,4.09a.751.751,0,0,0-.18.46v1.96h-2.04a.83.83,0,1,0,0,1.66h101.4a.83.83,0,0,0,0-1.66H252.84V67.83l49.31,8.94a.829.829,0,0,0-.06.32v6.1h-1.62a.83.83,0,0,0,0,1.66h1.62V97.68h-2.86a.83.83,0,0,0,0,1.66h2.86V110.1c0-.06-.42-.1-.64-.13-.19-4.6-3.32-9.33-9-9.33a9.164,9.164,0,0,0-9,8.64,7.338,7.338,0,0,0-5.11,6.61h-1.91c-.28,0-.54-.01-.7.23a.716.716,0,0,0-.06.72l2.02,4.41c-.01.06-.04.08-.04.14v1.96h-4.52a.83.83,0,0,0,0,1.66h45.52a.83.83,0,0,0,0-1.66H305.37v-1.23c0-.08.32-.21.4-.39l2.29-4.97a.558.558,0,0,0-.05-.64c-.15-.24-.41-.23-.69-.23h-.75a6.224,6.224,0,0,0-2.85-4.93c.01-.06.01-.28.01-.34V77.08c0-.01.01-.02.01-.03L315.6,79.2a.757.757,0,0,0,.15.01.832.832,0,0,0,.52-.19.813.813,0,0,0,.28-.64V72.3a.808.808,0,0,0-.67-.81L232.62,56.52l10.87-2.56a.826.826,0,0,0,.63-.81V47.26a.82.82,0,0,0-.3-.65.837.837,0,0,0-.7-.16L154.99,67.2a.844.844,0,0,0-.65.81V73.9A.882.882,0,0,0,154.67,74.55Zm19.23,36.14a5.806,5.806,0,0,1,5.76,5.18H168.14A5.814,5.814,0,0,1,173.9,110.69Zm8.8,5.18h-1.38a7.669,7.669,0,0,0-7.42-6.98c-.21,0-.41-.06-.61-.04a7.4,7.4,0,0,1,7.31-6.53c4.6,0,7.16,4,7.35,7.79A6.149,6.149,0,0,0,182.7,115.87Zm6.01-4.04a4.208,4.208,0,0,1,4.35,4.04h-8.71A4.223,4.223,0,0,1,188.71,111.83ZM192,123.32H167.16v-.83H192Zm.67-2.49H167.38l-1.52-3.31h28.33Zm35.75-42.62h-3.28a.83.83,0,0,0,0,1.66h3.28v43.45H193.66v-1.3c0-.08.22-.18.28-.31l2.29-4.97a.558.558,0,0,0-.05-.64c-.15-.24-.41-.23-.69-.23h-.76a6.008,6.008,0,0,0-5.12-5.62,10.015,10.015,0,0,0-3.25-7.21h1.96a.83.83,0,0,0,0-1.66H184.6c-.21,0-.39-.07-.54.05a8.816,8.816,0,0,0-3.45-.74,9.017,9.017,0,0,0-9.02,8.45c-.37.12-.68.24-1.1.41V84.83h2.1a.83.83,0,1,0,0-1.66h-2.1V74.9h5.83a.83.83,0,1,0,0-1.66h-5.83v-2.1L228.43,57.5V78.21Zm4.14,45.11h-2.48v-2.07h2.48Zm0-3.73h-2.48v-2.07h2.48Zm0-3.72h-2.48v-2.48h2.48Zm0-4.14h-2.48v-1.66h2.48Zm0-3.31h-2.48v-2.48h2.48Zm0-4.14h-2.48V101.8h2.48Zm14.48,19.04H234.21V103.04h12.83Zm0-21.94H234.21v-.83h12.83Zm4.14,21.94H248.7v-2.07h2.48Zm0-3.73H248.7v-2.07h2.48Zm0-3.72H248.7v-2.48h2.48Zm0-4.14H248.7v-1.66h2.48Zm0-3.31H248.7v-2.48h2.48Zm0-4.14H248.7V101.8h2.48Zm0-4.14H248.7v-.72c0-.46-.34-.52-.79-.52H233.43c-.46,0-.86.07-.86.52v.72h-2.48V98.07H251.2v2.07Zm0-3.72H230.07V94.35h21.11Zm0-3.73H230.07V90.62h21.11Zm0-3.72H230.07v-2.9h21.11Zm0-4.55H230.07V82.35h21.11Zm0-3.73H230.07v-2.9h21.11Zm0-4.55H230.07V74.07h21.11Zm0-3.72H230.07V70.35h21.11Zm0-4.86v1.13H230.07v-5l21.11,3.83Zm41.27,34.71c4.6,0,7.16,4.02,7.35,7.81a6.2,6.2,0,0,0-5.24,5.79h-1.38a7.669,7.669,0,0,0-7.42-6.98c-.21,0-.41-.06-.61-.04A7.434,7.434,0,0,1,292.45,102.27Zm-6.69,8.42a5.806,5.806,0,0,1,5.76,5.18H280A5.806,5.806,0,0,1,285.76,110.69Zm17.98,12.63H279.32v-.83h24.42v.83Zm.79-2.49H279.24l-1.52-3.31h28.32Zm.4-4.96h-8.71a4.367,4.367,0,0,1,8.71,0ZM314.91,73v4.39l-84.8-15.32h-.04V57.74ZM156,68.67l86.49-20.36V52.5L169.7,69.63h-.02a.954.954,0,0,0-.41.1L156,72.85Z" fill="#175985"/>
        <path id="Path_415" data-name="Path 415" d="M174.62,91.15v3.31c0,.46.4,1.13.86,1.13h47.59c.46,0,.79-.68.79-1.13V91.15c0-.46-.34-.52-.79-.52h-2.1V76.66c0-.46-.34-.52-.79-.52h-41.8c-.46,0-.86.07-.86.52V90.62h-2.04C175.02,90.62,174.62,90.69,174.62,91.15ZM207.31,77.8h12v4.97h-12Zm12.01,6.62v6.21H212.7V84.42Zm-12.01,0h3.72v6.21h-3.72ZM192.42,77.8h13.24v4.97H192.42Zm13.24,6.62v6.21h-7.45V84.42Zm-13.24,0h4.14v6.21h-4.14ZM179.17,77.8h11.59v4.97H179.17Zm11.59,6.62v6.21h-7.45V84.42Zm-11.59,0h2.48v6.21h-2.48Zm-2.89,7.86h45.94v1.66H176.28Z" fill="#175985"/>
        <path id="Path_416" data-name="Path 416" d="M261.53,80.8v9.82h-1.21c-.46,0-.86.07-.86.52v3.31c0,.46.4,1.13.86,1.13h34.35c.46,0,.79-.68.79-1.13V91.14c0-.46-.34-.52-.79-.52H293.4V80.8c0-.46-.34-.52-.79-.52H262.4C261.93,80.28,261.53,80.34,261.53,80.8Zm32.28,11.48v1.66H261.12V92.28h32.69Zm-27.73-1.66V86.9h5.38v3.72Zm9.93,0V86.9h6.21v3.72Zm10.76,0V86.9h4.97v3.72Zm-2.9-8.69h7.86v3.31h-7.86Zm0,4.97h1.24v3.72h-1.24Zm-10.76-4.97h9.1v3.31h-9.1Zm0,4.97h1.24v3.72h-1.24Zm-9.93-4.97h8.28v3.31h-8.28Zm0,4.97h1.24v3.72h-1.24Z" fill="#175985"/>
        <path id="Path_417" data-name="Path 417" d="M236.28,113.91a.828.828,0,0,0,.83-.83v-1.66a.83.83,0,1,0-1.66,0v1.66A.841.841,0,0,0,236.28,113.91Z" fill="#175985"/>
        <path id="Path_418" data-name="Path 418" d="M204.45,105.52h-3.31a.83.83,0,1,0,0,1.66h3.31a.83.83,0,0,0,0-1.66Z" fill="#175985"/>
        <path id="Path_419" data-name="Path 419" d="M219.76,110.9a.828.828,0,0,0-.83-.83h-8.69a.83.83,0,1,0,0,1.66h8.69A.828.828,0,0,0,219.76,110.9Z" fill="#175985"/>
        <path id="Path_420" data-name="Path 420" d="M204.45,118.77h-4.97a.83.83,0,1,0,0,1.66h4.97a.83.83,0,0,0,0-1.66Z" fill="#175985"/>
        <path id="Path_421" data-name="Path 421" d="M211.9,70.35h5.79a.83.83,0,0,0,0-1.66H211.9a.83.83,0,1,0,0,1.66Z" fill="#175985"/>
        <path id="Path_422" data-name="Path 422" d="M193.28,70.35h4.14a.83.83,0,0,0,0-1.66h-4.14a.83.83,0,1,0,0,1.66Z" fill="#175985"/>
        <path id="Path_423" data-name="Path 423" d="M217.69,63.72h4.55a.83.83,0,0,0,0-1.66h-4.55a.83.83,0,0,0,0,1.66Z" fill="#175985"/>
        <path id="Path_424" data-name="Path 424" d="M219.76,119.59a.83.83,0,0,0,0,1.66h4.14a.83.83,0,0,0,0-1.66Z" fill="#175985"/>
        <path id="Path_425" data-name="Path 425" d="M219.76,100.56a.83.83,0,1,0,0-1.66h-4.14a.83.83,0,1,0,0,1.66Z" fill="#175985"/>
        <path id="Path_426" data-name="Path 426" d="M263.63,73.24h-3.72a.83.83,0,0,0,0,1.66h3.72a.83.83,0,0,0,0-1.66Z" fill="#175985"/>
        <path id="Path_427" data-name="Path 427" d="M277.29,77.8a.83.83,0,0,0,0-1.66h-3.72a.83.83,0,0,0,0,1.66Z" fill="#175985"/>
        <path id="Path_428" data-name="Path 428" d="M259.08,100.97a.828.828,0,0,0-.83-.83h-3.72a.83.83,0,0,0,0,1.66h3.72A.828.828,0,0,0,259.08,100.97Z" fill="#175985"/>
        <path id="Path_429" data-name="Path 429" d="M266.11,107.18a.83.83,0,0,0,0,1.66h6.62a.83.83,0,0,0,0-1.66Z" fill="#175985"/>
        <path id="Path_430" data-name="Path 430" d="M258.66,115.87h7.45a.83.83,0,0,0,0-1.66h-7.45a.83.83,0,0,0,0,1.66Z" fill="#175985"/>
        <path id="Path_431" data-name="Path 431" d="M278.53,98.9a.83.83,0,0,0,0,1.66h4.55a.83.83,0,0,0,0-1.66Z" fill="#175985"/>
      </g>
    </g>
  </g>
</svg>
